<svg xmlns="http://www.w3.org/2000/svg" xmlns:xlink="http://www.w3.org/1999/xlink" width="500" zoomAndPan="magnify" viewBox="0 0 375 374.999991" height="500" preserveAspectRatio="xMidYMid meet" version="1.0"><defs><clipPath id="d4b5852e0c"><path d="M 137.40625 78 L 237.90625 78 L 237.90625 156 L 137.40625 156 Z M 137.40625 78 " clip-rule="nonzero"/></clipPath></defs><rect x="-37.5" width="450" fill="#ffffff" y="-37.499999" height="449.999989" fill-opacity="1"/><rect x="-37.5" width="450" fill="#ffffff" y="-37.499999" height="449.999989" fill-opacity="1"/><path fill="#bdae9a" d="M 192.652344 95.636719 L 192.652344 95.640625 L 192.648438 95.636719 C 192.539062 95.644531 192.476562 95.671875 192.449219 95.707031 C 191.304688 97.285156 190.414062 98.417969 189.769531 99.117188 C 188.929688 100.03125 188.105469 100.832031 187.269531 101.480469 C 186.023438 102.449219 184.828125 103.246094 183.734375 103.945312 C 183.480469 104.105469 183.207031 104.285156 182.894531 104.464844 C 181.214844 105.109375 179.398438 105.695312 177.417969 106.113281 C 176.121094 106.390625 174.710938 106.472656 173.214844 106.472656 C 170.550781 106.472656 167.582031 106.09375 164.308594 105.339844 L 166.757812 149.695312 C 170.710938 150.710938 173.816406 151.40625 177.605469 151.40625 C 178.105469 151.40625 178.617188 151.394531 179.140625 151.371094 C 179.679688 151.34375 180.71875 151.074219 181.257812 151.058594 L 183.683594 150.898438 C 184.460938 150.785156 186.554688 150.285156 190.226562 149.359375 C 196.496094 148.9375 199.90625 148.011719 200.789062 147.769531 C 205.214844 146.554688 207.671875 145.3125 208.101562 143.808594 C 204.042969 133.121094 199.773438 122.507812 195.382812 111.925781 C 195.078125 111.191406 194.832031 110.363281 194.550781 109.472656 L 194.546875 109.472656 C 194.261719 107.46875 193.921875 105.789062 193.765625 104.398438 C 193.339844 100.585938 193.164062 98.109375 192.996094 96.992188 C 192.902344 96.351562 192.832031 95.992188 192.800781 95.90625 C 192.742188 95.730469 192.703125 95.636719 192.652344 95.636719 Z M 196.332031 290.175781 L 194.722656 291.414062 C 192.695312 293.003906 191.128906 294.316406 190.027344 295.355469 L 189.289062 296.082031 C 188.851562 296.53125 188.535156 296.914062 188.328125 297.226562 C 188.214844 297.402344 188.035156 297.785156 187.804688 298.375 L 187.558594 299.171875 C 187.414062 299.726562 187.308594 300.324219 187.242188 300.96875 C 187.109375 302.253906 187.128906 303.714844 187.308594 305.359375 C 187.714844 309.117188 188.75 311.410156 190.417969 312.214844 C 190.800781 312.402344 191.21875 312.507812 191.671875 312.507812 C 191.707031 312.507812 191.738281 312.507812 191.773438 312.507812 C 192.613281 312.476562 193.386719 312.34375 194.09375 312.15625 C 194.796875 311.96875 195.4375 311.710938 196.007812 311.386719 L 196.8125 310.84375 C 197.816406 310.050781 198.550781 308.980469 199.015625 307.632812 Z M 185.652344 311.8125 L 185.652344 311.816406 L 174.378906 318.265625 C 174.28125 318.109375 174.1875 317.972656 174.101562 317.855469 C 173.894531 317.589844 173.765625 317.4375 173.714844 317.394531 C 173.53125 317.203125 173.320312 317.015625 173.082031 316.835938 L 172.496094 316.441406 C 171.78125 316.101562 171.289062 315.894531 171.011719 315.824219 C 170.28125 315.601562 169.652344 315.488281 169.128906 315.488281 C 169.089844 315.488281 169.050781 315.488281 169.015625 315.492188 L 168.839844 315.496094 C 168.503906 315.507812 168.242188 315.566406 168.054688 315.671875 C 167.714844 315.90625 167.476562 316.148438 167.339844 316.402344 C 167.25 316.574219 167.203125 316.746094 167.199219 316.925781 C 167.183594 317.066406 167.25 317.414062 167.398438 317.972656 C 167.496094 318.308594 167.632812 318.691406 167.804688 319.117188 C 168.089844 319.746094 168.453125 320.40625 168.890625 321.097656 C 169.152344 321.472656 169.324219 321.699219 169.40625 321.777344 C 169.644531 322.046875 170.058594 322.488281 170.640625 323.097656 L 170.636719 323.097656 C 171.199219 324.152344 171.492188 324.796875 171.539062 325.03125 C 171.675781 325.765625 171.539062 327.261719 171.3125 329.554688 C 171.246094 330.214844 171.507812 330.921875 171.746094 331.707031 C 171.894531 332.207031 172.773438 333.160156 174.460938 334.566406 C 175.484375 335.421875 178.371094 336.238281 183.15625 336.914062 C 183.308594 336.9375 183.457031 336.941406 183.609375 336.941406 C 183.75 336.941406 183.890625 336.9375 184.027344 336.9375 C 186.097656 336.9375 187.835938 336.546875 189.25 335.777344 C 190.078125 335.324219 190.691406 334.804688 191.085938 334.199219 C 191.285156 333.898438 191.425781 333.574219 191.515625 333.230469 L 191.605469 332.703125 C 191.640625 332.339844 191.675781 331.941406 191.542969 331.554688 C 190.957031 329.785156 190.40625 328.429688 190.132812 327.40625 C 189.652344 325.578125 189.25 322.976562 188.738281 319.636719 C 188.640625 319.015625 188.464844 318.4375 188.289062 317.898438 C 187.433594 315.253906 186.546875 313.230469 185.652344 311.8125 Z M 185.652344 311.8125 " fill-opacity="1" fill-rule="nonzero"/><path fill="#e3c2b6" d="M 173.605469 47.488281 L 173.527344 47.488281 C 171.429688 47.769531 169.753906 48.582031 168.503906 49.933594 L 167.539062 51.054688 C 166.925781 51.867188 166.371094 52.816406 165.878906 53.902344 C 165.382812 54.988281 164.949219 56.210938 164.574219 57.570312 C 163.960938 60.203125 163.726562 62.710938 163.871094 65.085938 C 163.941406 66.320312 164.476562 68.9375 165.480469 72.9375 C 165.324219 76.78125 165.339844 80.3125 165.527344 83.53125 L 165.941406 88.125 C 166.472656 91.621094 166.839844 93.625 167.050781 94.136719 L 167.011719 94.4375 C 166.71875 95.417969 164.851562 97.878906 161.40625 101.824219 C 159.933594 103.96875 158.628906 106.0625 157.5 108.105469 L 165.769531 108.375 C 167.46875 108.617188 168.878906 108.734375 170.003906 108.734375 C 170.109375 108.734375 170.214844 108.734375 170.316406 108.734375 C 170.320312 108.734375 170.324219 108.734375 170.328125 108.734375 C 176.980469 108.734375 183.332031 106.460938 189.382812 101.917969 C 191.519531 100.074219 193.296875 97.808594 194.722656 95.125 C 196.125 92.632812 197.214844 89.328125 197.980469 85.214844 C 198.089844 83.746094 197.828125 82.945312 197.1875 82.808594 C 196.269531 82.488281 192.417969 82.058594 185.625 81.527344 C 182.867188 80.902344 181.316406 80.300781 180.980469 79.726562 C 180.433594 78.839844 180.035156 77.375 179.789062 75.332031 L 182.308594 70.347656 C 182.476562 69.917969 182.578125 69.332031 182.621094 68.589844 C 182.546875 65.964844 182.171875 63.152344 181.496094 60.152344 C 180.6875 56.402344 179.71875 53.480469 178.589844 51.394531 L 177.714844 49.988281 C 177.109375 49.15625 176.464844 48.527344 175.777344 48.113281 C 175.09375 47.695312 174.371094 47.488281 173.605469 47.488281 Z M 203.628906 146.128906 C 203.609375 146.128906 203.585938 146.128906 203.566406 146.132812 L 203.515625 146.148438 C 203.34375 146.242188 203.246094 146.714844 203.222656 147.5625 C 203.273438 148.425781 203.453125 149.277344 203.765625 150.125 C 204.15625 151.058594 204.570312 151.816406 205.007812 152.398438 C 205.164062 152.613281 205.324219 152.8125 205.488281 152.996094 L 205.742188 153.257812 C 205.910156 153.425781 206.085938 153.574219 206.265625 153.710938 L 206.890625 154.136719 L 207.078125 154.199219 C 207.863281 154.359375 208.757812 154.476562 209.757812 154.554688 C 211.085938 154.679688 211.941406 154.742188 212.3125 154.742188 C 212.390625 154.742188 212.449219 154.738281 212.488281 154.734375 C 213.507812 154.71875 214.226562 154.644531 214.648438 154.515625 L 213.289062 147.601562 C 212.9375 147.746094 212.503906 147.953125 211.984375 148.21875 C 211.917969 148.25 211.769531 148.28125 211.539062 148.320312 C 209.355469 148.648438 207.742188 148.8125 206.699219 148.8125 C 206.359375 148.8125 206.078125 148.792969 205.859375 148.757812 C 205.523438 148.691406 205.246094 148.511719 205.027344 148.222656 C 204.921875 148.097656 204.847656 147.980469 204.800781 147.878906 C 204.617188 147.304688 204.453125 146.910156 204.308594 146.695312 C 204.050781 146.316406 203.824219 146.128906 203.628906 146.128906 Z M 152.179688 142.421875 L 149.050781 151.488281 C 149.296875 151.574219 150.363281 152.71875 152.25 154.921875 L 154.152344 156.746094 C 154.855469 157.417969 155.460938 157.820312 155.980469 157.945312 C 156.503906 158.027344 157.148438 158.066406 157.914062 158.066406 C 159.066406 158.066406 160.488281 157.972656 162.183594 157.789062 C 162.445312 157.691406 163.03125 157.203125 163.9375 156.316406 C 165.125 155.894531 165.816406 155.613281 166.011719 155.472656 C 166.28125 155.296875 166.480469 155.054688 166.605469 154.738281 C 166.664062 154.480469 166.65625 154.253906 166.589844 154.058594 C 166.429688 153.742188 166.246094 153.546875 166.046875 153.476562 L 161.789062 152.542969 C 161.78125 152.484375 161.871094 152.402344 162.066406 152.296875 C 163.050781 151.855469 163.660156 151.554688 163.894531 151.394531 C 164.160156 151.242188 164.269531 151.027344 164.222656 150.757812 C 164.164062 150.59375 164.03125 150.4375 163.828125 150.289062 L 160.785156 148.511719 C 160.644531 148.398438 160.597656 148.3125 160.648438 148.253906 C 160.648438 148.148438 160.867188 148.039062 161.308594 147.925781 C 161.316406 147.925781 161.324219 147.925781 161.332031 147.925781 C 162.648438 147.925781 163.402344 147.859375 163.589844 147.722656 C 163.914062 147.5625 164.117188 147.355469 164.199219 147.101562 C 164.246094 146.964844 164.15625 146.785156 163.929688 146.554688 C 163.722656 146.371094 162.90625 146.003906 161.480469 145.445312 C 161.167969 145.316406 159.53125 144.894531 156.570312 144.175781 C 155.78125 143.933594 154.320312 143.347656 152.179688 142.421875 Z M 152.179688 142.421875 " fill-opacity="1" fill-rule="nonzero"/><path fill="#3d3b3a" d="M 184.121094 191.789062 C 184.648438 192.027344 185.074219 192.378906 185.398438 192.839844 C 185.578125 192.933594 185.699219 193.589844 186.085938 194.710938 C 186.417969 195.683594 186.082031 202.839844 184.757812 216.304688 L 184.460938 225.042969 C 184.425781 224.59375 184.394531 224.132812 184.363281 223.664062 C 184.152344 220.46875 184.035156 216.859375 184.015625 212.839844 L 184.117188 191.789062 Z M 187.042969 252.382812 L 187.042969 252.386719 C 187.890625 256.6875 189.175781 261.378906 190.214844 266.605469 C 191.199219 271.554688 191.332031 275.121094 191.332031 277.195312 C 191.335938 279.15625 191.328125 280.570312 191.03125 281.355469 C 190.132812 283.734375 189.347656 285.605469 188.917969 287.066406 C 188.632812 284.867188 188.488281 283.402344 188.425781 282.679688 C 187.824219 275.492188 187.339844 265.394531 187.039062 252.382812 Z M 203.25 146.992188 L 203.25 146.996094 L 202.625 147.199219 C 201.664062 147.285156 199.800781 147.949219 196.261719 148.507812 C 193.027344 149.019531 190.730469 149.058594 189.445312 149.296875 C 189.03125 149.371094 188.027344 149.707031 186.425781 150.261719 L 186.421875 150.265625 C 183.195312 150.84375 180.476562 151.160156 178.273438 151.21875 L 170.441406 150.527344 L 164.003906 150.789062 L 163.570312 153.402344 C 163.683594 153.488281 164.4375 153.527344 165.8125 153.703125 C 166.292969 153.765625 166.441406 154.066406 166.34375 154.4375 C 166.207031 154.972656 165.65625 155.566406 164.640625 156.210938 L 162.304688 161.394531 L 162.269531 161.378906 L 161.261719 163.445312 C 159.34375 167.621094 157.90625 172.027344 157.195312 176.699219 C 156.171875 183.449219 155.851562 190.390625 155.867188 197.488281 C 155.882812 202.753906 155.867188 208.820312 156.179688 215.667969 C 156.445312 221.464844 156.839844 227.941406 157.089844 235.117188 C 157.542969 248.148438 157.800781 258.195312 157.90625 265.257812 L 158.175781 271.777344 C 159 283.839844 159.929688 292.183594 160.726562 296.855469 C 162.332031 306.230469 164.484375 314.523438 167.414062 321.695312 C 167.539062 320.949219 169.144531 320.214844 172.207031 319.386719 C 173.417969 319.058594 175.636719 318.84375 178.886719 318.84375 C 181.226562 318.84375 184.101562 318.9375 187.503906 319.128906 L 187.902344 318.367188 C 188.921875 316.316406 189.722656 314.105469 190.058594 311.691406 C 190.695312 307.109375 190.890625 303.121094 190.71875 299.773438 C 190.691406 299.179688 190.550781 298.613281 190.46875 298.058594 L 190.472656 298.058594 C 191.351562 301.476562 191.894531 303.433594 192.152344 303.894531 C 193.976562 307.164062 195.234375 308.898438 195.707031 309.332031 C 196.585938 310.144531 197.277344 310.640625 197.960938 310.640625 C 198.417969 310.640625 198.84375 310.445312 199.238281 310.054688 L 211.316406 297.703125 C 211.945312 296.984375 212.46875 296 212.765625 294.71875 C 213.285156 292.460938 213.558594 289.722656 213.710938 286.527344 L 214.863281 243.164062 C 213.875 209.101562 213.71875 189.375 214.066406 183.960938 C 214.15625 182.582031 213.902344 178.050781 212.765625 170.492188 C 212.277344 167.234375 211.296875 164.804688 210.679688 163.03125 C 210.75 162.980469 210.816406 162.933594 210.871094 162.886719 L 207.507812 154.550781 C 205.359375 152.449219 204.265625 151.097656 204.054688 150.558594 C 203.804688 149.929688 203.527344 149.398438 203.394531 148.890625 L 203.257812 148.164062 C 203.234375 147.609375 203.34375 147.363281 203.292969 147.210938 L 203.253906 147.125 L 203.25 147.042969 Z M 203.25 146.992188 " fill-opacity="1" fill-rule="nonzero"/><g clip-path="url(#d4b5852e0c)"><path fill="#c28c64" d="M 217.242188 110.601562 C 218.597656 111.359375 219.363281 111.960938 219.691406 112.269531 C 220.671875 113.195312 221.207031 113.941406 221.207031 114.652344 C 221.207031 115.046875 221.25 115.609375 221.03125 116.28125 C 220.585938 117.671875 220.132812 118.777344 219.910156 119.691406 L 218.070312 114.289062 C 217.816406 113.476562 217.539062 112.25 217.242188 110.601562 Z M 204.625 78.089844 L 204.625 78.09375 C 204.609375 78.09375 204.59375 78.09375 204.578125 78.09375 C 204.53125 78.09375 204.488281 78.097656 204.445312 78.101562 L 204.042969 78.15625 C 202.558594 78.457031 197.8125 79.992188 189.765625 82.644531 C 189.445312 82.75 189.070312 82.75 188.664062 82.75 L 188.589844 82.753906 C 187.003906 82.75 184.816406 82.277344 182.035156 81.328125 L 181.496094 93.542969 C 181.445312 95.421875 181.492188 96.359375 181.636719 96.359375 C 180.546875 97.046875 179.953125 97.761719 179.847656 98.507812 C 180.976562 102.476562 183.023438 108.800781 186.617188 117.21875 C 192.738281 131.554688 196.59375 139.394531 197.464844 141.066406 C 199.398438 144.777344 200.367188 146.65625 200.476562 146.65625 C 200.484375 146.65625 200.488281 146.648438 200.488281 146.628906 L 200.492188 146.628906 C 200.859375 147.09375 201.160156 147.328125 201.390625 147.328125 C 201.449219 147.328125 201.503906 147.3125 201.554688 147.28125 L 202.320312 146.972656 L 218.125 137.328125 C 218.316406 137.1875 218.5 137.050781 218.679688 136.917969 L 218.683594 136.917969 L 215.386719 140.652344 L 208.160156 143.917969 C 207.515625 144.265625 207.164062 144.542969 207.101562 144.75 C 207.175781 146.300781 207.664062 147.902344 208.75 149.421875 C 210.796875 152.289062 212.867188 154.320312 214.777344 155.648438 C 217.078125 153.730469 220.273438 152.058594 224.183594 150.222656 C 225.210938 149.738281 226.371094 148.652344 227.839844 147.3125 C 230.195312 145.167969 232.371094 142.308594 233.976562 138.589844 C 236.089844 133.695312 237.039062 129.910156 237.335938 127.425781 C 237.613281 125.125 236.867188 121.054688 236.292969 115.042969 C 235.972656 111.6875 236.390625 109.917969 236.324219 109.75 C 235.773438 108.382812 235.265625 107.441406 234.765625 106.929688 C 225.691406 97.609375 218.636719 89.28125 213.265625 82.191406 C 212.691406 81.4375 211.613281 80.816406 210.296875 80.136719 C 209.585938 79.769531 208.90625 79.628906 208.292969 79.628906 L 207.929688 79.648438 C 207.769531 79.667969 207.613281 79.699219 207.464844 79.742188 C 206.328125 78.640625 205.382812 78.089844 204.625 78.089844 Z M 165.636719 84.542969 L 165.5 85.910156 C 163.554688 87.375 159.386719 89.15625 153.34375 92.621094 C 147.914062 95.738281 145.285156 98.292969 144.769531 99.257812 C 144.101562 100.515625 143.695312 102.164062 143.503906 104.234375 C 143.398438 105.390625 143.5 109.164062 143.941406 115.570312 L 142.796875 121.757812 C 142.777344 122.152344 141.992188 123.859375 140.445312 126.886719 C 140.261719 127.242188 139.523438 127.90625 138.308594 128.964844 C 138.121094 129.128906 137.9375 129.832031 137.730469 130.996094 C 137.398438 132.863281 137.679688 134.851562 138.515625 136.953125 C 138.195312 138.4375 138.089844 139.332031 138.121094 139.652344 C 138.152344 140.03125 138.699219 141.214844 139.84375 143.195312 L 139.550781 147.65625 C 139.675781 148.699219 139.980469 149.660156 140.566406 150.464844 C 141.699219 152.019531 145.675781 153.699219 152.394531 155.585938 L 152.390625 155.589844 C 152.472656 155.640625 152.539062 155.679688 152.597656 155.699219 L 153.3125 155.972656 C 153.316406 155.972656 153.324219 155.972656 153.328125 155.972656 C 153.34375 155.972656 153.347656 155.964844 153.34375 155.945312 C 153.308594 155.871094 153.261719 155.800781 153.199219 155.730469 C 152.65625 155.183594 152.339844 154.859375 152.25 154.757812 C 152.164062 154.664062 152.09375 154.582031 152.039062 154.515625 L 151.984375 154.445312 L 151.980469 154.445312 C 151.402344 153.140625 151.140625 152.273438 151.109375 151.851562 C 151.046875 151.019531 151.101562 150.355469 151.351562 149.796875 C 151.90625 148.574219 153.832031 147.136719 157.300781 145.6875 C 157.855469 145.457031 158.363281 145.414062 158.773438 145.414062 C 158.824219 145.414062 158.871094 145.417969 158.917969 145.417969 L 158.914062 145.417969 C 159.117188 147.386719 159.382812 148.96875 159.714844 150.15625 C 159.800781 150.507812 159.972656 150.992188 160.226562 151.609375 C 160.316406 151.785156 160.441406 151.941406 160.601562 152.078125 L 160.867188 152.265625 C 161.25 152.496094 161.769531 152.640625 162.425781 152.703125 C 163.355469 152.78125 164.292969 152.820312 165.238281 152.820312 C 165.769531 152.820312 166.304688 152.808594 166.84375 152.785156 C 169.222656 152.671875 170.382812 152.589844 170.316406 152.542969 C 170.707031 152.4375 170.875 152.210938 170.820312 151.859375 L 170.796875 151.660156 C 170.429688 150.546875 170.226562 149.851562 170.175781 149.570312 C 170.078125 149.175781 169.988281 148.765625 169.90625 148.339844 L 169.902344 148.339844 C 169.910156 144.113281 170.125 139.882812 170.398438 135.644531 C 170.738281 130.414062 171.46875 123.484375 172.640625 114.84375 C 172.832031 113.429688 172.886719 112.066406 172.792969 110.78125 C 172.546875 107.355469 172.054688 104.992188 171.730469 103.613281 C 171.609375 103.089844 170.535156 100.292969 168.382812 95.210938 C 168.042969 94.410156 167.839844 93.597656 167.679688 92.816406 C 167.050781 89.710938 166.960938 89.027344 166.417969 87.25 L 166.199219 86.398438 L 165.910156 85.554688 L 165.777344 85.167969 L 165.777344 85.171875 Z M 165.636719 84.542969 " fill-opacity="1" fill-rule="nonzero"/></g><path fill="#050517" d="M 190.515625 83.753906 L 190.578125 84.238281 C 190.816406 85.96875 191.152344 87.714844 191.566406 89.480469 C 192.132812 91.917969 192.757812 94.144531 193.441406 96.152344 C 193.507812 96.339844 193.492188 96.519531 193.417969 96.6875 C 193.394531 96.738281 193.339844 96.769531 193.25 96.769531 C 193.191406 96.769531 193.121094 96.765625 193.035156 96.734375 C 190.285156 95.742188 188.445312 95.125 187.515625 94.910156 C 186.257812 94.621094 185.0625 94.480469 183.925781 94.476562 L 183.503906 94.519531 C 183.242188 94.566406 183.023438 94.660156 182.84375 94.792969 C 182.664062 94.925781 182.527344 95.101562 182.429688 95.320312 C 182.234375 95.753906 182.199219 96.355469 182.332031 97.125 C 182.351562 96.84375 182.40625 96.589844 182.5 96.371094 L 182.660156 96.066406 C 182.789062 95.878906 182.960938 95.734375 183.148438 95.597656 C 183.464844 95.363281 184.054688 95.226562 184.953125 95.226562 C 184.972656 95.226562 184.992188 95.222656 185.011719 95.226562 C 185.835938 95.273438 187.054688 95.53125 188.667969 95.988281 C 189.1875 96.136719 190.292969 96.589844 192.007812 97.28125 C 192.492188 97.476562 193.011719 97.605469 193.535156 97.75 C 193.714844 97.800781 193.863281 97.828125 193.976562 97.828125 C 194.132812 97.828125 194.21875 97.777344 194.265625 97.683594 C 194.300781 97.605469 194.277344 97.382812 194.164062 96.996094 L 191.980469 89.792969 L 191.476562 87.925781 C 191.027344 86.277344 190.855469 85.179688 190.960938 84.628906 Z M 211.511719 86.648438 L 211.382812 86.679688 C 211.214844 86.761719 211.042969 87.011719 210.917969 87.441406 C 210.65625 88.351562 210.535156 89.09375 210.5 89.644531 C 210.480469 89.929688 210.457031 90.214844 210.457031 90.496094 C 210.453125 91.195312 210.476562 91.613281 210.488281 91.753906 C 210.535156 92.273438 210.585938 92.863281 210.730469 93.511719 C 210.8125 93.890625 210.914062 94.09375 210.941406 94.144531 C 211.066406 94.386719 211.199219 94.59375 211.371094 94.742188 L 215.457031 103.566406 C 215.398438 103.078125 214.855469 99.941406 213.859375 94.152344 C 213.535156 92.28125 213.324219 91.09375 213.199219 90.605469 L 213.066406 90.039062 C 212.976562 89.675781 212.886719 89.335938 212.796875 89.027344 C 212.617188 88.40625 212.445312 87.882812 212.25 87.480469 C 212.054688 87.082031 211.894531 86.875 211.824219 86.8125 C 211.707031 86.710938 211.609375 86.648438 211.511719 86.648438 Z M 206.921875 95.222656 L 206.082031 95.316406 C 202.308594 95.886719 198.605469 97.023438 194.96875 98.730469 L 193.414062 99.460938 C 192.414062 99.949219 191.480469 100.441406 190.613281 100.941406 C 188.882812 101.9375 187.429688 102.957031 186.246094 103.992188 L 189.070312 102.953125 C 189.289062 102.695312 189.582031 102.453125 189.898438 102.160156 C 190.015625 102.050781 190.613281 101.597656 191.769531 100.882812 C 192.679688 100.320312 193.984375 99.660156 195.6875 98.914062 C 196.449219 98.578125 197.925781 98.046875 200.105469 97.28125 Z M 229.21875 105.984375 C 229.226562 105.988281 229.230469 105.992188 229.238281 105.996094 L 229.238281 105.992188 L 229.234375 105.992188 L 229.234375 105.988281 L 229.230469 105.988281 L 229.226562 105.984375 Z M 223.496094 99.8125 L 223.398438 99.882812 C 223.207031 100.011719 223.011719 100.164062 222.824219 100.347656 C 222.335938 100.835938 222.058594 101.171875 221.949219 101.324219 C 221.566406 101.835938 221.144531 102.421875 220.753906 103.132812 C 220.09375 104.324219 219.648438 105.359375 219.359375 106.210938 C 219.226562 106.605469 219.226562 106.925781 219.398438 107.15625 C 219.496094 107.289062 219.738281 107.347656 220.101562 107.347656 C 220.238281 107.347656 220.394531 107.34375 220.566406 107.320312 C 222.195312 107.117188 224.40625 106.699219 227.214844 106.183594 C 228.160156 106.011719 228.792969 105.976562 229.101562 105.976562 C 229.144531 105.976562 229.183594 105.980469 229.214844 105.980469 C 228.984375 105.863281 228.722656 105.78125 228.425781 105.769531 C 226.773438 105.695312 225.726562 105.625 225.28125 105.539062 C 224.546875 105.398438 223.988281 105.164062 223.621094 104.808594 C 223.265625 104.464844 223.0625 103.941406 223.007812 103.242188 C 222.980469 102.894531 222.992188 102.5 223.039062 102.066406 L 223.136719 101.378906 C 223.222656 100.898438 223.34375 100.378906 223.5 99.8125 Z M 208.128906 81.511719 L 208.128906 81.515625 L 208.019531 82.402344 C 207.894531 83.605469 207.816406 84.886719 207.828125 86.242188 C 207.84375 87.972656 207.902344 89.03125 207.933594 89.425781 C 208.140625 91.996094 208.3125 93.648438 208.441406 94.390625 C 208.632812 95.503906 208.820312 96.453125 209.054688 97.230469 L 209.667969 99.0625 L 210.179688 100.296875 C 210.546875 101.101562 210.964844 101.871094 211.4375 102.605469 L 212.183594 103.679688 C 212.707031 104.382812 213.285156 105.046875 213.914062 105.679688 C 214.542969 106.308594 215.226562 106.90625 215.960938 107.46875 C 215.476562 107.082031 215.011719 106.632812 214.558594 106.117188 L 213.894531 105.296875 C 213.460938 104.71875 213.054688 104.070312 212.644531 103.363281 C 211.90625 102.097656 211.027344 100.292969 210.285156 97.863281 C 209.507812 95.324219 209 92.429688 208.496094 89.261719 C 208.464844 89.050781 208.375 88.296875 208.304688 86.984375 C 208.230469 85.59375 208.226562 84.730469 208.234375 84.398438 L 208.261719 82.503906 Z M 216.0625 107.546875 L 216.0625 107.550781 L 216.0625 107.546875 C 216.117188 107.589844 216.171875 107.628906 216.226562 107.671875 C 216.257812 107.695312 216.304688 107.726562 216.367188 107.769531 L 216.367188 107.773438 C 216.246094 107.683594 216.144531 107.609375 216.066406 107.546875 Z M 145.820312 98.976562 L 145.820312 98.980469 L 145.644531 99.214844 L 145.523438 99.527344 L 145.449219 99.90625 L 145.429688 100.355469 L 145.460938 100.875 C 145.535156 101.613281 145.699219 102.554688 146.09375 103.652344 C 146.464844 104.683594 146.886719 105.398438 147.1875 105.875 C 147.496094 106.367188 148.074219 107.230469 148.949219 108.445312 C 148.203125 107.191406 147.484375 105.550781 146.789062 103.519531 C 146.570312 102.882812 146.371094 102.207031 146.210938 101.484375 C 146.101562 100.988281 146.027344 100.5625 145.980469 100.199219 C 145.957031 100.019531 145.941406 99.855469 145.933594 99.707031 L 145.929688 99.5 C 145.929688 99.367188 145.933594 99.253906 145.949219 99.160156 Z M 148.960938 108.464844 L 148.960938 108.46875 L 148.960938 108.464844 C 149.019531 108.5625 149.074219 108.660156 149.132812 108.753906 L 149.222656 108.894531 C 149.28125 108.988281 149.339844 109.082031 149.398438 109.171875 C 149.605469 109.492188 149.757812 109.707031 149.84375 109.8125 C 149.84375 109.8125 149.839844 109.796875 149.824219 109.769531 L 149.113281 108.671875 L 148.964844 108.464844 Z M 170.195312 110.664062 L 170.195312 110.667969 L 169.902344 111.695312 L 169.90625 111.695312 L 169.964844 111.546875 L 170.019531 111.40625 L 170.066406 111.277344 L 170.105469 111.15625 L 170.136719 111.039062 L 170.160156 110.933594 L 170.179688 110.835938 L 170.191406 110.746094 Z M 230.375 110.628906 L 230.375 110.632812 L 230.339844 110.632812 C 230.238281 110.636719 230.101562 110.636719 229.949219 110.691406 C 229.554688 110.824219 229.167969 111.007812 228.78125 111.203125 C 227.90625 111.644531 227.226562 112.046875 226.730469 112.390625 C 225.976562 112.910156 225.4375 113.328125 225.121094 113.660156 C 224.976562 113.8125 224.90625 113.90625 224.890625 113.9375 C 224.8125 114.070312 224.757812 114.203125 224.730469 114.34375 C 224.71875 114.402344 224.707031 114.488281 224.730469 114.59375 C 224.75 114.6875 224.808594 114.777344 224.898438 114.863281 C 225.078125 115.035156 225.386719 115.195312 225.820312 115.339844 C 226.222656 115.476562 226.824219 115.617188 227.625 115.753906 C 228.25 115.859375 228.914062 115.914062 229.617188 115.914062 C 229.621094 115.914062 229.628906 115.914062 229.636719 115.914062 C 230.078125 115.90625 230.484375 115.875 230.847656 115.796875 C 230.898438 115.785156 230.929688 115.761719 230.941406 115.742188 L 230.945312 115.703125 C 230.9375 115.679688 230.910156 115.648438 230.863281 115.617188 C 230.71875 115.527344 230.589844 115.480469 230.46875 115.472656 C 229.5 115.40625 228.953125 115.351562 228.828125 115.328125 C 228.421875 115.25 228.105469 115.15625 227.871094 115.0625 C 227.589844 114.953125 227.332031 114.792969 227.109375 114.558594 C 226.902344 114.339844 226.8125 114.074219 226.84375 113.773438 C 226.878906 113.394531 227.199219 112.925781 227.804688 112.367188 C 228.308594 111.90625 228.835938 111.527344 229.375 111.222656 C 229.558594 111.117188 229.738281 111.023438 229.925781 110.9375 L 230.558594 110.832031 C 230.59375 110.734375 230.589844 110.683594 230.550781 110.671875 C 230.515625 110.644531 230.457031 110.628906 230.375 110.628906 L 230.375 110.632812 L 230.375 110.628906 L 230.375 110.632812 Z M 169.890625 111.730469 L 169.890625 111.734375 L 169.875 111.769531 C 169.824219 111.875 169.765625 112.003906 169.679688 112.15625 C 169.175781 113.058594 168.878906 113.617188 168.777344 113.820312 C 168.628906 114.125 168.464844 114.550781 168.300781 115.105469 C 168.132812 115.675781 168.019531 116.199219 167.96875 116.671875 L 167.945312 117.019531 L 167.9375 117.351562 L 167.957031 117.664062 L 168 117.957031 L 168.0625 118.234375 L 169.894531 111.730469 Z M 191.328125 111.363281 L 191.746094 112.011719 C 192.308594 112.921875 192.894531 114.035156 193.527344 115.335938 C 194.023438 116.347656 194.816406 118.132812 195.839844 120.714844 C 196.800781 123.128906 197.722656 126.121094 198.65625 129.675781 L 198.753906 129.644531 C 198.816406 129.601562 198.859375 129.519531 198.886719 129.394531 C 198.917969 129.269531 198.929688 129.105469 198.929688 128.898438 C 198.925781 128.488281 198.882812 127.910156 198.738281 127.171875 C 198.441406 125.695312 198.160156 124.667969 197.976562 124.074219 C 197.605469 122.84375 197.214844 121.703125 196.785156 120.660156 C 196.492188 119.957031 196.191406 119.25 195.847656 118.554688 C 194.976562 116.804688 194.394531 115.777344 194.175781 115.425781 C 193.105469 113.707031 192.453125 112.667969 192.1875 112.328125 Z M 149.242188 129.402344 L 149.3125 129.476562 C 149.550781 129.726562 149.765625 129.976562 149.957031 130.222656 C 149.964844 130.226562 149.972656 130.226562 149.976562 130.230469 C 149.976562 130.230469 149.976562 130.226562 149.980469 130.226562 C 149.972656 130.207031 149.960938 130.1875 149.949219 130.171875 C 149.9375 130.15625 149.882812 130.074219 149.765625 129.941406 C 149.566406 129.710938 149.386719 129.535156 149.242188 129.402344 Z M 144.101562 126.546875 L 143.9375 126.5625 C 143.625 126.601562 143.433594 126.699219 143.40625 126.867188 C 143.367188 127.109375 143.492188 127.402344 143.722656 127.753906 C 143.847656 127.949219 144.101562 128.316406 144.503906 128.832031 L 145.089844 129.527344 C 145.722656 130.242188 146.332031 130.90625 146.914062 131.523438 C 147.125 131.746094 147.277344 131.875 147.375 131.917969 L 147.335938 131.554688 C 146.9375 131.117188 146.582031 130.703125 146.277344 130.300781 C 145.761719 129.613281 145.460938 129.128906 145.332031 128.871094 C 144.925781 128.058594 144.785156 127.546875 144.9375 127.347656 C 145.007812 127.261719 145.070312 127.226562 145.113281 127.226562 C 145.117188 127.226562 145.121094 127.226562 145.125 127.226562 C 145.136719 127.226562 145.144531 127.226562 145.15625 127.226562 C 145.273438 127.226562 145.378906 127.242188 145.476562 127.273438 C 145.972656 127.433594 146.421875 127.628906 146.84375 127.828125 C 147.84375 128.300781 148.632812 128.800781 149.199219 129.359375 C 148.695312 128.855469 148.238281 128.4375 147.820312 128.105469 C 147.503906 127.855469 147.148438 127.625 146.757812 127.410156 C 145.808594 126.890625 144.921875 126.601562 144.101562 126.546875 Z M 210.03125 105.664062 L 209.917969 105.691406 C 209.617188 105.828125 209.335938 106.523438 209.089844 107.769531 C 208.902344 108.726562 208.769531 109.503906 208.707031 110.097656 C 208.085938 116.304688 207.746094 119.410156 207.65625 119.410156 C 207.304688 121.179688 206.863281 122.9375 206.371094 124.699219 C 206.300781 124.953125 206.292969 125.1875 206.3125 125.390625 L 205.960938 126.238281 C 206.234375 125.820312 206.476562 125.410156 206.601562 124.976562 C 207.496094 121.914062 208.300781 119.34375 209.160156 117.3125 C 209.695312 116.042969 210.195312 115.425781 210.597656 115.425781 C 210.648438 115.425781 210.703125 115.433594 210.75 115.457031 C 210.824219 115.621094 210.898438 115.882812 210.96875 116.234375 C 211.003906 116.292969 211.109375 117.035156 211.269531 118.457031 C 211.402344 119.632812 211.542969 121.371094 211.644531 123.667969 C 211.679688 124.425781 211.640625 125.285156 211.582031 126.246094 L 211.15625 131.988281 C 211.148438 132.105469 211.152344 132.164062 211.167969 132.164062 C 211.238281 131.980469 211.546875 130.511719 212.082031 127.753906 C 212.320312 126.511719 212.476562 125.484375 212.585938 124.675781 C 212.847656 122.746094 212.992188 120.445312 212.898438 117.777344 C 212.808594 115.277344 212.59375 113.109375 212.230469 111.285156 C 211.914062 109.699219 211.453125 108.386719 211.027344 107.289062 C 210.945312 107.078125 210.75 106.582031 210.339844 105.839844 C 210.277344 105.722656 210.15625 105.675781 210.03125 105.664062 Z M 216.242188 126.71875 L 216.238281 126.71875 C 216.164062 126.738281 216.113281 126.792969 216.097656 126.886719 C 215.933594 127.804688 215.78125 128.601562 215.640625 129.277344 C 215.523438 129.84375 215.34375 130.535156 215.101562 131.34375 C 215.035156 131.5625 214.863281 132.078125 214.566406 132.886719 C 214.457031 133.195312 214.335938 133.476562 214.222656 133.738281 C 213.996094 134.257812 213.777344 134.679688 213.5625 135.007812 L 216.292969 133.800781 C 216.472656 132.839844 216.609375 132.046875 216.695312 131.414062 C 216.785156 130.785156 216.835938 130.316406 216.824219 130.011719 C 216.800781 129.234375 216.738281 128.519531 216.628906 127.875 C 216.523438 127.253906 216.449219 126.945312 216.429688 126.945312 C 216.429688 126.945312 216.425781 126.945312 216.425781 126.945312 C 216.371094 126.816406 216.335938 126.753906 216.320312 126.753906 C 216.292969 126.730469 216.269531 126.71875 216.242188 126.71875 Z M 224.109375 124.101562 L 224.257812 124.554688 C 224.554688 125.070312 224.820312 125.695312 225.054688 126.429688 C 225.171875 126.792969 225.285156 127.1875 225.386719 127.605469 L 225.535156 128.257812 C 225.628906 128.703125 225.71875 129.175781 225.792969 129.675781 C 225.84375 130.007812 225.878906 130.480469 225.902344 131.097656 C 225.910156 131.277344 225.90625 132.03125 225.886719 133.363281 L 225.972656 135.441406 C 225.972656 135.992188 225.941406 136.535156 225.878906 137.0625 C 226.242188 134.96875 226.46875 133.496094 226.53125 132.640625 C 226.601562 131.667969 226.617188 130.96875 226.613281 130.554688 C 226.613281 130.039062 226.59375 129.609375 226.550781 129.261719 L 226.515625 129.019531 L 226.339844 128.191406 L 226.144531 127.433594 C 226.003906 126.953125 225.847656 126.515625 225.679688 126.128906 L 225.410156 125.582031 C 225.226562 125.242188 225.023438 124.945312 224.808594 124.699219 C 224.59375 124.453125 224.363281 124.253906 224.113281 124.101562 Z M 148.609375 137.742188 L 148.535156 137.742188 C 148.125 137.746094 147.804688 137.785156 147.570312 137.835938 C 147.296875 137.894531 147.035156 137.949219 146.785156 138.027344 C 146.535156 138.105469 146.292969 138.195312 146.066406 138.300781 C 145.835938 138.40625 145.617188 138.523438 145.410156 138.65625 L 145.109375 138.863281 C 144.136719 139.5625 143.394531 140.585938 142.882812 141.929688 L 143.355469 141.886719 C 143.425781 141.6875 143.519531 141.488281 143.640625 141.292969 L 143.839844 141.003906 C 143.984375 140.816406 144.15625 140.632812 144.347656 140.445312 C 144.660156 140.132812 145.21875 139.726562 146.035156 139.246094 C 146.363281 139.054688 146.785156 138.875 147.292969 138.675781 C 147.421875 138.625 148.121094 138.390625 149.394531 137.988281 C 149.460938 137.964844 149.507812 137.949219 149.527344 137.929688 C 149.609375 137.855469 149.589844 137.800781 149.488281 137.789062 C 149.210938 137.753906 148.917969 137.742188 148.609375 137.742188 Z M 175.410156 41.222656 L 175.410156 41.226562 L 175.035156 41.230469 C 174.109375 41.261719 173.167969 41.410156 172.199219 41.675781 C 171.433594 41.433594 170.550781 41.289062 169.558594 41.246094 L 168.179688 41.378906 C 163.476562 42.4375 159.832031 47.546875 157.324219 56.726562 C 157.019531 57.847656 156.835938 58.871094 156.699219 59.777344 L 155.519531 71.214844 L 154.230469 80.402344 C 153.207031 87.785156 152.085938 94.28125 151.183594 99.941406 C 150.667969 103.164062 150.265625 107.609375 149.652344 113.234375 L 149.488281 116.257812 C 149.371094 120.277344 149.652344 124.238281 150.421875 128.128906 C 151.300781 132.546875 152.316406 135.863281 153.402344 138.070312 C 154.226562 139.746094 155.109375 140.726562 156.019531 141.039062 C 156.089844 140.96875 156.125 140.820312 156.121094 140.597656 L 154.96875 136.503906 C 157.554688 140.222656 159.964844 142.082031 162.203125 142.082031 C 162.429688 142.082031 162.652344 142.054688 162.875 142.027344 C 163.199219 141.984375 163.527344 141.929688 163.851562 141.835938 L 163.175781 131.078125 C 163.152344 126.898438 163.070312 122.582031 162.996094 118.132812 C 162.957031 115.777344 163.308594 110.0625 163.960938 100.984375 C 163.984375 100.65625 164.042969 100.492188 164.148438 100.492188 C 164.484375 100.492188 165.285156 102.132812 166.445312 105.453125 C 166.820312 106.535156 167.023438 108.246094 167.15625 110.546875 C 167.53125 108.390625 167.726562 106.863281 167.730469 105.964844 C 167.738281 104.335938 167.671875 102.71875 167.421875 101.125 C 166.699219 96.554688 165.929688 92.976562 165.308594 90.355469 C 165.210938 89.945312 165.164062 89.488281 165.097656 89.007812 L 165.101562 89.011719 C 165.597656 89.640625 165.980469 89.957031 166.246094 89.957031 C 166.335938 89.957031 166.410156 89.921875 166.472656 89.851562 C 166.175781 86.917969 166.007812 85.0625 165.96875 84.28125 L 165.835938 78.117188 L 165.839844 78.117188 C 166.601562 79.226562 167.089844 79.777344 167.3125 79.777344 C 167.34375 79.777344 167.371094 79.765625 167.390625 79.742188 C 165.691406 74.445312 164.847656 70.40625 165.125 67.65625 C 165.65625 62.378906 166.644531 58.628906 167.445312 56.246094 C 167.746094 55.359375 168.414062 53.742188 170.011719 51.625 C 170.484375 51.003906 171.101562 50.601562 171.703125 50.285156 L 171.703125 50.34375 C 171.902344 50.339844 172.09375 50.339844 172.273438 50.339844 C 173.433594 50.339844 174.167969 50.46875 174.527344 50.605469 C 175.15625 50.84375 175.765625 51.09375 176.3125 51.484375 C 176.859375 51.871094 177.359375 52.359375 177.8125 52.945312 L 178.453125 53.894531 C 178.808594 54.429688 179.25 55.34375 179.679688 56.683594 C 180.140625 58.132812 180.726562 61.746094 181.246094 67.519531 C 181.335938 68.503906 181.171875 69.324219 181.046875 69.964844 L 179.902344 73.53125 C 179.8125 73.644531 179.71875 74.300781 179.640625 75.503906 C 179.597656 76.195312 179.679688 76.777344 179.773438 77.273438 C 179.894531 77.898438 180.15625 78.789062 180.613281 79.941406 C 180.683594 80.117188 180.917969 80.558594 181.359375 81.253906 C 182.449219 81.996094 183.121094 82.363281 183.335938 82.460938 C 184.6875 83.070312 186.042969 83.410156 187.449219 83.425781 C 187.574219 83.429688 187.710938 83.457031 187.859375 83.457031 C 188.832031 83.457031 190.355469 83.082031 192.359375 82.1875 C 193.730469 81.578125 194.851562 81.203125 196.996094 80.296875 C 196.472656 76.863281 194.730469 70.667969 192.703125 63.5 C 191.257812 58.40625 190.027344 55.0625 189.269531 53.359375 C 188.359375 51.300781 187.148438 49.105469 185.414062 46.894531 C 182.445312 43.101562 179.09375 41.222656 175.410156 41.222656 Z M 175.394531 125.179688 L 174.648438 125.433594 C 174.503906 127.964844 174.523438 129.679688 174.710938 130.578125 C 175.09375 132.386719 175.824219 134.199219 177.011719 135.949219 C 177.648438 136.882812 178.386719 137.710938 179.117188 138.5 L 180.230469 139.640625 C 180.992188 140.367188 181.777344 141.035156 182.597656 141.644531 C 184.230469 142.859375 185.976562 143.832031 187.839844 144.5625 C 188.007812 144.464844 187.949219 144.257812 187.640625 143.957031 C 185.53125 141.90625 184.074219 140.445312 183.335938 139.519531 C 181.027344 136.609375 179.242188 134.152344 177.960938 132.167969 C 177.125 130.871094 176.5 129.6875 176.070312 128.621094 C 175.855469 128.089844 175.691406 127.585938 175.574219 127.113281 L 175.441406 126.421875 C 175.378906 125.980469 175.363281 125.5625 175.394531 125.179688 Z M 217.265625 141.574219 L 216.945312 141.667969 C 217.480469 142.511719 218.019531 143.285156 218.5625 143.988281 L 219.378906 144.996094 L 220.203125 145.894531 L 221.03125 146.695312 L 221.867188 147.390625 L 222.710938 147.980469 L 223.558594 148.46875 L 224.414062 148.855469 L 222.726562 147.925781 C 221.976562 147.375 221.46875 146.972656 221.210938 146.699219 C 220.140625 145.570312 219.542969 144.894531 219.398438 144.691406 C 218.796875 143.835938 218.226562 143.101562 217.746094 142.453125 C 217.507812 142.132812 217.367188 141.828125 217.265625 141.574219 Z M 167.921875 121.183594 L 167.921875 121.238281 C 167.941406 121.546875 168.128906 122.886719 168.460938 125.257812 C 168.519531 125.664062 168.554688 126.050781 168.582031 126.410156 C 168.671875 127.488281 168.65625 128.703125 168.566406 130.058594 C 168.527344 130.613281 168.449219 131.3125 168.304688 132.160156 L 166.851562 139.308594 C 166.789062 139.644531 166.734375 139.976562 166.679688 140.304688 C 166.476562 141.59375 166.378906 142.890625 166.386719 144.195312 C 166.390625 144.597656 166.40625 144.984375 166.433594 145.347656 L 166.484375 145.882812 C 166.59375 146.683594 166.726562 147.175781 166.796875 147.390625 C 167.25 148.746094 167.726562 149.6875 168.316406 150.1875 C 168.304688 150.015625 168.28125 149.820312 168.230469 149.597656 C 168.015625 148.628906 167.878906 147.996094 167.828125 147.695312 C 167.71875 147.015625 167.636719 146.339844 167.585938 145.65625 C 167.527344 144.902344 167.507812 143.984375 167.507812 142.90625 C 167.511719 141.496094 167.523438 140.207031 167.578125 139.035156 C 167.605469 138.421875 167.6875 137.792969 167.816406 137.144531 L 169.179688 130.960938 C 169.265625 130.398438 169.347656 129.746094 169.417969 129.007812 C 169.4375 128.816406 169.441406 128.65625 169.445312 128.523438 C 169.449219 128.394531 169.445312 128.289062 169.433594 128.214844 L 169.441406 128.035156 C 169.445312 127.519531 169.371094 126.738281 169.136719 125.699219 C 168.773438 124.117188 168.421875 123.050781 168.167969 122.484375 C 168.167969 122.390625 168.085938 121.960938 167.921875 121.183594 Z M 186.609375 151.265625 L 186.609375 151.269531 L 186.542969 151.269531 C 186.425781 151.277344 186.316406 151.300781 186.214844 151.359375 C 186.09375 151.429688 185.996094 151.492188 185.921875 151.535156 C 185.855469 151.578125 185.800781 151.628906 185.75 151.683594 C 185.554688 151.890625 185.445312 152.1875 185.425781 152.582031 C 185.421875 152.671875 185.421875 152.761719 185.429688 152.847656 C 185.4375 152.933594 185.449219 153.019531 185.472656 153.101562 L 185.507812 153.222656 C 185.5625 153.378906 185.628906 153.539062 185.75 153.667969 C 185.832031 153.757812 185.941406 153.808594 186.039062 153.847656 C 186.089844 153.867188 186.136719 153.886719 186.1875 153.894531 C 186.277344 153.910156 186.339844 153.914062 186.382812 153.914062 C 186.398438 153.914062 186.410156 153.910156 186.421875 153.910156 C 186.605469 153.890625 186.746094 153.863281 186.839844 153.820312 C 186.941406 153.769531 187.03125 153.691406 187.121094 153.585938 C 187.214844 153.476562 187.324219 153.296875 187.433594 153.035156 C 187.507812 152.859375 187.542969 152.695312 187.550781 152.542969 C 187.5625 152.382812 187.550781 152.21875 187.511719 152.054688 C 187.476562 151.902344 187.449219 151.816406 187.441406 151.800781 C 187.410156 151.738281 187.382812 151.679688 187.34375 151.628906 C 187.300781 151.574219 187.261719 151.53125 187.226562 151.5 C 187.164062 151.441406 187.089844 151.375 186.984375 151.332031 C 186.859375 151.28125 186.726562 151.265625 186.609375 151.265625 Z M 184.433594 151.203125 L 184.394531 151.226562 C 184.296875 151.289062 184.234375 151.988281 184.214844 153.316406 C 184.214844 153.472656 184.214844 153.714844 184.21875 154.035156 C 184.246094 155.363281 184.273438 156.363281 184.273438 157.035156 C 184.253906 160.785156 184.234375 162.894531 184.238281 163.359375 C 184.238281 163.730469 184.242188 164.078125 184.25 164.394531 C 184.253906 164.632812 184.269531 165.164062 184.304688 165.992188 C 184.339844 166.773438 184.398438 167.589844 184.464844 168.445312 L 184.582031 169.753906 C 184.664062 170.644531 184.761719 171.570312 184.875 172.535156 C 185.101562 174.460938 185.390625 176.535156 185.738281 178.753906 L 184.5 151.25 Z M 166.460938 165.300781 L 166.460938 165.304688 L 166.546875 165.496094 C 166.832031 166.042969 167.492188 166.902344 168.722656 167.847656 C 173.132812 171.234375 176.035156 173.386719 177.273438 174.523438 C 178.175781 175.351562 178.953125 176.121094 179.617188 176.820312 C 180.121094 177.347656 181.308594 178.683594 183.144531 180.859375 C 183.199219 180.894531 183.246094 180.910156 183.28125 180.910156 C 183.414062 180.910156 183.429688 180.648438 183.234375 180.160156 C 183.082031 179.765625 182.855469 179.445312 182.636719 179.167969 C 181.792969 178.09375 180.753906 176.910156 179.597656 175.546875 C 179.179688 175.058594 178.121094 174.039062 176.390625 172.507812 C 175.351562 171.59375 174.046875 170.519531 172.429688 169.332031 C 170.976562 168.265625 169.386719 167.3125 167.695312 166.398438 C 167.5 166.292969 167.347656 166.144531 167.199219 166.015625 C 167.082031 165.914062 166.921875 165.746094 166.734375 165.496094 Z M 161.617188 183.691406 L 161.617188 183.695312 L 161.910156 185.796875 C 161.839844 185.269531 161.789062 184.886719 161.753906 184.648438 C 161.710938 184.335938 161.667969 184.015625 161.621094 183.691406 Z M 200.355469 171.675781 L 200.355469 171.679688 L 200.214844 171.683594 C 199.710938 171.695312 198.980469 172.121094 198.027344 172.972656 L 197.105469 173.949219 L 196.179688 175.164062 L 195.246094 176.621094 C 194.621094 177.667969 193.992188 178.875 193.359375 180.242188 L 192.40625 182.414062 C 191.769531 183.9375 191.125 185.625 190.480469 187.46875 L 191.347656 185.988281 C 191.695312 185.023438 192.085938 184.09375 192.523438 183.199219 C 192.960938 182.308594 193.445312 181.449219 193.972656 180.628906 L 194.796875 179.425781 C 195.371094 178.636719 195.988281 177.886719 196.648438 177.175781 C 197.3125 176.460938 198.003906 175.765625 198.773438 175.140625 C 199.253906 174.75 199.695312 174.585938 200.058594 174.585938 C 200.398438 174.585938 200.675781 174.746094 200.902344 175.066406 L 201.085938 175.320312 C 201.199219 175.503906 201.296875 175.710938 201.375 175.941406 C 201.449219 176.171875 201.511719 176.425781 201.550781 176.703125 C 201.632812 177.261719 201.644531 177.917969 201.582031 178.667969 C 201.664062 178.257812 201.792969 177.359375 201.925781 175.96875 C 202.019531 174.929688 202.019531 174.101562 201.902344 173.5 C 201.667969 172.308594 201.128906 171.703125 200.355469 171.675781 Z M 168.40625 176.113281 L 168.40625 176.117188 L 168.335938 176.113281 C 166.207031 176.25 165.132812 177.050781 165.113281 178.523438 C 165.542969 178.460938 166.003906 178.429688 166.503906 178.429688 C 167.5 178.429688 168.632812 178.582031 169.917969 178.804688 C 170.207031 178.855469 171.101562 179.070312 172.578125 179.574219 C 173.175781 179.777344 173.765625 180.046875 174.363281 180.320312 C 175.433594 180.808594 176.660156 181.488281 178.027344 182.375 C 178.472656 182.664062 179.207031 183.195312 180.234375 183.96875 L 184.191406 187.003906 C 184.914062 187.496094 185.378906 187.742188 185.585938 187.742188 C 185.605469 187.742188 185.621094 187.742188 185.636719 187.738281 C 185.328125 186.828125 184.5 185.691406 183.203125 184.285156 C 181.746094 182.714844 180.074219 181.261719 178.128906 179.976562 C 177.113281 179.304688 175.972656 178.675781 174.742188 178.023438 C 174.238281 177.757812 173.484375 177.371094 172.429688 176.984375 C 171.371094 176.589844 170.738281 176.433594 170.566406 176.398438 C 169.777344 176.226562 169.0625 176.113281 168.40625 176.113281 Z M 178.273438 187.226562 L 178.273438 187.230469 C 178.246094 187.226562 178.21875 187.226562 178.199219 187.230469 L 177.96875 187.234375 C 177.359375 187.265625 176.742188 187.363281 176.195312 187.671875 C 175.605469 188.007812 175.328125 188.5 175.257812 189.003906 C 175.191406 189.507812 175.375 190.078125 175.832031 190.714844 C 176.214844 191.242188 176.710938 191.613281 177.324219 191.832031 C 177.066406 191.335938 176.855469 191 176.746094 190.800781 C 176.648438 190.628906 176.621094 190.433594 176.613281 190.242188 C 176.601562 189.9375 176.652344 189.664062 176.78125 189.421875 C 176.824219 189.34375 176.878906 189.269531 176.945312 189.207031 C 177.117188 189.042969 177.234375 188.957031 177.292969 188.9375 C 178.203125 188.632812 179.042969 188.464844 179.808594 188.40625 C 180 188.394531 180.246094 188.375 180.554688 188.375 C 181.199219 188.375 182.101562 188.421875 183.261719 188.515625 C 183.265625 188.515625 183.273438 188.515625 183.28125 188.515625 C 183.339844 188.515625 183.378906 188.5 183.398438 188.464844 C 183.382812 188.394531 183.316406 188.347656 183.191406 188.308594 C 182.144531 187.972656 181.359375 187.722656 180.828125 187.59375 C 180.339844 187.476562 179.964844 187.414062 179.710938 187.378906 C 178.96875 187.28125 178.488281 187.226562 178.273438 187.226562 Z M 184.601562 225.082031 L 184.625 225.347656 C 184.6875 226.042969 184.722656 226.789062 184.734375 227.582031 C 184.738281 227.777344 184.710938 228.898438 184.664062 230.941406 C 184.65625 231.375 184.660156 231.789062 184.675781 232.191406 C 184.726562 233.394531 184.816406 234.453125 184.933594 235.375 C 184.996094 235.859375 185.078125 236.328125 185.171875 236.78125 C 185.269531 237.234375 185.378906 237.671875 185.503906 238.089844 L 185.703125 238.710938 C 185.988281 239.519531 186.328125 240.261719 186.734375 240.9375 Z M 192.5 239.113281 L 192.5 239.117188 L 192.375 239.140625 C 192.121094 239.253906 191.859375 239.707031 191.515625 240.472656 C 191.417969 240.691406 191.066406 241.65625 190.550781 243.410156 C 190.148438 244.785156 189.820312 246.1875 189.507812 247.597656 C 189.433594 247.949219 189.222656 249.019531 188.925781 250.816406 L 191.726562 259.359375 C 191.773438 258.980469 191.992188 257.878906 192.347656 256.042969 C 192.460938 255.464844 192.558594 254.804688 192.640625 254.0625 C 192.816406 252.457031 192.976562 250.65625 193.15625 248.671875 L 193.25 247.445312 L 193.335938 245.714844 L 193.359375 244.730469 C 193.371094 244.09375 193.363281 243.492188 193.339844 242.929688 C 193.316406 242.367188 193.273438 241.839844 193.21875 241.347656 L 193.121094 240.640625 C 193.046875 240.1875 192.984375 239.761719 192.851562 239.390625 C 192.792969 239.21875 192.652344 239.136719 192.5 239.113281 Z M 194.917969 255.273438 L 194.796875 255.296875 C 194.714844 255.332031 194.628906 255.390625 194.558594 255.496094 C 194.367188 255.796875 194.28125 256.03125 194.234375 256.167969 C 194.171875 256.335938 193.957031 257.09375 193.667969 258.476562 C 193.390625 259.789062 193.046875 261.933594 192.597656 264.902344 C 192.320312 266.753906 192.179688 267.851562 192.183594 268.199219 L 192.195312 268.308594 L 195.378906 273.523438 C 195.605469 272.851562 195.808594 272.207031 195.980469 271.585938 C 196.15625 270.96875 196.304688 270.375 196.425781 269.808594 L 196.589844 268.980469 C 196.683594 268.4375 196.75 267.925781 196.792969 267.4375 L 196.835938 266.726562 L 196.832031 265.476562 C 196.796875 263.238281 196.5 260.613281 195.953125 257.605469 C 195.90625 257.347656 195.8125 256.875 195.625 256.195312 C 195.5625 255.957031 195.496094 255.765625 195.417969 255.636719 C 195.289062 255.417969 195.113281 255.300781 194.917969 255.273438 Z M 211.949219 281.816406 L 211.949219 281.820312 L 212.097656 282.464844 C 212.097656 282.613281 212.097656 282.761719 212.09375 282.90625 C 212.09375 283.050781 212.089844 283.195312 212.085938 283.335938 L 212.082031 283.546875 C 212.070312 283.824219 212.058594 284.09375 212.046875 284.359375 C 212.097656 284.089844 212.132812 283.820312 212.152344 283.546875 L 212.164062 283.410156 C 212.167969 283.320312 212.175781 283.226562 212.175781 283.136719 L 212.179688 282.9375 L 212.171875 282.753906 L 212.164062 282.582031 L 212.144531 282.421875 L 212.117188 282.277344 L 212.085938 282.144531 L 212.046875 282.023438 L 212.003906 281.914062 Z M 212.042969 284.382812 L 212.03125 284.445312 C 211.902344 285.121094 211.578125 286.167969 211.042969 287.578125 C 210.808594 288.1875 210.355469 289.175781 209.714844 290.550781 C 209.675781 290.632812 209.667969 290.707031 209.652344 290.757812 C 209.625 290.878906 209.675781 290.957031 209.816406 290.992188 C 209.921875 290.992188 210.066406 290.890625 210.238281 290.683594 C 210.4375 290.449219 210.625 290.171875 210.800781 289.851562 C 211.007812 289.476562 211.117188 289.246094 211.148438 289.171875 C 211.210938 289.015625 211.277344 288.867188 211.332031 288.710938 C 211.449219 288.363281 211.527344 288.089844 211.574219 287.894531 L 211.65625 287.527344 C 211.710938 287.273438 211.761719 287.007812 211.804688 286.730469 C 211.851562 286.449219 211.890625 286.15625 211.925781 285.851562 L 211.972656 285.382812 L 212.011719 284.890625 Z M 193.132812 285.125 L 193.132812 285.128906 L 192.933594 285.433594 C 192.640625 285.945312 192.488281 286.257812 192.453125 286.359375 C 192.371094 286.574219 192.285156 286.777344 192.21875 286.988281 C 192.09375 287.398438 192.007812 287.835938 191.976562 288.304688 C 191.910156 289.273438 192.0625 290.242188 192.425781 291.222656 C 192.722656 292.027344 193.21875 292.855469 193.917969 293.699219 C 194.269531 294.121094 194.667969 294.546875 195.121094 294.980469 L 195.835938 295.632812 C 196.335938 296.070312 196.886719 296.511719 197.492188 296.957031 C 196.609375 296.070312 195.886719 295.261719 195.320312 294.535156 C 195.035156 294.171875 194.792969 293.832031 194.589844 293.507812 C 194.386719 293.1875 194.21875 292.882812 194.09375 292.601562 L 193.9375 292.195312 C 193.773438 291.753906 193.632812 291.308594 193.515625 290.863281 L 193.355469 290.195312 C 193.265625 289.746094 193.195312 289.296875 193.148438 288.847656 C 193.105469 288.394531 193.082031 287.941406 193.085938 287.488281 C 193.089844 287.03125 193.117188 286.578125 193.164062 286.117188 Z M 161.945312 186.066406 L 161.945312 186.070312 L 162.0625 187.011719 C 162.359375 189.476562 162.523438 191.503906 162.550781 193.097656 L 162.421875 218.085938 C 162.46875 222.171875 162.574219 226.433594 162.757812 230.863281 C 162.988281 236.433594 163.265625 240.484375 163.507812 243.023438 C 163.820312 246.355469 164.195312 249.753906 164.609375 253.234375 C 164.910156 255.773438 165.523438 259.765625 166.617188 265.179688 C 167.234375 268.242188 167.992188 271.1875 168.8125 274.035156 C 170.890625 281.25 172.082031 285.253906 172.386719 286.042969 L 174.421875 292.015625 C 175.6875 295.453125 176.769531 297.804688 177.667969 299.070312 L 161.945312 186.066406 L 161.945312 186.070312 L 161.945312 186.066406 L 161.945312 186.070312 Z M 207.855469 216.792969 L 207.816406 218.59375 C 207.734375 222.046875 207.671875 224.585938 207.578125 226.207031 C 207.21875 232.464844 206.933594 238.476562 206.644531 244.234375 C 206.417969 248.746094 206.0625 252.761719 205.714844 256.289062 C 205.285156 260.671875 204.71875 265.4375 203.996094 270.582031 C 203.273438 275.722656 202.414062 281.25 201.386719 287.148438 C 201.351562 287.351562 201.285156 287.964844 201.242188 288.996094 C 201.226562 289.414062 201.230469 289.832031 201.257812 290.25 C 201.324219 291.308594 201.421875 291.941406 201.445312 292.160156 C 201.574219 293.226562 201.808594 294.492188 202.316406 295.914062 C 203 297.824219 204.152344 299.367188 205.679688 300.570312 C 204.726562 297.015625 204.15625 294.5625 204.027344 293.207031 C 203.746094 290.171875 203.6875 287.425781 203.734375 284.976562 C 203.769531 282.917969 203.882812 280.488281 204.195312 277.703125 C 204.546875 274.589844 205.164062 270.757812 205.90625 266.1875 C 206.160156 264.640625 206.289062 263.238281 206.433594 262 C 206.480469 261.609375 206.789062 256.949219 207.410156 248.023438 C 207.519531 246.445312 207.855469 244.101562 208.273438 240.976562 C 208.355469 240.363281 208.441406 239.28125 208.542969 237.734375 C 208.675781 235.671875 208.785156 231.621094 208.703125 225.585938 C 208.679688 223.660156 208.453125 221.445312 208.226562 218.933594 Z M 182.4375 305.113281 L 182.4375 305.117188 C 182.347656 305.113281 182.261719 305.117188 182.175781 305.117188 L 181.035156 305.148438 C 179.53125 305.234375 178.117188 305.488281 176.792969 305.910156 L 175.816406 306.257812 C 175.175781 306.511719 174.554688 306.808594 173.957031 307.144531 L 173.078125 307.683594 L 172.652344 308.109375 C 172.167969 308.6875 172.03125 309.3125 172.238281 309.992188 L 172.460938 310.511719 C 172.648438 310.863281 172.925781 311.226562 173.289062 311.601562 L 173.898438 312.175781 L 174.15625 312.1875 C 174.089844 311.289062 174.386719 310.445312 175.046875 309.652344 C 175.375 309.257812 175.796875 308.875 176.308594 308.503906 L 177.144531 307.957031 C 177.75 307.601562 178.4375 307.242188 179.226562 306.925781 C 180.738281 306.320312 182.351562 306 184.0625 305.9375 C 184.253906 305.929688 184.445312 305.929688 184.632812 305.929688 C 186.09375 305.929688 187.503906 306.082031 188.863281 306.390625 C 186.675781 305.539062 184.53125 305.113281 182.4375 305.113281 L 182.4375 305.117188 L 182.4375 305.113281 L 182.4375 305.117188 Z M 183.628906 318.902344 L 183.628906 318.90625 C 183.613281 318.902344 183.601562 318.90625 183.59375 318.90625 L 183.527344 318.90625 C 183.515625 318.90625 183.5 318.90625 183.488281 318.90625 C 182.726562 318.90625 181.914062 319.085938 181.058594 319.46875 C 180.457031 319.742188 180.023438 320.03125 179.757812 320.320312 L 179.664062 320.425781 L 179.949219 320.621094 C 180.179688 320.464844 180.417969 320.328125 180.65625 320.203125 L 181.015625 320.035156 C 181.257812 319.929688 181.503906 319.839844 181.753906 319.769531 L 182.132812 319.675781 L 182.515625 319.605469 L 182.90625 319.5625 L 183.40625 319.542969 C 183.40625 319.542969 183.40625 319.542969 183.410156 319.542969 C 183.515625 319.542969 183.625 319.546875 183.734375 319.558594 L 183.910156 319.574219 C 184.035156 319.589844 184.167969 319.609375 184.308594 319.632812 C 184.5625 319.671875 184.910156 319.742188 185.355469 319.855469 C 185.59375 319.917969 185.84375 319.996094 186.101562 320.089844 C 186.410156 320.199219 186.738281 320.351562 187.097656 320.519531 C 187.203125 320.570312 187.285156 320.582031 187.339844 320.582031 C 187.332031 320.492188 187.011719 320.210938 186.378906 319.746094 C 186.179688 319.601562 185.960938 319.476562 185.71875 319.367188 C 185.347656 319.203125 184.941406 319.078125 184.5 318.984375 C 184.355469 318.953125 184.195312 318.929688 184.015625 318.917969 C 183.828125 318.90625 183.699219 318.902344 183.628906 318.902344 L 183.628906 318.90625 L 183.628906 318.902344 L 183.628906 318.90625 Z M 184.117188 320.515625 L 183.894531 320.519531 C 183.4375 320.542969 182.941406 320.625 182.410156 320.773438 C 182.230469 320.824219 182.042969 320.871094 181.859375 320.945312 C 181.542969 321.074219 181.265625 321.21875 181.015625 321.347656 C 180.269531 321.726562 179.824219 322.042969 179.671875 322.296875 L 179.621094 322.417969 L 180.25 322.433594 C 181.265625 321.84375 181.878906 321.53125 182.078125 321.464844 C 182.746094 321.25 183.316406 321.101562 183.792969 321.046875 C 184.136719 321.007812 184.464844 320.988281 184.78125 320.988281 C 185.867188 320.988281 186.808594 321.222656 187.605469 321.691406 C 187.058594 321.308594 186.539062 320.988281 186.011719 320.800781 C 185.574219 320.644531 185.257812 320.597656 185.089844 320.578125 C 184.972656 320.5625 184.859375 320.546875 184.75 320.535156 C 184.738281 320.53125 184.527344 320.523438 184.117188 320.515625 Z M 185.398438 321.796875 L 185.398438 321.800781 L 181.785156 322.113281 C 181.789062 322.214844 181.8125 322.304688 181.863281 322.382812 C 182.851562 323.835938 183.503906 324.828125 183.816406 325.363281 C 184.011719 325.699219 184.246094 326.136719 184.523438 326.675781 L 184.519531 326.675781 C 183.300781 326.867188 182.125 327.304688 181 328.003906 C 180.335938 328.417969 179.808594 328.847656 179.390625 329.25 C 179.015625 329.613281 178.695312 330.074219 178.453125 330.671875 L 178.824219 330.902344 C 179.097656 331.046875 179.421875 331.179688 179.792969 331.296875 C 180.167969 331.414062 180.589844 331.515625 181.0625 331.601562 C 181.535156 331.691406 182.058594 331.761719 182.628906 331.820312 C 183.203125 331.878906 183.824219 331.921875 184.496094 331.949219 L 185.003906 331.9375 C 186.316406 331.890625 187.347656 331.773438 188.101562 331.597656 C 188.585938 331.484375 188.988281 331.378906 189.296875 331.257812 C 189.449219 331.199219 189.585938 331.140625 189.691406 331.074219 C 189.929688 330.917969 190.046875 330.8125 190.035156 330.777344 C 189.398438 329.074219 188.679688 327.980469 187.9375 327.4375 C 187.648438 327.222656 187.316406 327.023438 186.898438 326.890625 C 186.691406 326.824219 186.46875 326.769531 186.226562 326.722656 L 185.851562 326.667969 C 185.570312 326.636719 185.355469 326.621094 185.207031 326.621094 C 185.203125 326.621094 185.195312 326.621094 185.191406 326.621094 C 185.183594 326.25 185.167969 325.761719 185.152344 325.148438 C 185.148438 324.957031 185.152344 324.707031 185.164062 324.398438 C 185.171875 324.167969 185.25 323.300781 185.402344 321.796875 L 185.398438 321.800781 L 185.398438 321.796875 L 185.398438 321.800781 Z M 185.398438 321.796875 " fill-opacity="1" fill-rule="nonzero"/></svg>