<svg xmlns="http://www.w3.org/2000/svg" xmlns:xlink="http://www.w3.org/1999/xlink" width="500" zoomAndPan="magnify" viewBox="0 0 375 374.999991" height="500" preserveAspectRatio="xMidYMid meet" version="1.0"><rect x="-37.5" width="450" fill="#ffffff" y="-37.499999" height="449.999989" fill-opacity="1"/><rect x="-37.5" width="450" fill="#ffffff" y="-37.499999" height="449.999989" fill-opacity="1"/><path fill="#b66014" d="M 174.636719 299.070312 C 177.628906 300.820312 177.996094 304.105469 178.066406 305.273438 C 178.214844 307.535156 177.460938 310.777344 177.460938 311.46875 C 177.460938 312.164062 176.679688 312.351562 176.679688 312.351562 C 176.679688 312.351562 177.265625 318.996094 176.828125 320.164062 C 176.097656 322.132812 174.34375 323.957031 172.59375 325.050781 C 171.058594 326 165.949219 325.765625 164.308594 324.777344 C 162.664062 323.792969 161.535156 322.097656 161.132812 320.601562 C 160.804688 319.371094 160.96875 316.804688 161.902344 315.253906 C 162.390625 314.441406 163.761719 313.082031 164.34375 312.425781 Z M 174.636719 299.070312 " fill-opacity="1" fill-rule="nonzero"/><path fill="#b66014" d="M 210.773438 302.132812 C 213.765625 303.886719 214.132812 307.171875 214.203125 308.339844 C 214.351562 310.601562 213.597656 313.839844 213.597656 314.535156 C 213.597656 315.230469 211.753906 315.417969 211.753906 315.417969 C 211.753906 315.417969 209.890625 317.242188 210.109375 322.207031 C 210.203125 324.304688 208.574219 325.34375 206.824219 326.441406 C 205.292969 327.386719 197.117188 329.285156 193.636719 327.679688 C 191.898438 326.878906 191.328125 325.402344 192.226562 323.558594 C 193.125 321.714844 195.6875 319.3125 196.621094 317.761719 C 197.109375 316.949219 199.898438 316.148438 200.480469 315.492188 Z M 210.773438 302.132812 " fill-opacity="1" fill-rule="nonzero"/><path fill="#d88f7d" d="M 219.222656 243.652344 C 219.800781 241.433594 223.230469 214.871094 223.984375 211.378906 L 191.253906 212.617188 C 190.984375 216.882812 195.628906 232.9375 195.355469 238.402344 C 195.085938 243.863281 194.03125 251.273438 194.613281 259.421875 C 195.019531 265.28125 198.539062 295.484375 199.789062 304.042969 C 199.417969 306.878906 199.234375 310.855469 198.496094 313.257812 C 197.699219 315.386719 196.898438 317.515625 195.570312 319.644531 C 194.238281 321.773438 191.5 324.46875 193.175781 325.761719 C 195.125 327.269531 197.964844 325.496094 197.964844 325.496094 C 198.230469 327.804688 203.820312 325.496094 205.949219 325.230469 C 209.9375 324.699219 208.875 321.773438 209.140625 318.3125 C 209.40625 316.449219 210.203125 315.917969 211.269531 314.320312 C 212.332031 312.726562 212.597656 311.128906 212.597656 309.265625 C 212.597656 307.402344 212.597656 305.808594 211.535156 303.945312 C 211.484375 303.816406 211.425781 303.691406 211.367188 303.5625 C 212.46875 296.398438 219.882812 275.171875 220.933594 267.789062 C 221.765625 258.476562 218.640625 245.871094 219.222656 243.652344 Z M 219.222656 243.652344 " fill-opacity="1" fill-rule="nonzero"/><path fill="#d88f7d" d="M 183.253906 238.636719 C 183.832031 236.417969 190.820312 209.71875 191.570312 206.230469 L 159.289062 209.71875 C 159.019531 213.988281 159.3125 229.503906 159.386719 233.382812 C 159.195312 241.53125 158.0625 246.257812 158.644531 254.402344 C 159.082031 260.722656 163.03125 293.816406 163.957031 299.070312 C 164.878906 304.320312 163.832031 308.703125 162.3125 313.960938 C 161.550781 316.585938 160.429688 318.359375 162.789062 320.480469 C 165.929688 323.300781 167.285156 323.105469 168.820312 322.621094 C 169.136719 323.84375 169.382812 324.640625 170.375 324.761719 C 173.304688 325.054688 175.207031 321.84375 175.96875 319.214844 C 176.71875 316.296875 175.515625 311.328125 175.589844 309.683594 C 175.6875 307.484375 176.589844 306.660156 176.472656 304.03125 C 176.371094 301.699219 175.257812 299.882812 174.398438 298.066406 C 174.523438 292.742188 183.835938 270.691406 184.964844 262.769531 C 185.796875 253.460938 182.675781 240.855469 183.253906 238.636719 Z M 183.253906 238.636719 " fill-opacity="1" fill-rule="nonzero"/><path fill="#000000" d="M 169.222656 155.839844 C 167.640625 156.351562 166.253906 160.105469 160.988281 166.621094 C 155.722656 173.140625 150.796875 185.664062 148.5 191.523438 C 146.226562 197.3125 145.671875 203.265625 143.90625 209.148438 C 143.519531 211.484375 143.128906 211.871094 141.183594 213.820312 C 140.015625 214.597656 136.511719 217.320312 137.679688 219.65625 C 139.625 222.769531 147.410156 219.269531 149.746094 218.878906 C 159.089844 218.101562 160.355469 228.804688 169.308594 222.96875 C 173.199219 220.632812 177.09375 219.074219 182.152344 219.855469 C 185.65625 220.242188 189.160156 222.578125 193.054688 222.96875 C 196.945312 223.355469 200.449219 221.410156 204.34375 221.800781 C 208.234375 222.191406 212.125 223.355469 216.019531 223.746094 C 217.964844 224.136719 219.914062 224.523438 221.859375 223.746094 C 223.804688 222.96875 223.414062 221.410156 226.53125 222.1875 C 229.644531 222.96875 234.316406 228.027344 236.261719 222.578125 C 238.308594 216.851562 232.890625 210.246094 231.234375 205.074219 C 228.984375 198.0625 228.292969 190.632812 225.6875 183.722656 C 223.421875 177.714844 221.136719 171.710938 218.816406 165.722656 C 217.242188 161.664062 215.8125 156.429688 211.867188 154.015625 C 208.078125 151.699219 202.101562 153.171875 197.980469 153.492188 C 192.726562 153.894531 187.492188 153.992188 182.226562 154.121094 C 177.867188 154.226562 173.375 154.503906 169.222656 155.839844 Z M 169.222656 155.839844 " fill-opacity="1" fill-rule="nonzero"/><path fill="#d88f7d" d="M 162.457031 158.636719 C 162.777344 162.183594 159.539062 166.886719 160.039062 167.609375 C 160.542969 168.328125 162.457031 166.964844 163.746094 166.964844 C 164.875 166.964844 166.324219 167.449219 167.292969 168.09375 C 168.257812 168.898438 169.066406 170.507812 170.355469 170.832031 C 170.835938 170.832031 171.804688 170.832031 172.125 170.511719 C 172.769531 169.863281 172.125 169.542969 171.644531 168.738281 C 170.515625 166.640625 171.480469 162.023438 171.160156 159.765625 C 170.835938 157.992188 168.847656 153.585938 166.753906 154.070312 " fill-opacity="1" fill-rule="nonzero"/><path fill="#d88f7d" d="M 217.253906 197.03125 C 217.121094 197.527344 216.625 198.78125 215.933594 200.292969 C 215.417969 201.429688 215.085938 202.570312 214.972656 203.710938 C 214.855469 204.863281 214.988281 209.957031 215.65625 210.058594 C 216.324219 210.160156 216.808594 209.371094 217.023438 208.761719 C 217.199219 208.261719 217.261719 206.742188 217.566406 206.429688 C 218.867188 205.097656 219.171875 206.679688 219.335938 207.714844 C 219.539062 208.992188 220.296875 211.035156 219.570312 212.203125 C 218.4375 214.023438 218.035156 215.496094 218.289062 215.71875 C 218.953125 216.300781 219.546875 215.710938 220.140625 215.636719 C 219.984375 217.664062 221.378906 217.027344 222.277344 215.894531 C 223.402344 217.914062 225.050781 213.429688 225.699219 213.25 C 226.09375 213.140625 226.195312 213.875 226.734375 213.707031 C 227.152344 213.578125 227.257812 212.984375 227.378906 212.671875 C 227.6875 211.835938 227.804688 210.746094 227.941406 209.839844 C 228.214844 208.046875 228.285156 205.8125 227.617188 204.175781 C 226.96875 202.585938 225.972656 200.773438 226.40625 198.875 C 226.523438 198.363281 226.457031 197.460938 226.742188 197.03125 " fill-opacity="1" fill-rule="nonzero"/><path fill="#000000" d="M 220.59375 215.082031 C 221.148438 214.585938 221.441406 213.957031 221.804688 213.316406 C 222.253906 212.523438 222.769531 211.839844 223.0625 210.960938 C 223.523438 209.566406 223.042969 207.976562 222.75 206.601562 C 222.71875 206.460938 222.476562 206.453125 222.453125 206.601562 C 222.292969 207.742188 222.789062 208.878906 222.726562 210.054688 C 222.671875 211.085938 222.199219 211.914062 221.632812 212.742188 C 221.164062 213.441406 220.890625 214.238281 220.402344 214.929688 C 220.316406 215.050781 220.496094 215.167969 220.59375 215.082031 Z M 220.59375 215.082031 " fill-opacity="1" fill-rule="nonzero"/><path fill="#000000" d="M 223.03125 215.03125 C 223.949219 213.988281 225.113281 212.773438 225.632812 211.476562 C 226.203125 210.050781 226.160156 208.09375 225.917969 206.597656 C 225.890625 206.433594 225.609375 206.433594 225.582031 206.597656 C 225.347656 208.046875 225.6875 209.550781 225.347656 210.984375 C 225.03125 212.324219 223.671875 213.820312 222.859375 214.902344 C 222.785156 215 222.949219 215.125 223.03125 215.03125 Z M 223.03125 215.03125 " fill-opacity="1" fill-rule="nonzero"/><path fill="#262c5d" d="M 155.789062 217.160156 C 157.128906 214.523438 158.277344 211.820312 159.570312 209.167969 C 160.402344 207.457031 161.484375 205.953125 161.707031 204.019531 C 161.320312 204.019531 160.929688 204.019531 160.539062 204.019531 C 160.6875 206.851562 159.785156 209.554688 159.394531 212.332031 C 159.074219 214.609375 159.082031 216.910156 159.082031 219.203125 C 159.082031 219.953125 160.25 219.953125 160.25 219.203125 C 160.25 216.378906 160.300781 213.605469 160.816406 210.816406 C 161.242188 208.53125 161.828125 206.367188 161.707031 204.019531 C 161.667969 203.253906 160.625 203.285156 160.539062 204.019531 C 160.308594 206.023438 158.898438 207.566406 158.179688 209.382812 C 157.191406 211.863281 155.988281 214.195312 154.78125 216.570312 C 154.441406 217.242188 155.449219 217.832031 155.789062 217.160156 Z M 155.789062 217.160156 " fill-opacity="1" fill-rule="nonzero"/><path fill="#262c5d" d="M 187.964844 218.1875 C 188.414062 215.699219 189.761719 213.535156 190.636719 211.183594 C 191.492188 208.882812 190.660156 206.289062 191.699219 204.023438 C 191.363281 204.023438 191.027344 204.023438 190.691406 204.023438 C 192.042969 206.917969 190.875 209.820312 191.800781 212.640625 C 192.527344 214.859375 193.210938 217.085938 194.195312 219.203125 C 194.511719 219.886719 195.519531 219.292969 195.203125 218.613281 C 193.9375 215.882812 192.882812 212.957031 192.84375 209.933594 C 192.8125 207.632812 192.679688 205.535156 191.699219 203.433594 C 191.523438 203.054688 190.867188 203.050781 190.691406 203.433594 C 189.914062 205.125 189.945312 206.972656 189.863281 208.800781 C 189.71875 212.046875 187.410156 214.710938 186.839844 217.878906 C 186.703125 218.613281 187.828125 218.929688 187.964844 218.1875 Z M 187.964844 218.1875 " fill-opacity="1" fill-rule="nonzero"/><path fill="#b66014" d="M 200.582031 94.121094 C 200.582031 94.988281 200.496094 95.851562 200.324219 96.703125 C 200.152344 97.554688 199.898438 98.382812 199.5625 99.183594 C 199.226562 99.988281 198.8125 100.75 198.324219 101.472656 C 197.835938 102.195312 197.28125 102.863281 196.65625 103.480469 C 196.035156 104.09375 195.359375 104.640625 194.628906 105.125 C 193.894531 105.609375 193.125 106.015625 192.3125 106.347656 C 191.5 106.679688 190.660156 106.933594 189.796875 107.101562 C 188.933594 107.269531 188.0625 107.355469 187.183594 107.355469 C 186.304688 107.355469 185.433594 107.269531 184.570312 107.101562 C 183.707031 106.933594 182.867188 106.679688 182.054688 106.347656 C 181.242188 106.015625 180.472656 105.609375 179.738281 105.125 C 179.007812 104.640625 178.332031 104.09375 177.710938 103.480469 C 177.085938 102.863281 176.53125 102.195312 176.042969 101.472656 C 175.554688 100.75 175.140625 99.988281 174.804688 99.183594 C 174.46875 98.382812 174.214844 97.554688 174.042969 96.703125 C 173.871094 95.851562 173.785156 94.988281 173.785156 94.121094 C 173.785156 93.25 173.871094 92.390625 174.042969 91.539062 C 174.214844 90.6875 174.46875 89.859375 174.804688 89.054688 C 175.140625 88.253906 175.554688 87.488281 176.042969 86.765625 C 176.53125 86.042969 177.085938 85.375 177.710938 84.761719 C 178.332031 84.148438 179.007812 83.597656 179.738281 83.117188 C 180.472656 82.632812 181.242188 82.226562 182.054688 81.890625 C 182.867188 81.558594 183.707031 81.308594 184.570312 81.140625 C 185.433594 80.96875 186.304688 80.886719 187.183594 80.886719 C 188.0625 80.886719 188.933594 80.96875 189.796875 81.140625 C 190.660156 81.308594 191.5 81.558594 192.3125 81.890625 C 193.125 82.226562 193.894531 82.632812 194.628906 83.117188 C 195.359375 83.597656 196.035156 84.148438 196.65625 84.761719 C 197.28125 85.375 197.835938 86.042969 198.324219 86.765625 C 198.8125 87.488281 199.226562 88.253906 199.5625 89.054688 C 199.898438 89.859375 200.152344 90.6875 200.324219 91.539062 C 200.496094 92.390625 200.582031 93.25 200.582031 94.121094 Z M 200.582031 94.121094 " fill-opacity="1" fill-rule="nonzero"/><path fill="#d88f7d" d="M 179.90625 85.945312 C 180.351562 89.3125 180.4375 92.046875 179.90625 94.539062 C 179.375 97.03125 179.457031 99.390625 175.027344 100.300781 C 169.566406 101.421875 163.082031 122.144531 166.972656 125.648438 C 168.726562 127.207031 178.878906 141.257812 189.4375 140.285156 C 199.996094 139.3125 210.960938 123.3125 212.515625 122.148438 C 215.632812 120.199219 205.121094 103.460938 201.617188 100.738281 C 199.671875 99.179688 196 101.570312 192.988281 97.933594 C 191.75 96.433594 193.851562 91.648438 192.683594 89.3125 Z M 179.90625 85.945312 " fill-opacity="1" fill-rule="nonzero"/><path fill="#262c5d" d="M 192.589844 96.269531 C 192.378906 96.308594 189.503906 97.121094 186.683594 96.753906 C 183.371094 96.324219 180.046875 94.703125 179.894531 94.609375 C 179.605469 94.441406 179.453125 95.675781 179.625 95.980469 C 179.800781 96.289062 184.5 99.0625 187.382812 98.910156 C 189.183594 98.8125 192.5625 97.792969 192.824219 97.664062 C 193.082031 97.53125 193.050781 96.179688 192.589844 96.269531 Z M 192.589844 96.269531 " fill-opacity="1" fill-rule="nonzero"/><path fill="#000000" d="M 189.097656 127.988281 C 189.371094 130.03125 190.542969 131.757812 190.625 133.859375 C 190.714844 136.191406 189.859375 137.988281 188.703125 139.921875 C 188.523438 140.21875 188.890625 140.621094 189.195312 140.414062 C 193.335938 137.597656 191.007812 131.484375 189.796875 127.890625 C 189.675781 127.535156 189.042969 127.570312 189.097656 127.988281 Z M 189.097656 127.988281 " fill-opacity="1" fill-rule="nonzero"/><path fill="#262c5d" d="M 163.46875 122.535156 C 158.019531 128.765625 156.074219 136.550781 161.132812 143.554688 C 163.84375 147.3125 170.136719 149.523438 168.140625 154.847656 C 173.027344 161.683594 183.007812 161.527344 190.476562 160.820312 C 195.03125 160.390625 212.339844 160.023438 214.851562 155.625 C 215.632812 154.457031 214.855469 151.347656 214.851562 150.171875 C 214.851562 144.914062 219.273438 139.753906 219.847656 134.265625 C 220.460938 128.40625 218.871094 122.757812 213.683594 119.421875 C 213.683594 119.421875 195.390625 127.847656 191.109375 134.855469 C 182.542969 125.261719 163.46875 122.535156 163.46875 122.535156 Z M 163.46875 122.535156 " fill-opacity="1" fill-rule="nonzero"/><path fill="#262c5d" d="M 175.023438 100.300781 C 162.75 100.300781 152.417969 105.410156 140.023438 116.308594 C 131.558594 123.757812 119.871094 129.425781 121.65625 140.921875 C 122.988281 149.503906 129.085938 156.242188 135.996094 161.027344 C 140.898438 164.421875 148.757812 166.984375 152.570312 166.707031 C 157.726562 166.328125 160.09375 159.933594 160.988281 161.558594 C 161.878906 163.183594 163.980469 162.320312 165.148438 161.933594 C 168.652344 161.152344 172.429688 154.359375 170.09375 151.632812 C 167.757812 148.128906 164.636719 148.226562 163.859375 143.945312 C 163.082031 140.054688 173.804688 125.058594 170.769531 124.121094 C 167.734375 123.183594 175.027344 100.300781 175.023438 100.300781 Z M 175.023438 100.300781 " fill-opacity="1" fill-rule="nonzero"/><path fill="#262c5d" d="M 200.253906 100.136719 C 209.207031 99.359375 215.632812 105.410156 220.691406 112.027344 C 223.804688 115.917969 226.53125 119.035156 228.089844 124.09375 C 229.644531 127.988281 230.035156 132.269531 230.8125 136.160156 C 232.371094 143.945312 233.925781 151.34375 235.875 159.128906 C 237.429688 166.523438 240.15625 176.644531 237.820312 184.042969 C 236.261719 188.324219 233.539062 188.324219 229.644531 190.269531 C 227.242188 191.472656 226.910156 193.09375 227.417969 195.535156 C 228.433594 200.421875 222.292969 199.738281 218.746094 199.53125 C 214.628906 199.292969 215.726562 197.65625 215.71875 194.230469 C 215.703125 188.78125 211.125 184.054688 210.960938 178.589844 C 210.574219 165.746094 206.601562 123.378906 209.667969 121.40625 C 212.730469 119.4375 200.253906 100.136719 200.253906 100.136719 Z M 200.253906 100.136719 " fill-opacity="1" fill-rule="nonzero"/><path fill="#b66014" d="M 212.128906 112.027344 C 209.792969 108.914062 213.683594 104.628906 214.074219 101.125 C 214.464844 94.898438 212.128906 95.675781 208.234375 92.5625 C 204.34375 89.835938 205.304688 86.511719 205.695312 83.007812 C 206.472656 74.832031 204.722656 65.261719 197.714844 60.199219 C 192.78125 56.910156 189.027344 55.023438 184.40625 57.207031 C 178.207031 55.191406 172.136719 60.390625 169.503906 64.339844 C 167.816406 67.148438 166.464844 70.171875 165.613281 73.339844 C 164.9375 75.835938 165.148438 79.6875 163.65625 81.886719 C 162.308594 83.867188 159.515625 83.738281 158.410156 85.945312 C 157.308594 88.144531 157.710938 92.34375 159.546875 94.015625 C 161.683594 95.960938 162.800781 96.632812 160.152344 99.667969 C 158.316406 101.765625 156.292969 101.984375 155.683594 105.019531 C 154.519531 110.859375 159.578125 109.300781 163.082031 111.246094 C 164.636719 112.027344 167.363281 113.582031 166.585938 115.53125 C 166.195312 117.867188 162.304688 117.085938 163.082031 120.199219 C 163.472656 121.757812 164.636719 122.148438 166.195312 122.535156 C 165.417969 119.035156 173.203125 119.421875 175.148438 117.085938 C 178.652344 112.417969 172.8125 110.46875 173.589844 106.578125 C 173.980469 105.019531 176.25 106.367188 177.863281 102.128906 C 179.640625 97.457031 178.503906 91.648438 179.285156 89.316406 C 181.851562 85.945312 193.832031 89.058594 196.167969 92.175781 C 198.113281 95.675781 196.949219 100.347656 198.894531 103.460938 C 200.0625 105.019531 202.785156 105.410156 203.175781 106.574219 C 204.34375 108.523438 201.617188 110.078125 201.617188 112.414062 C 202.007812 118.253906 208.625 114.359375 210.960938 117.863281 C 211.738281 118.644531 211.738281 120.199219 211.351562 120.976562 C 213.296875 120.976562 214.855469 118.253906 214.855469 116.308594 C 215.242188 113.582031 213.683594 114.363281 212.128906 112.027344 Z M 212.128906 112.027344 " fill-opacity="1" fill-rule="nonzero"/><path fill="#d88f7d" d="M 189.21875 63.757812 C 182.171875 63.757812 175.761719 65.359375 175.121094 74.011719 C 174.800781 81.058594 174.96875 86.339844 180.886719 90.625 C 189.058594 96.546875 196.167969 94.230469 198.433594 87.40625 C 200.460938 81.285156 201.699219 73.410156 199.152344 69.085938 C 197.578125 66.410156 195.308594 63.757812 189.21875 63.757812 Z M 189.21875 63.757812 " fill-opacity="1" fill-rule="nonzero"/><path fill="#b66014" d="M 185.511719 64.78125 C 183.613281 64.632812 181.425781 66.3125 180.402344 69.085938 C 179.378906 72.441406 178.359375 76.457031 174.710938 77.480469 C 170.183594 78.9375 170.769531 72.222656 171.789062 69.597656 C 173.542969 65.070312 177.921875 61.859375 182.445312 60.839844 C 189.890625 59.234375 199.378906 60.253906 202.007812 68.71875 C 202.882812 71.347656 203.683594 74.925781 203.539062 77.550781 C 203.394531 79.011719 201.75 80.59375 200.292969 79.570312 C 199.125 78.695312 199.671875 75.945312 199.378906 74.484375 C 198.941406 71.710938 196.898438 66.894531 193.757812 65.363281 C 190.621094 63.828125 189.597656 65.945312 188.578125 66.019531 C 187.554688 66.09375 187.410156 64.925781 185.511719 64.78125 Z M 185.511719 64.78125 " fill-opacity="1" fill-rule="nonzero"/><path fill="#000000" d="M 182.257812 91.910156 C 183.976562 93.015625 186 94.054688 188.035156 94.367188 C 189.257812 94.554688 191.578125 95.035156 192.546875 94.003906 C 192.773438 93.765625 192.554688 93.289062 192.207031 93.417969 C 189.109375 94.554688 185.160156 93.082031 182.488281 91.515625 C 182.234375 91.363281 182.011719 91.75 182.257812 91.910156 Z M 182.257812 91.910156 " fill-opacity="1" fill-rule="nonzero"/><path fill="#000000" d="M 192.667969 99.667969 C 192.59375 100.90625 192.1875 102.617188 193.042969 103.664062 C 193.214844 103.871094 193.527344 103.691406 193.535156 103.464844 C 193.558594 102.847656 193.394531 102.230469 193.332031 101.621094 C 193.265625 100.972656 193.273438 100.316406 193.242188 99.667969 C 193.226562 99.296875 192.691406 99.296875 192.667969 99.667969 Z M 192.667969 99.667969 " fill-opacity="1" fill-rule="nonzero"/><path fill="#000000" d="M 134.566406 136.347656 C 136.0625 136.503906 137.566406 136.441406 139.066406 136.539062 C 141.480469 136.695312 143.664062 138.007812 145.753906 139.113281 C 149.074219 140.863281 152.097656 141.757812 155.757812 142.550781 C 159.398438 143.339844 163.339844 144.601562 166.742188 146.125 C 169.992188 147.578125 169.945312 150.445312 170.40625 153.484375 C 170.476562 153.941406 171.09375 153.765625 171.140625 153.386719 C 172.054688 145.984375 165.679688 144.675781 160.003906 142.804688 C 155.269531 141.246094 150.675781 140.699219 146.175781 138.390625 C 142.273438 136.382812 139 135.425781 134.566406 135.972656 C 134.328125 136.003906 134.324219 136.324219 134.566406 136.347656 Z M 134.566406 136.347656 " fill-opacity="1" fill-rule="nonzero"/><path fill="#000000" d="M 162.921875 126.550781 C 157.011719 131.074219 158.40625 141.410156 164.375 145.171875 C 164.945312 145.535156 165.453125 144.644531 164.898438 144.277344 C 159.046875 140.367188 158.910156 132.078125 163.300781 127.039062 C 163.515625 126.789062 163.21875 126.324219 162.921875 126.550781 Z M 162.921875 126.550781 " fill-opacity="1" fill-rule="nonzero"/><path fill="#000000" d="M 214.609375 128.886719 C 215.265625 132.226562 216.535156 134.636719 215.390625 138.167969 C 214.539062 140.792969 212.628906 142.972656 211.648438 145.566406 C 210.574219 148.414062 208.117188 154.1875 210.425781 156.941406 C 210.765625 157.347656 211.304688 156.894531 211.230469 156.46875 C 210.3125 151.144531 212.820312 145.621094 215.398438 141.066406 C 217.820312 136.789062 217.304688 132.898438 215.441406 128.535156 C 215.226562 128.03125 214.515625 128.410156 214.609375 128.886719 Z M 214.609375 128.886719 " fill-opacity="1" fill-rule="nonzero"/><path fill="#000000" d="M 160.96875 159.84375 C 160.71875 158.226562 158.988281 158.359375 157.777344 158.828125 C 156.839844 159.191406 156.160156 159.882812 155.425781 160.535156 C 153.765625 162.011719 152.207031 162.363281 150.039062 162.21875 C 149.597656 162.191406 149.53125 162.769531 149.832031 162.984375 C 151.355469 164.066406 153.078125 163.425781 154.558594 162.554688 C 156.535156 161.390625 158.128906 158.289062 160.628906 160.105469 C 160.8125 160.242188 160.996094 160.019531 160.96875 159.84375 Z M 160.96875 159.84375 " fill-opacity="1" fill-rule="nonzero"/><path fill="#000000" d="M 217.609375 191.726562 C 218.902344 193.445312 221.289062 193.355469 223.105469 192.609375 C 224.101562 192.203125 224.972656 191.554688 225.769531 190.839844 C 226.789062 189.929688 227.117188 188.453125 228.328125 187.757812 C 228.828125 187.472656 228.464844 186.816406 227.960938 186.890625 C 226.515625 187.117188 226.1875 188.695312 225.371094 189.695312 C 223.488281 192.003906 220.546875 192.738281 217.867188 191.46875 C 217.71875 191.398438 217.488281 191.558594 217.609375 191.726562 Z M 217.609375 191.726562 " fill-opacity="1" fill-rule="nonzero"/><path fill="#b66014" d="M 161.203125 319.191406 C 162.652344 318.363281 165.792969 318.390625 167.542969 318.78125 C 168.90625 319.171875 170.65625 319.753906 171.824219 320.535156 C 172.605469 321.117188 174.199219 323.558594 174.199219 323.558594 L 175.535156 321.890625 C 175.535156 321.890625 173.1875 318.148438 169.976562 317.199219 C 166.765625 316.25 161.371094 316.871094 161.371094 316.871094 Z M 161.203125 319.191406 " fill-opacity="1" fill-rule="nonzero"/><path fill="#b66014" d="M 207.445312 325.015625 C 206.65625 325.007812 203.777344 322.183594 202.097656 321.550781 C 200.746094 321.128906 198.960938 320.65625 197.558594 320.664062 C 196.585938 320.726562 193.636719 321.976562 193.636719 321.976562 L 195.292969 319.554688 C 195.292969 319.554688 197.722656 317.925781 200.929688 318.890625 C 204.136719 319.859375 208.820312 323.308594 208.820312 323.308594 C 208.820312 323.308594 208.820312 325.035156 207.445312 325.015625 Z M 207.445312 325.015625 " fill-opacity="1" fill-rule="nonzero"/><path fill="#b66014" d="M 163.792969 299.347656 C 167.441406 302.109375 171.21875 301.140625 174.867188 298.929688 C 175.453125 298.574219 174.910156 297.644531 174.328125 298.007812 C 172.664062 299.046875 170.957031 299.960938 168.984375 300.191406 C 167.214844 300.398438 165.632812 299.574219 164.117188 298.789062 C 163.738281 298.589844 163.464844 299.101562 163.792969 299.347656 Z M 163.792969 299.347656 " fill-opacity="1" fill-rule="nonzero"/><path fill="#b66014" d="M 199.417969 303.292969 C 203.320312 306.125 208.035156 305.609375 212.023438 303.273438 C 212.617188 302.925781 212.078125 301.996094 211.484375 302.347656 C 207.5625 304.707031 203.773438 304.832031 199.746094 302.734375 C 199.371094 302.539062 199.085938 303.050781 199.417969 303.292969 Z M 199.417969 303.292969 " fill-opacity="1" fill-rule="nonzero"/><path fill="#000000" d="M 176.292969 241.371094 C 175.6875 242.582031 174.984375 243.734375 174.203125 244.839844 C 173.363281 246.027344 172.171875 246.921875 171.359375 248.105469 C 171.160156 248.394531 171.539062 248.695312 171.808594 248.554688 C 172.980469 247.957031 173.929688 246.683594 174.703125 245.644531 C 175.628906 244.394531 176.355469 243.085938 176.960938 241.652344 C 177.121094 241.269531 176.476562 241.003906 176.292969 241.371094 Z M 176.292969 241.371094 " fill-opacity="1" fill-rule="nonzero"/><path fill="#000000" d="M 213.863281 244.363281 C 213.316406 245.816406 212.558594 247.140625 211.789062 248.484375 C 211.136719 249.621094 210.367188 250.738281 210.234375 252.066406 C 210.214844 252.277344 210.507812 252.371094 210.640625 252.234375 C 211.632812 251.199219 212.21875 249.765625 212.90625 248.519531 C 213.601562 247.253906 214.214844 245.953125 214.671875 244.585938 C 214.847656 244.066406 214.050781 243.863281 213.863281 244.363281 Z M 213.863281 244.363281 " fill-opacity="1" fill-rule="nonzero"/><path fill="#000000" d="M 199.339844 247.296875 C 199.664062 247.789062 199.984375 248.285156 200.308594 248.78125 C 200.566406 249.175781 200.851562 249.75 201.292969 249.949219 C 201.460938 250.023438 201.683594 249.941406 201.679688 249.730469 C 201.667969 249.226562 201.277344 248.777344 201.003906 248.375 C 200.667969 247.886719 200.335938 247.398438 200 246.90625 C 199.726562 246.503906 199.066406 246.878906 199.339844 247.296875 Z M 199.339844 247.296875 " fill-opacity="1" fill-rule="nonzero"/><path fill="#000000" d="M 177.820312 81.925781 C 178 82.867188 178.691406 83.96875 179.542969 84.441406 C 179.667969 84.507812 179.800781 84.375 179.734375 84.25 C 179.535156 83.886719 179.210938 83.613281 178.941406 83.304688 C 178.566406 82.875 178.25 82.402344 178.097656 81.847656 C 178.046875 81.667969 177.789062 81.746094 177.820312 81.925781 Z M 177.820312 81.925781 " fill-opacity="1" fill-rule="nonzero"/><path fill="#262c5d" d="M 180.425781 74.882812 C 181.492188 74.097656 182.988281 74.457031 184.464844 75.015625 C 185.675781 75.476562 187.542969 75.875 187.8125 75.875 C 188.082031 75.875 187.453125 74.5625 186.839844 74.101562 C 186.226562 73.640625 182.574219 73.105469 181.699219 73.34375 C 180.828125 73.582031 180.425781 74.882812 180.425781 74.882812 Z M 180.425781 74.882812 " fill-opacity="1" fill-rule="nonzero"/><path fill="#262c5d" d="M 198.15625 74.347656 C 197.417969 73.929688 196.875 74.3125 195.90625 74.578125 C 195.070312 74.808594 192.414062 76.023438 192.042969 75.875 C 191.675781 75.726562 192.304688 74.296875 192.664062 73.941406 C 193.027344 73.582031 195.972656 73.195312 196.578125 73.28125 C 197.183594 73.371094 198.15625 74.347656 198.15625 74.347656 Z M 198.15625 74.347656 " fill-opacity="1" fill-rule="nonzero"/><path fill="#d88f7d" d="M 175.917969 78.746094 C 175.039062 77.53125 174.261719 76.195312 172.609375 75.953125 C 171.097656 75.710938 171.148438 78.042969 171.195312 79.019531 C 171.292969 80.332031 171.488281 81.546875 172.65625 82.375 C 173.582031 83.058594 174.796875 83.6875 175.964844 83.6875 C 176.5 83.6875 176.890625 83.542969 177.328125 83.347656 " fill-opacity="1" fill-rule="nonzero"/><path fill="#000000" d="M 172.742188 78.984375 C 172.832031 78.714844 172.945312 78.386719 173.285156 78.457031 C 173.570312 78.519531 173.828125 78.757812 174.03125 78.953125 C 174.589844 79.488281 174.90625 80.355469 175.019531 81.097656 C 175.21875 81.015625 175.414062 80.933594 175.613281 80.847656 C 175.113281 80.039062 173.125 79.398438 173.125 80.867188 C 173.128906 81.394531 173.972656 81.386719 173.9375 80.867188 C 173.914062 80.488281 174.910156 80.972656 175.054688 81.175781 C 175.273438 81.488281 175.699219 81.289062 175.644531 80.925781 C 175.476562 79.820312 174.890625 78.679688 173.9375 78.054688 C 173.105469 77.507812 172.335938 77.988281 172.269531 78.921875 C 172.246094 79.203125 172.660156 79.230469 172.742188 78.984375 Z M 172.742188 78.984375 " fill-opacity="1" fill-rule="nonzero"/><path fill="#000000" d="M 191.351562 77.824219 C 191.367188 79.007812 191.742188 80.207031 192.289062 81.25 C 192.449219 81.554688 192.835938 81.726562 193.128906 81.855469 C 193.261719 81.941406 193.390625 82.027344 193.523438 82.113281 C 193.609375 83.050781 193.265625 83.492188 192.488281 83.429688 C 192.105469 83.46875 191.972656 83.46875 191.597656 83.570312 C 191.226562 83.667969 191.203125 84.257812 191.597656 84.34375 C 192.828125 84.609375 194.691406 84.03125 194.621094 82.53125 C 194.597656 82.074219 194.230469 81.460938 193.816406 81.253906 C 192.617188 80.644531 192.070312 79.128906 191.914062 77.824219 C 191.875 77.472656 191.34375 77.453125 191.351562 77.824219 Z M 191.351562 77.824219 " fill-opacity="1" fill-rule="nonzero"/><path fill="#000000" d="M 189.652344 83.300781 C 189.769531 83.320312 189.839844 83.375 189.9375 83.4375 C 190.25 83.621094 190.597656 83.183594 190.328125 82.933594 C 190.160156 82.777344 189.964844 82.703125 189.738281 82.703125 C 189.398438 82.699219 189.308594 83.246094 189.652344 83.300781 Z M 189.652344 83.300781 " fill-opacity="1" fill-rule="nonzero"/><path fill="#000000" d="M 186.320312 86.53125 C 187.050781 86.679688 189.242188 85.144531 189.605469 85.21875 C 190.042969 85.292969 190.699219 85.949219 191.140625 86.09375 C 191.503906 85.4375 192.210938 85.355469 192.933594 85.566406 C 193.785156 85.8125 194.550781 86.730469 195.503906 86.863281 C 195.503906 86.863281 193.832031 88.554688 193.246094 88.847656 C 192.152344 89.503906 190.917969 89.453125 189.605469 89.230469 C 188.367188 89.011719 186.320312 86.53125 186.320312 86.53125 Z M 186.320312 86.53125 " fill-opacity="1" fill-rule="nonzero"/><path fill="#f6fffe" d="M 180.886719 77.320312 C 181.664062 78.097656 182.488281 78.691406 183.699219 78.882812 C 184.648438 79.035156 185.859375 79.042969 186.726562 78.683594 C 186.726562 78.683594 186.558594 76.757812 184.21875 76.363281 C 181.882812 75.96875 180.886719 77.320312 180.886719 77.320312 Z M 180.886719 77.320312 " fill-opacity="1" fill-rule="nonzero"/><path fill="#262c5d" d="M 180.683594 77.496094 C 180.785156 77.589844 180.984375 77.234375 181.550781 77.007812 C 182.125 76.773438 182.972656 76.574219 184.066406 76.707031 C 185.375 76.863281 186.074219 77.550781 186.417969 78.070312 C 186.648438 78.410156 186.6875 78.753906 186.765625 78.753906 C 186.84375 78.753906 186.816406 78.414062 186.722656 78.015625 C 186.570312 77.355469 186.078125 76.386719 185.007812 76.09375 C 182.929688 75.527344 181.8125 76.070312 181.238281 76.636719 C 180.8125 77.058594 180.585938 77.402344 180.683594 77.496094 Z M 180.683594 77.496094 " fill-opacity="1" fill-rule="nonzero"/><path fill="#262c5d" d="M 185.585938 77.28125 C 185.039062 76.460938 183.457031 76.078125 182.679688 76.757812 C 182.1875 77.191406 182.273438 77.863281 182.652344 78.355469 C 183.632812 79.621094 186.589844 78.78125 185.585938 77.28125 Z M 185.585938 77.28125 " fill-opacity="1" fill-rule="nonzero"/><path fill="#f6fffe" d="M 198.21875 77.320312 C 197.457031 78.097656 196.65625 78.691406 195.472656 78.882812 C 194.542969 79.035156 193.359375 79.042969 192.515625 78.683594 C 192.515625 78.683594 192.679688 76.757812 194.964844 76.363281 C 197.246094 75.96875 198.21875 77.320312 198.21875 77.320312 Z M 198.21875 77.320312 " fill-opacity="1" fill-rule="nonzero"/><path fill="#262c5d" d="M 198.414062 77.496094 C 198.316406 77.589844 198.125 77.234375 197.570312 77.007812 C 197.007812 76.773438 196.179688 76.574219 195.113281 76.707031 C 193.832031 76.863281 193.152344 77.550781 192.8125 78.070312 C 192.589844 78.410156 192.550781 78.753906 192.472656 78.753906 C 192.398438 78.753906 192.425781 78.414062 192.511719 78.015625 C 192.664062 77.355469 193.148438 76.386719 194.191406 76.09375 C 196.222656 75.527344 197.3125 76.070312 197.875 76.636719 C 198.292969 77.058594 198.515625 77.402344 198.414062 77.496094 Z M 198.414062 77.496094 " fill-opacity="1" fill-rule="nonzero"/><path fill="#262c5d" d="M 193.949219 77.28125 C 194.484375 76.460938 196.027344 76.078125 196.789062 76.757812 C 197.269531 77.191406 197.1875 77.863281 196.8125 78.355469 C 195.855469 79.621094 192.96875 78.78125 193.949219 77.28125 Z M 193.949219 77.28125 " fill-opacity="1" fill-rule="nonzero"/><path fill="#262c5d" d="M 203.921875 172.953125 C 200.78125 175.679688 197.210938 177.570312 193.523438 179.4375 C 189.5625 181.445312 185.722656 183.59375 181.40625 184.773438 C 180.679688 184.972656 180.988281 186.097656 181.71875 185.898438 C 186.117188 184.699219 190.082031 182.53125 194.113281 180.445312 C 197.878906 178.5 201.527344 176.574219 204.746094 173.777344 C 205.316406 173.285156 204.484375 172.460938 203.921875 172.953125 Z M 203.921875 172.953125 " fill-opacity="1" fill-rule="nonzero"/><path fill="#000000" d="M 177.125 86.375 C 176.90625 85.269531 176.046875 84.195312 174.929688 84.011719 C 175.089844 83.730469 175.089844 83.253906 175.054688 83.015625 C 175.015625 82.738281 174.914062 82.320312 174.570312 82.292969 C 173.675781 82.214844 174.046875 83.976562 174.109375 83.964844 C 172.875 84.21875 171.941406 85.320312 171.855469 86.589844 C 171.75 88.195312 173.589844 88.953125 174.957031 88.953125 C 176.222656 88.957031 177.375 87.648438 177.125 86.375 Z M 174.683594 88.382812 C 173.390625 88.421875 172.269531 87.65625 172.484375 86.28125 C 172.621094 85.417969 173.347656 84.667969 174.285156 84.597656 C 175.253906 84.523438 175.878906 85.039062 176.304688 85.871094 C 176.945312 87.132812 175.996094 88.34375 174.683594 88.382812 Z M 174.683594 88.382812 " fill-opacity="1" fill-rule="nonzero"/><path fill="#b66014" d="M 174.554688 75.515625 C 174.152344 76.625 173.515625 78.417969 173.902344 79.691406 C 174.175781 80.582031 175.089844 81.121094 175.1875 82.082031 C 175.234375 82.617188 175.042969 82.910156 174.894531 83.398438 C 174.796875 83.738281 174.75 84.175781 174.796875 84.515625 C 174.894531 84.953125 175.285156 85.246094 175.480469 85.683594 C 175.234375 84.5625 176.402344 84.078125 177.183594 83.589844 C 178.058594 82.910156 178.300781 81.839844 178.496094 80.769531 C 178.878906 79.078125 177.328125 77.113281 178.195312 74.746094 C 178.640625 73.542969 174.953125 74.402344 174.554688 75.515625 Z M 174.554688 75.515625 " fill-opacity="1" fill-rule="nonzero"/></svg>