<svg xmlns="http://www.w3.org/2000/svg" xmlns:xlink="http://www.w3.org/1999/xlink" width="500" zoomAndPan="magnify" viewBox="0 0 375 374.999991" height="500" preserveAspectRatio="xMidYMid meet" version="1.0"><defs><filter x="0%" y="0%" width="100%" height="100%" id="14ce93b0b0"><feColorMatrix values="0 0 0 0 1 0 0 0 0 1 0 0 0 0 1 0 0 0 1 0" color-interpolation-filters="sRGB"/></filter><mask id="c927837aa0"><g filter="url(#14ce93b0b0)"><rect x="-37.5" width="450" fill="#000000" y="-37.499999" height="449.999989" fill-opacity="0.2"/></g></mask><clipPath id="23746214f0"><path d="M 0.398438 0.238281 L 46.480469 0.238281 L 46.480469 51.839844 L 0.398438 51.839844 Z M 0.398438 0.238281 " clip-rule="nonzero"/></clipPath><clipPath id="f9c52cf9fb"><rect x="0" width="47" y="0" height="52"/></clipPath><mask id="0925694d05"><g filter="url(#14ce93b0b0)"><rect x="-37.5" width="450" fill="#000000" y="-37.499999" height="449.999989" fill-opacity="0.2"/></g></mask><clipPath id="6e2d26432b"><path d="M 1 0.558594 L 13 0.558594 L 13 12.558594 L 1 12.558594 Z M 1 0.558594 " clip-rule="nonzero"/></clipPath><clipPath id="24a73d77ce"><rect x="0" width="14" y="0" height="13"/></clipPath><mask id="98f566099f"><g filter="url(#14ce93b0b0)"><rect x="-37.5" width="450" fill="#000000" y="-37.499999" height="449.999989" fill-opacity="0.2"/></g></mask><clipPath id="83eeafe282"><path d="M 0.078125 0.320312 L 14.71875 0.320312 L 14.71875 15.679688 L 0.078125 15.679688 Z M 0.078125 0.320312 " clip-rule="nonzero"/></clipPath><clipPath id="9804215b37"><rect x="0" width="15" y="0" height="16"/></clipPath><mask id="0b8e9c7e60"><g filter="url(#14ce93b0b0)"><rect x="-37.5" width="450" fill="#000000" y="-37.499999" height="449.999989" fill-opacity="0.2"/></g></mask><clipPath id="597c67a95f"><path d="M 0.441406 0.28125 L 14.601562 0.28125 L 14.601562 2 L 0.441406 2 Z M 0.441406 0.28125 " clip-rule="nonzero"/></clipPath><clipPath id="5f52575107"><rect x="0" width="15" y="0" height="3"/></clipPath><mask id="10f6618252"><g filter="url(#14ce93b0b0)"><rect x="-37.5" width="450" fill="#000000" y="-37.499999" height="449.999989" fill-opacity="0.2"/></g></mask><clipPath id="25bdcea5ae"><path d="M 1 0.800781 L 14.121094 0.800781 L 14.121094 3.679688 L 1 3.679688 Z M 1 0.800781 " clip-rule="nonzero"/></clipPath><clipPath id="63fe44ec9e"><rect x="0" width="15" y="0" height="4"/></clipPath><mask id="1df38d581b"><g filter="url(#14ce93b0b0)"><rect x="-37.5" width="450" fill="#000000" y="-37.499999" height="449.999989" fill-opacity="0.2"/></g></mask><clipPath id="bb118e811a"><path d="M 0.519531 0.121094 L 6 0.121094 L 6 12.839844 L 0.519531 12.839844 Z M 0.519531 0.121094 " clip-rule="nonzero"/></clipPath><clipPath id="5d71b1375d"><rect x="0" width="7" y="0" height="13"/></clipPath><mask id="be746e6400"><g filter="url(#14ce93b0b0)"><rect x="-37.5" width="450" fill="#000000" y="-37.499999" height="449.999989" fill-opacity="0.2"/></g></mask><clipPath id="91c1f5af01"><path d="M 0.601562 0.398438 L 3 0.398438 L 3 13 L 0.601562 13 Z M 0.601562 0.398438 " clip-rule="nonzero"/></clipPath><clipPath id="2c79fb64c4"><rect x="0" width="4" y="0" height="14"/></clipPath><mask id="85f4d61351"><g filter="url(#14ce93b0b0)"><rect x="-37.5" width="450" fill="#000000" y="-37.499999" height="449.999989" fill-opacity="0.5"/></g></mask><clipPath id="5343236c8e"><path d="M 0.640625 0.359375 L 58.71875 0.359375 L 58.71875 63 L 0.640625 63 Z M 0.640625 0.359375 " clip-rule="nonzero"/></clipPath><clipPath id="2791dd51ae"><rect x="0" width="59" y="0" height="63"/></clipPath><mask id="594dd1c625"><g filter="url(#14ce93b0b0)"><rect x="-37.5" width="450" fill="#000000" y="-37.499999" height="449.999989" fill-opacity="0.2"/></g></mask><clipPath id="2871c61042"><path d="M 0.558594 1 L 52 1 L 52 55.640625 L 0.558594 55.640625 Z M 0.558594 1 " clip-rule="nonzero"/></clipPath><clipPath id="383628ffc9"><rect x="0" width="53" y="0" height="56"/></clipPath><mask id="a57c615ae6"><g filter="url(#14ce93b0b0)"><rect x="-37.5" width="450" fill="#000000" y="-37.499999" height="449.999989" fill-opacity="0.2"/></g></mask><clipPath id="8193c95668"><path d="M 1 1 L 8 1 L 8 9.761719 L 1 9.761719 Z M 1 1 " clip-rule="nonzero"/></clipPath><clipPath id="a31a852cb7"><rect x="0" width="9" y="0" height="10"/></clipPath><mask id="2761086cf3"><g filter="url(#14ce93b0b0)"><rect x="-37.5" width="450" fill="#000000" y="-37.499999" height="449.999989" fill-opacity="0.2"/></g></mask><clipPath id="bdd4f0e0dd"><path d="M 0.28125 1 L 5 1 L 5 10 L 0.28125 10 Z M 0.28125 1 " clip-rule="nonzero"/></clipPath><clipPath id="80b1244780"><rect x="0" width="6" y="0" height="11"/></clipPath><mask id="6c8f89d7a5"><g filter="url(#14ce93b0b0)"><rect x="-37.5" width="450" fill="#000000" y="-37.499999" height="449.999989" fill-opacity="0.2"/></g></mask><clipPath id="94dea25191"><path d="M 1 1 L 19.921875 1 L 19.921875 74.640625 L 1 74.640625 Z M 1 1 " clip-rule="nonzero"/></clipPath><clipPath id="b0eeed75ed"><rect x="0" width="20" y="0" height="75"/></clipPath><mask id="f0bf2c2b0d"><g filter="url(#14ce93b0b0)"><rect x="-37.5" width="450" fill="#000000" y="-37.499999" height="449.999989" fill-opacity="0.2"/></g></mask><clipPath id="f8b759fba2"><path d="M 1 1 L 17.519531 1 L 17.519531 31 L 1 31 Z M 1 1 " clip-rule="nonzero"/></clipPath><clipPath id="25b130e635"><rect x="0" width="18" y="0" height="32"/></clipPath><mask id="e41de7d713"><g filter="url(#14ce93b0b0)"><rect x="-37.5" width="450" fill="#000000" y="-37.499999" height="449.999989" fill-opacity="0.2"/></g></mask><clipPath id="65890b4f38"><path d="M 0.679688 1 L 21.320312 1 L 21.320312 137.679688 L 0.679688 137.679688 Z M 0.679688 1 " clip-rule="nonzero"/></clipPath><clipPath id="7625961d79"><rect x="0" width="22" y="0" height="138"/></clipPath></defs><rect x="-37.5" width="450" fill="#ffffff" y="-37.499999" height="449.999989" fill-opacity="1"/><rect x="-37.5" width="450" fill="#ffffff" y="-37.499999" height="449.999989" fill-opacity="1"/><path fill="#19344f" d="M 139.261719 229.285156 C 139.066406 229.285156 138.925781 229.195312 138.847656 229.015625 C 138.808594 228.925781 134.886719 220.039062 132.863281 215.863281 L 132.292969 214.679688 C 130.765625 211.503906 129.035156 207.90625 128.011719 207.90625 C 128 207.90625 127.988281 207.90625 127.976562 207.90625 C 127.855469 207.90625 127.75 207.859375 127.660156 207.773438 C 127.574219 207.6875 127.53125 207.582031 127.527344 207.460938 C 127.523438 207.339844 127.566406 207.230469 127.648438 207.140625 C 127.734375 207.050781 127.835938 207.003906 127.957031 206.996094 C 129.5 206.929688 130.855469 209.585938 133.113281 214.285156 L 133.679688 215.46875 C 135.710938 219.660156 139.640625 228.5625 139.679688 228.648438 C 139.710938 228.71875 139.722656 228.792969 139.714844 228.871094 C 139.710938 228.949219 139.6875 229.019531 139.644531 229.082031 C 139.601562 229.148438 139.546875 229.199219 139.480469 229.234375 C 139.410156 229.269531 139.339844 229.289062 139.261719 229.289062 Z M 139.261719 229.285156 " fill-opacity="1" fill-rule="nonzero"/><path fill="#19344f" d="M 119.109375 227.09375 C 119.0625 227.09375 119.011719 227.085938 118.964844 227.070312 C 118.847656 227.027344 118.757812 226.953125 118.703125 226.839844 C 118.648438 226.726562 118.640625 226.613281 118.679688 226.492188 L 124.566406 208.96875 C 124.609375 208.847656 124.683594 208.761719 124.796875 208.707031 C 124.910156 208.648438 125.023438 208.640625 125.144531 208.679688 C 125.261719 208.722656 125.351562 208.796875 125.40625 208.910156 C 125.464844 209.023438 125.472656 209.136719 125.429688 209.257812 L 119.542969 226.78125 C 119.472656 226.988281 119.328125 227.09375 119.109375 227.09375 Z M 119.109375 227.09375 " fill-opacity="1" fill-rule="nonzero"/><path fill="#6a858a" d="M 188.390625 314.125 C 188.589844 316.761719 190.839844 319.484375 191.5 323.585938 C 192.164062 327.691406 190.945312 328.90625 191.03125 332.757812 C 191.117188 336.609375 188.191406 338.875 186.140625 335.828125 C 184.089844 332.785156 182.566406 327.757812 182.566406 323.191406 C 182.566406 318.625 182.4375 315.648438 182.832031 313.859375 C 183.226562 312.074219 188.167969 311.089844 188.390625 314.125 Z M 188.390625 314.125 " fill-opacity="1" fill-rule="nonzero"/><path fill="#19344f" d="M 182.039062 31.078125 C 179.230469 31.972656 176.617188 33.261719 174.195312 34.949219 C 171.777344 36.632812 169.660156 38.636719 167.84375 40.957031 C 165.363281 44.035156 163.230469 49.445312 163.773438 52.421875 C 164.320312 55.402344 165.808594 58.082031 162.929688 59.46875 C 160.050781 60.859375 156.304688 60.339844 155.980469 58.230469 C 155.660156 56.121094 156.578125 54.980469 154.617188 56.816406 C 154.15625 57.238281 153.773438 57.722656 153.464844 58.265625 C 153.160156 58.808594 152.941406 59.386719 152.816406 60 C 152.6875 60.613281 152.65625 61.226562 152.722656 61.847656 C 152.789062 62.472656 152.949219 63.066406 153.203125 63.636719 C 154 65.101562 155.125 66.242188 156.578125 67.0625 C 155.320312 67.996094 154.359375 69.167969 153.699219 70.585938 C 152.558594 72.96875 154.542969 75.050781 155.539062 75.152344 C 155.367188 75.578125 155.277344 76.019531 155.269531 76.476562 C 155.257812 76.9375 155.328125 77.382812 155.480469 77.8125 C 155.628906 78.246094 155.851562 78.640625 156.144531 78.992188 C 156.433594 79.347656 156.777344 79.636719 157.175781 79.867188 C 160.054688 81.707031 163.972656 81.953125 166.40625 79.867188 C 167.058594 80.824219 167.859375 81.636719 168.808594 82.300781 C 169.757812 82.96875 170.792969 83.449219 171.914062 83.738281 C 175.488281 84.53125 180.550781 83.191406 182.039062 82.050781 C 183.527344 80.910156 188.722656 77.632812 190.179688 78.957031 C 191.640625 80.28125 194.085938 82.925781 199.113281 83.457031 C 204.136719 83.984375 207.78125 82.066406 209.101562 78.492188 C 209.101562 78.492188 215.652344 80.613281 217.574219 73.53125 C 217.574219 73.53125 215.855469 74.523438 214.730469 72.503906 C 213.605469 70.488281 215.355469 69.859375 216.316406 68.171875 C 217.277344 66.484375 216.449219 64.367188 216.449219 64.367188 C 216.449219 64.367188 217.871094 60.488281 215.820312 57.53125 C 213.765625 54.574219 208.242188 53.015625 205.792969 49.410156 C 203.347656 45.804688 202.023438 42.03125 200.898438 38.457031 C 200.757812 38.050781 200.582031 37.660156 200.371094 37.285156 C 200.160156 36.910156 199.921875 36.554688 199.648438 36.222656 C 199.371094 35.894531 199.070312 35.585938 198.742188 35.308594 C 198.414062 35.03125 198.066406 34.785156 197.695312 34.570312 C 197.320312 34.355469 196.933594 34.171875 196.527344 34.027344 C 196.125 33.882812 195.710938 33.773438 195.285156 33.703125 C 194.859375 33.628906 194.433594 33.597656 194.003906 33.601562 C 193.574219 33.605469 193.148438 33.648438 192.726562 33.730469 C 192.726562 33.730469 191.863281 32.324219 189.035156 31.082031 C 186.207031 29.84375 183.835938 30.535156 182.039062 31.078125 Z M 182.039062 31.078125 " fill-opacity="1" fill-rule="nonzero"/><g mask="url(#c927837aa0)"><g transform="matrix(1, 0, 0, 1, 152, 30)"><g clip-path="url(#f9c52cf9fb)"><g clip-path="url(#23746214f0)"><path fill="#ffffff" d="M 46.296875 4.945312 C 44.832031 4.457031 43.332031 4.304688 41.800781 4.484375 C 40.460938 4.667969 40.09375 5.847656 40.238281 7.183594 C 40.386719 8.519531 40.757812 10.53125 39.519531 11.75 C 39.519531 11.75 35.488281 15.570312 33.953125 16.414062 C 32.414062 17.253906 32.6875 15.503906 32.6875 15.503906 C 33.621094 14.71875 34.625 14.039062 35.699219 13.460938 C 37.519531 12.476562 39.105469 9.945312 39.007812 8.425781 C 38.90625 6.90625 37.929688 4.253906 34.257812 4.503906 C 30.585938 4.753906 26.816406 7.679688 23.390625 11.75 C 19.964844 15.824219 18.675781 21.425781 18.625 25.050781 C 18.578125 28.671875 20.910156 29.867188 20.664062 31.003906 C 20.414062 32.140625 18.234375 34.035156 14.859375 35.769531 C 13.847656 36.289062 12.785156 36.628906 11.660156 36.789062 C 10.539062 36.953125 9.421875 36.925781 8.308594 36.714844 C 8.226562 37.074219 8.222656 37.4375 8.296875 37.800781 C 8.371094 38.164062 8.519531 38.496094 8.738281 38.796875 C 8.957031 39.09375 9.226562 39.335938 9.550781 39.519531 C 9.875 39.699219 10.222656 39.808594 10.589844 39.839844 L 9 40.878906 C 7.410156 41.921875 4.585938 44.902344 6.519531 47.832031 C 8.453125 50.761719 13.070312 50.3125 14.414062 49.867188 C 11.976562 51.949219 8.058594 51.707031 5.175781 49.867188 C 4.78125 49.636719 4.4375 49.347656 4.144531 48.992188 C 3.851562 48.640625 3.632812 48.246094 3.480469 47.816406 C 3.332031 47.382812 3.257812 46.9375 3.269531 46.480469 C 3.277344 46.023438 3.367188 45.578125 3.535156 45.152344 C 2.542969 45.054688 0.5625 42.96875 1.703125 40.585938 C 2.363281 39.167969 3.324219 37.992188 4.582031 37.058594 C 3.132812 36.242188 2.007812 35.101562 1.207031 33.636719 C 0.957031 33.066406 0.796875 32.46875 0.730469 31.847656 C 0.660156 31.226562 0.691406 30.609375 0.820312 30 C 0.945312 29.386719 1.164062 28.808594 1.472656 28.265625 C 1.78125 27.722656 2.164062 27.238281 2.621094 26.8125 C 4.582031 24.976562 3.664062 26.117188 3.988281 28.226562 C 4.3125 30.339844 8.054688 30.859375 10.933594 29.464844 C 13.8125 28.074219 12.320312 25.398438 11.777344 22.417969 C 11.230469 19.4375 13.363281 14.035156 15.847656 10.957031 C 17.660156 8.632812 19.777344 6.628906 22.199219 4.945312 C 24.617188 3.261719 27.230469 1.972656 30.039062 1.078125 C 31.832031 0.53125 34.207031 -0.160156 37.035156 1.078125 C 39.867188 2.316406 40.726562 3.726562 40.726562 3.726562 C 41.699219 3.550781 42.667969 3.566406 43.632812 3.777344 C 44.601562 3.988281 45.488281 4.378906 46.296875 4.945312 Z M 46.296875 4.945312 " fill-opacity="1" fill-rule="nonzero"/></g></g></g></g><g mask="url(#0925694d05)"><g transform="matrix(1, 0, 0, 1, 204, 52)"><g clip-path="url(#24a73d77ce)"><g clip-path="url(#6e2d26432b)"><path fill="#ffffff" d="M 12.449219 12.367188 C 11.238281 9.648438 8.117188 7.910156 5.484375 6.675781 C 2.855469 5.4375 1.695312 4.390625 1.066406 3.664062 C 2.707031 4.605469 4.429688 5.375 6.226562 5.964844 C 8.507812 6.605469 11.164062 8.359375 11.882812 10.101562 C 11.847656 9.882812 11.246094 6.394531 9.765625 4.984375 C 8.246094 3.527344 4.320312 1.613281 3.386719 0.855469 C 5.226562 1.414062 7.023438 2.082031 8.777344 2.859375 C 9.957031 3.558594 10.972656 4.449219 11.816406 5.527344 C 13.871094 8.484375 12.449219 12.367188 12.449219 12.367188 Z M 12.449219 12.367188 " fill-opacity="1" fill-rule="nonzero"/></g></g></g></g><path fill="#ffc2a1" d="M 184.488281 65.058594 C 177.992188 64.683594 178.664062 65.71875 178.796875 69.425781 C 178.929688 73.128906 181.011719 79.878906 178.714844 82.925781 C 176.414062 85.96875 172.441406 88.617188 165.957031 89.277344 C 159.472656 89.9375 154.3125 94.042969 153.914062 99.996094 C 153.519531 105.953125 155.238281 121.304688 155.238281 128.980469 C 155.238281 136.65625 155.933594 146.714844 151.664062 152.273438 C 147.398438 157.832031 144.519531 167.953125 141.941406 172.917969 C 139.359375 177.878906 134.664062 187.078125 132.082031 190.449219 C 129.5 193.820312 125.792969 196.933594 123.480469 198.984375 C 121.164062 201.039062 121.957031 202.824219 121.164062 204.941406 C 120.371094 207.058594 121.558594 209.375 120.699219 210.894531 C 119.84375 212.417969 122.386719 213.210938 123.875 213.542969 C 125.367188 213.875 127.121094 214.105469 130.03125 211.789062 C 132.941406 209.472656 133.570312 206.230469 134.101562 203.75 C 134.632812 201.269531 134.863281 197.597656 136.914062 193.824219 C 138.964844 190.054688 146.601562 179.265625 152.511719 172.914062 C 158.417969 166.5625 164.375 154.253906 164.773438 148.828125 C 165.167969 143.402344 165.964844 133.210938 165.964844 126.992188 C 165.964844 120.773438 165.167969 117.332031 169.667969 117.726562 C 174.167969 118.125 201.558594 116.539062 204.601562 116.40625 C 207.648438 116.277344 207.648438 120.507812 207.648438 123.289062 C 207.648438 126.070312 208.175781 133.742188 208.308594 140.625 C 208.441406 147.507812 211.484375 153.726562 214.527344 158.492188 C 217.570312 163.253906 225.414062 176.589844 227.5 180.855469 C 229.582031 185.125 231.765625 188.308594 231.171875 192.820312 C 230.78125 196.796875 231.144531 200.699219 232.261719 204.53125 C 232.90625 206.566406 233.007812 208.601562 232.558594 209.789062 C 232.113281 210.980469 233.652344 210.980469 233.652344 210.980469 C 232.808594 211.65625 232.011719 212.382812 231.269531 213.164062 C 230.722656 213.859375 232.410156 214.902344 234.546875 212.820312 C 236.679688 210.734375 238.167969 211.378906 240.203125 209.046875 C 242.238281 206.714844 243.230469 206.464844 242.238281 203.636719 C 241.246094 200.808594 239.410156 196.898438 237.96875 192.824219 C 236.53125 188.75 234.445312 183.636719 232.460938 178.078125 C 230.476562 172.519531 223.429688 155.449219 221.046875 149.195312 C 218.664062 142.941406 217.96875 136.390625 218.269531 129.839844 C 218.566406 123.289062 218.566406 107.109375 219.0625 101.949219 C 219.558594 96.789062 219.558594 90.039062 214.097656 88.25 C 208.640625 86.464844 204.074219 88.75 198.417969 85.769531 C 192.757812 82.792969 192.164062 79.417969 192.164062 74.058594 C 192.164062 68.699219 192.410156 67.058594 192.164062 65.96875 C 191.914062 64.875 186.4375 65.171875 184.488281 65.058594 Z M 184.488281 65.058594 " fill-opacity="1" fill-rule="nonzero"/><g mask="url(#98f566099f)"><g transform="matrix(1, 0, 0, 1, 178, 64)"><g clip-path="url(#9804215b37)"><g clip-path="url(#83eeafe282)"><path fill="#000000" d="M 14.160156 9.769531 C 12.417969 11.789062 10.273438 13.875 8.273438 14.824219 C 7.761719 15.09375 7.226562 15.285156 6.660156 15.398438 C 6.09375 15.511719 5.519531 15.546875 4.945312 15.496094 C 4.371094 15.445312 3.8125 15.3125 3.273438 15.101562 C 2.738281 14.890625 2.238281 14.609375 1.785156 14.257812 C 1.71875 11.222656 0.878906 7.738281 0.796875 5.425781 C 0.667969 1.722656 -0.0078125 0.6875 6.488281 1.058594 C 8.441406 1.171875 13.917969 0.878906 14.164062 1.96875 C 14.40625 3.039062 14.171875 4.636719 14.160156 9.769531 Z M 14.160156 9.769531 " fill-opacity="1" fill-rule="nonzero"/></g></g></g></g><g mask="url(#0b8e9c7e60)"><g transform="matrix(1, 0, 0, 1, 169, 89)"><g clip-path="url(#5f52575107)"><g clip-path="url(#597c67a95f)"><path fill="#000000" d="M 0.78125 0.953125 C 4.15625 1.164062 7.53125 1.398438 10.914062 1.273438 C 12.007812 1.304688 13.304688 1.195312 14.191406 1.945312 C 9.902344 1.390625 4.949219 2.660156 0.78125 0.953125 Z M 0.78125 0.953125 " fill-opacity="1" fill-rule="nonzero"/></g></g></g></g><g mask="url(#10f6618252)"><g transform="matrix(1, 0, 0, 1, 187, 88)"><g clip-path="url(#63fe44ec9e)"><g clip-path="url(#25bdcea5ae)"><path fill="#000000" d="M 14.054688 0.882812 C 10.375 2.105469 3.929688 1.1875 1.234375 3.292969 C 2.765625 0.585938 11.144531 0.964844 14.054688 0.882812 Z M 14.054688 0.882812 " fill-opacity="1" fill-rule="nonzero"/></g></g></g></g><path fill="#ffc2a1" d="M 182.238281 45.816406 C 179.359375 49.179688 179.359375 53.210938 178.265625 55.890625 C 177.175781 58.570312 176.132812 60.707031 174.742188 61.101562 C 174.742188 61.101562 174.707031 63.671875 176.828125 67.40625 C 178.949219 71.144531 181.46875 73.808594 185.128906 74.15625 C 188.789062 74.503906 192.410156 71.230469 194.148438 68.800781 C 195.886719 66.371094 196.28125 61.554688 196.429688 57.835938 C 196.582031 54.113281 196.183594 52.375 195.089844 51.183594 C 194 49.992188 191.519531 44.429688 191.519531 41.75 C 190.414062 42.699219 189.140625 43.269531 187.695312 43.460938 C 187.695312 43.460938 188.886719 42.296875 188.914062 41.75 C 187.480469 42.09375 186.117188 42.617188 184.816406 43.3125 C 183.839844 44.023438 182.976562 44.859375 182.238281 45.816406 Z M 182.238281 45.816406 " fill-opacity="1" fill-rule="nonzero"/><g mask="url(#1df38d581b)"><g transform="matrix(1, 0, 0, 1, 161, 105)"><g clip-path="url(#5d71b1375d)"><g clip-path="url(#bb118e811a)"><path fill="#000000" d="M 4.363281 9.355469 C 4.234375 9.09375 2.082031 2.160156 0.890625 0.570312 C 0.890625 0.570312 2.28125 6.777344 2.628906 10 C 2.972656 13.226562 5.554688 11.738281 5.554688 11.738281 Z M 4.363281 9.355469 " fill-opacity="1" fill-rule="nonzero"/></g></g></g></g><g mask="url(#be746e6400)"><g transform="matrix(1, 0, 0, 1, 207, 104)"><g clip-path="url(#2c79fb64c4)"><g clip-path="url(#91c1f5af01)"><path fill="#000000" d="M 2.101562 0.628906 C 1.839844 2.285156 0.78125 7.90625 0.910156 10.222656 C 1.042969 12.539062 3.09375 13.53125 2.699219 11.082031 C 2.386719 8.546875 2.234375 6 2.238281 3.441406 C 2.234375 2.382812 2.101562 0.628906 2.101562 0.628906 Z M 2.101562 0.628906 " fill-opacity="1" fill-rule="nonzero"/></g></g></g></g><path fill="#ffc2a1" d="M 198.898438 256.488281 C 198.703125 254.441406 199.96875 249.339844 198.8125 247.683594 C 197.921875 246.398438 194.957031 248.777344 193.414062 248.707031 C 192.9375 248.695312 192.460938 248.707031 191.984375 248.75 C 190.007812 248.914062 188.03125 248.898438 186.058594 248.699219 C 183.476562 248.351562 180.839844 249.898438 181.195312 251.777344 C 181.550781 253.652344 182.1875 255.050781 182.4375 262.050781 C 182.4375 262.0625 182.4375 262.074219 182.4375 262.085938 C 182.449219 263.621094 182.738281 265.292969 182.832031 266.417969 C 183.027344 268.800781 185.3125 291.230469 185.113281 296.789062 C 184.914062 302.347656 184.519531 309.894531 184.617188 314.160156 C 184.714844 318.429688 184.8125 318.925781 186.304688 321.109375 C 187.796875 323.292969 188.683594 316.839844 189.578125 311.679688 C 190.988281 304.273438 192.773438 296.964844 194.9375 289.742188 C 196.925781 283.390625 199.804688 273.863281 199.804688 269.199219 C 199.75 265.984375 199.535156 262.78125 199.15625 259.589844 C 199.054688 258.59375 199 257.542969 198.898438 256.488281 Z M 198.898438 256.488281 " fill-opacity="1" fill-rule="nonzero"/><path fill="#19344f" d="M 124.007812 226.515625 C 115.929688 226.183594 109.054688 226.121094 106.738281 225.921875 C 104.421875 225.71875 104.621094 226.449219 103.429688 230.75 C 102.238281 235.050781 97.007812 261.121094 95.222656 269.0625 C 93.4375 277.003906 89.761719 277.601562 97.40625 280.777344 C 105.050781 283.953125 105.347656 287.226562 110.015625 286.632812 C 114.679688 286.035156 127.480469 286.375 135.027344 286.703125 C 142.570312 287.027344 147.136719 287.03125 148.722656 287.328125 C 150.3125 287.621094 148.722656 278.394531 148.722656 273.035156 C 148.722656 267.671875 149.242188 240.179688 149.429688 234.816406 C 149.617188 229.453125 150.832031 228.828125 149.429688 228.628906 C 148.027344 228.429688 146.078125 227.503906 144.753906 226.875 C 143.429688 226.246094 140.253906 226.84375 137.738281 226.710938 C 135.222656 226.578125 129.09375 226.726562 124.007812 226.515625 Z M 124.007812 226.515625 " fill-opacity="1" fill-rule="nonzero"/><g mask="url(#85f4d61351)"><g transform="matrix(1, 0, 0, 1, 92, 225)"><g clip-path="url(#2791dd51ae)"><g clip-path="url(#5343236c8e)"><path fill="#ffffff" d="M 32.007812 1.515625 C 23.929688 1.183594 17.054688 1.121094 14.738281 0.921875 C 12.421875 0.71875 12.621094 1.449219 11.429688 5.75 C 10.238281 10.050781 5.007812 36.121094 3.222656 44.0625 C 1.4375 52.003906 -2.238281 52.601562 5.40625 55.777344 C 13.050781 58.953125 13.347656 62.226562 18.015625 61.632812 C 22.679688 61.035156 35.480469 61.375 43.027344 61.703125 C 50.570312 62.027344 55.136719 62.03125 56.722656 62.328125 C 58.3125 62.621094 56.722656 53.394531 56.722656 48.035156 C 56.722656 42.671875 57.242188 15.179688 57.429688 9.816406 C 57.617188 4.453125 58.832031 3.828125 57.429688 3.628906 C 56.027344 3.429688 54.078125 2.503906 52.753906 1.875 C 51.429688 1.246094 48.253906 1.84375 45.738281 1.710938 C 43.222656 1.578125 37.09375 1.726562 32.007812 1.515625 Z M 32.007812 1.515625 " fill-opacity="1" fill-rule="nonzero"/></g></g></g></g><path fill="#19344f" d="M 113.902344 229.941406 L 113.066406 229.578125 C 113.066406 229.578125 119.496094 214.914062 121.894531 209.429688 C 121.949219 209.320312 122.035156 209.242188 122.148438 209.199219 C 122.261719 209.15625 122.375 209.160156 122.488281 209.210938 C 122.601562 209.257812 122.679688 209.339844 122.726562 209.453125 C 122.773438 209.566406 122.773438 209.679688 122.730469 209.792969 C 120.332031 215.277344 113.902344 229.941406 113.902344 229.941406 Z M 113.902344 229.941406 " fill-opacity="1" fill-rule="nonzero"/><g mask="url(#594dd1c625)"><g transform="matrix(1, 0, 0, 1, 94, 229)"><g clip-path="url(#383628ffc9)"><g clip-path="url(#2871c61042)"><path fill="#000000" d="M 43.988281 51.585938 L 39.84375 49.75 C 39.859375 49.71875 39.871094 49.683594 39.882812 49.644531 C 39.910156 49.570312 39.9375 49.492188 39.957031 49.414062 C 40.003906 49.273438 40.046875 49.136719 40.09375 48.996094 C 40.28125 48.417969 40.472656 47.835938 40.628906 47.253906 L 41.125 45.496094 L 41.582031 43.742188 C 42.796875 39.046875 43.835938 34.316406 44.890625 29.589844 C 45.882812 24.847656 46.878906 20.109375 47.792969 15.355469 L 49.136719 8.214844 L 50.378906 1.058594 L 50.332031 1.050781 C 48.433594 10.542969 46.496094 20.027344 44.449219 29.492188 C 43.425781 34.21875 42.390625 38.953125 41.242188 43.652344 L 40.8125 45.417969 L 40.339844 47.171875 C 40.195312 47.757812 40.011719 48.335938 39.835938 48.914062 C 39.785156 49.074219 39.738281 49.242188 39.6875 49.402344 L 39.011719 49.382812 L 38.339844 49.359375 L 34.203125 49.222656 C 30.511719 49.109375 26.8125 49.0625 23.113281 48.980469 C 19.414062 48.960938 15.722656 48.914062 12.023438 48.921875 L 6.472656 48.957031 L 0.925781 49.074219 L 0.925781 49.121094 L 23.105469 49.441406 L 38.878906 49.636719 L 38.882812 49.636719 L 39.5 49.957031 L 39.730469 50.074219 L 40 50.210938 C 41.253906 50.835938 42.535156 51.402344 43.800781 52 C 45.09375 52.546875 46.371094 53.117188 47.675781 53.636719 L 49.640625 54.390625 C 50.304688 54.617188 50.960938 54.867188 51.636719 55.078125 L 51.65625 55.03125 Z M 39.605469 49.640625 L 39.613281 49.640625 L 39.609375 49.644531 Z M 39.605469 49.640625 " fill-opacity="1" fill-rule="nonzero"/></g></g></g></g><g mask="url(#a57c615ae6)"><g transform="matrix(1, 0, 0, 1, 122, 200)"><g clip-path="url(#a31a852cb7)"><g clip-path="url(#8193c95668)"><path fill="#000000" d="M 1.082031 9.609375 C 1.90625 8.75 2.601562 5.734375 3 4.183594 C 3.394531 2.632812 5.414062 1.503906 6.339844 1.105469 C 6.339844 1.105469 4.355469 2.429688 4.089844 4.117188 C 3.828125 5.804688 4.550781 6.101562 5.976562 6.332031 C 6.402344 6.421875 6.769531 6.625 7.070312 6.9375 C 7.371094 7.253906 7.558594 7.625 7.632812 8.054688 C 7.203125 7.667969 6.714844 7.378906 6.167969 7.195312 C 5.621094 7.011719 5.058594 6.945312 4.484375 6.996094 C 3.855469 7.066406 3.285156 7.289062 2.777344 7.667969 C 2.269531 8.046875 1.890625 8.527344 1.644531 9.113281 C 1.503906 9.332031 1.316406 9.496094 1.082031 9.609375 Z M 1.082031 9.609375 " fill-opacity="1" fill-rule="nonzero"/></g></g></g></g><g mask="url(#2761086cf3)"><g transform="matrix(1, 0, 0, 1, 233, 201)"><g clip-path="url(#80b1244780)"><g clip-path="url(#bdd4f0e0dd)"><path fill="#000000" d="M 0.652344 9.980469 C 1.332031 9.699219 2.636719 7.914062 2.703125 6.195312 C 2.769531 4.472656 2.109375 3.148438 2.042969 1.792969 C 1.976562 0.4375 2.636719 1.296875 3.761719 2.15625 C 4.886719 3.019531 4.089844 4.042969 4.390625 4.835938 C 4.691406 5.632812 3.300781 7.1875 2.96875 8.046875 C 2.636719 8.90625 1.480469 9.570312 1.179688 9.785156 C 1.027344 9.910156 0.851562 9.976562 0.652344 9.980469 Z M 0.652344 9.980469 " fill-opacity="1" fill-rule="nonzero"/></g></g></g></g><g mask="url(#6c8f89d7a5)"><g transform="matrix(1, 0, 0, 1, 180, 246)"><g clip-path="url(#b0eeed75ed)"><g clip-path="url(#94dea25191)"><path fill="#000000" d="M 18.898438 10.488281 C 18.984375 11.402344 19.039062 12.316406 19.121094 13.191406 C 15.890625 15.101562 13.054688 16.5625 10.707031 17.171875 C 7.664062 17.96875 6.011719 17.9375 6.074219 19.65625 C 6.136719 21.375 6.40625 26.105469 6.507812 30.9375 C 6.605469 35.769531 6.804688 49.925781 6.804688 54.164062 C 6.804688 58.398438 6.867188 65.28125 6.671875 68.988281 C 6.5625 70.730469 6.21875 72.421875 5.632812 74.066406 C 4.78125 72.621094 4.703125 71.664062 4.621094 68.160156 C 4.519531 63.890625 4.917969 56.34375 5.117188 50.789062 C 5.3125 45.238281 3.03125 22.800781 2.832031 20.414062 C 2.742188 19.292969 2.453125 17.621094 2.4375 16.082031 C 2.4375 16.066406 2.433594 16.058594 2.433594 16.046875 C 2.1875 9.046875 1.550781 7.652344 1.191406 5.773438 C 0.832031 3.894531 3.476562 2.347656 6.058594 2.699219 C 8.03125 2.894531 10.007812 2.914062 11.980469 2.746094 C 12.457031 2.707031 12.933594 2.691406 13.410156 2.703125 C 14.953125 2.769531 17.917969 0.394531 18.808594 1.679688 C 19.96875 3.34375 18.707031 8.441406 18.898438 10.488281 Z M 18.898438 10.488281 " fill-opacity="1" fill-rule="nonzero"/></g></g></g></g><path fill="#ffc2a1" d="M 180.515625 249.875 C 174.695312 249.546875 170.65625 249.144531 170.261719 250.667969 C 169.4375 254.441406 168.953125 258.257812 168.804688 262.113281 C 168.738281 266.285156 168.609375 272.238281 170.394531 279.386719 C 172.179688 286.53125 175.089844 295.199219 176.746094 301.089844 C 178.398438 306.976562 180.914062 316.585938 181.3125 321.542969 C 181.589844 324.953125 181.457031 328.347656 180.917969 331.726562 C 180.65625 333.710938 180.65625 343.570312 180.253906 345.753906 C 179.855469 347.9375 181.777344 355.351562 186.808594 355.21875 C 191.835938 355.085938 192.363281 346.746094 191.835938 344.101562 C 191.304688 341.453125 190.84375 331.328125 190.511719 327.953125 C 190.179688 324.582031 188.660156 322.265625 187.800781 317.433594 C 186.9375 312.601562 185.316406 295.699219 185.515625 291.128906 C 185.714844 286.5625 184.921875 272.273438 185.121094 268.796875 C 185.324219 265.324219 185.023438 258.871094 184.925781 256.589844 C 184.828125 254.304688 184.75 251.128906 183.933594 250.585938 C 183.113281 250.039062 180.515625 249.875 180.515625 249.875 Z M 180.515625 249.875 " fill-opacity="1" fill-rule="nonzero"/><g mask="url(#f0bf2c2b0d)"><g transform="matrix(1, 0, 0, 1, 168, 248)"><g clip-path="url(#25b130e635)"><g clip-path="url(#f8b759fba2)"><path fill="#000000" d="M 17.289062 30.777344 C 17.15625 27.507812 15.886719 15.78125 15.558594 12.257812 C 15.230469 8.6875 14.503906 8.753906 10.398438 7.894531 C 7.460938 7.296875 4.492188 6.9375 1.496094 6.816406 C 1.777344 4.925781 2.082031 3.359375 2.261719 2.664062 C 2.65625 1.144531 6.691406 1.539062 12.515625 1.871094 C 12.515625 1.871094 15.105469 2.035156 15.921875 2.582031 C 16.742188 3.128906 16.820312 6.304688 16.917969 8.585938 C 17.019531 10.871094 17.3125 17.320312 17.117188 20.796875 C 17.023438 22.4375 17.148438 26.480469 17.289062 30.777344 Z M 17.289062 30.777344 " fill-opacity="1" fill-rule="nonzero"/></g></g></g></g><path fill="#6a858a" d="M 191.996094 339.472656 C 191.976562 337.238281 190.777344 331.484375 190.777344 331.484375 C 190.136719 333.570312 190.328125 339.273438 190.773438 341.207031 C 191.058594 342.972656 191.15625 344.746094 191.070312 346.527344 C 191.050781 347.21875 190.441406 347.574219 188.796875 347.445312 C 186.894531 347.4375 185.007812 347.59375 183.136719 347.90625 C 182.941406 347.953125 182.746094 347.953125 182.550781 347.914062 C 182.355469 347.878906 182.179688 347.800781 182.015625 347.6875 C 181.855469 347.570312 181.722656 347.429688 181.621094 347.257812 C 181.519531 347.085938 181.457031 346.902344 181.433594 346.707031 C 181.472656 345.289062 181.648438 343.980469 181.695312 342.84375 C 181.734375 341.855469 181.347656 338.03125 181.746094 334.257812 C 182.144531 330.484375 181.457031 325.078125 181.457031 325.078125 C 179.78125 326.914062 179.710938 330.386719 179.960938 333.066406 C 180.207031 335.746094 179.761719 338.425781 179.660156 341.40625 C 179.5625 344.386719 176.933594 347.957031 178.519531 350.6875 C 180.109375 353.414062 183.679688 356.195312 187.652344 355.898438 C 191.621094 355.601562 193.109375 355.300781 193.226562 350.835938 C 193.339844 346.371094 192.015625 341.703125 191.996094 339.472656 Z M 191.996094 339.472656 " fill-opacity="1" fill-rule="nonzero"/><path fill="#6a858a" d="M 180.980469 107.738281 C 176.511719 104.988281 171.597656 103.929688 167.347656 107.738281 C 163.101562 111.546875 161.261719 113.296875 162.914062 119.253906 C 164.570312 125.210938 166.089844 128.980469 167.019531 131.957031 C 167.945312 134.9375 170.722656 139.898438 169.332031 142.148438 C 167.945312 144.398438 162.386719 151.941406 159.605469 155.648438 C 156.828125 159.351562 151.136719 169.210938 152.0625 185.09375 C 152.992188 200.972656 159.34375 211.5625 162.253906 221.355469 C 165.164062 231.148438 166.953125 237.699219 167.347656 243.523438 C 167.746094 249.34375 167.777344 250.933594 167.675781 252.386719 C 167.574219 253.839844 168.289062 253.710938 171.367188 253.363281 C 174.445312 253.015625 183.292969 255.035156 187.660156 255.628906 C 191.132812 256.09375 194.585938 255.976562 198.015625 255.273438 C 199.578125 254.851562 200.101562 254.652344 199.902344 252.570312 C 199.703125 250.484375 201.589844 238.425781 203.871094 229.890625 C 206.15625 221.351562 209.761719 207.984375 212.015625 199.382812 C 214.269531 190.78125 215.851562 173.839844 210.824219 164.3125 C 205.792969 154.785156 201.828125 146.582031 201.828125 141.550781 C 201.828125 136.523438 205.335938 132.15625 206.0625 128.714844 C 206.789062 125.273438 207.691406 123.15625 208.828125 121.699219 C 209.96875 120.246094 210.5625 117.070312 210.296875 113.492188 C 210.03125 109.917969 208.578125 107.105469 203.613281 105.203125 C 198.652344 103.300781 193.292969 106.476562 191.371094 108.332031 C 189.949219 109.738281 188.429688 111.03125 186.808594 112.203125 C 186.113281 112.632812 185.515625 111.640625 184.191406 110.449219 C 183.207031 109.445312 182.136719 108.539062 180.980469 107.738281 Z M 180.980469 107.738281 " fill-opacity="1" fill-rule="nonzero"/><g mask="url(#e41de7d713)"><g transform="matrix(1, 0, 0, 1, 151, 116)"><g clip-path="url(#7625961d79)"><g clip-path="url(#65890b4f38)"><path fill="#ffffff" d="M 4.308594 61.21875 C 3.179688 69.753906 5.5625 79.347656 7.679688 86.300781 C 9.792969 93.25 13.835938 104.804688 15.421875 110.636719 C 16.742188 115.308594 17.691406 120.054688 18.269531 124.875 C 18.6875 128.566406 19.558594 134.066406 19.5 137.464844 C 17.15625 137.71875 16.589844 137.695312 16.683594 136.390625 C 16.777344 134.933594 16.746094 133.34375 16.351562 127.519531 C 15.960938 121.695312 14.167969 115.144531 11.257812 105.355469 C 8.347656 95.566406 1.988281 84.976562 1.066406 69.09375 C 0.140625 53.210938 5.828125 43.351562 8.605469 39.648438 C 11.386719 35.941406 16.945312 28.394531 18.332031 26.148438 C 19.71875 23.902344 16.945312 18.933594 16.019531 15.957031 C 15.089844 12.984375 13.570312 9.207031 11.914062 3.253906 C 11.746094 2.636719 11.609375 2.070312 11.519531 1.535156 C 11.988281 3.3125 12.761719 4.941406 13.835938 6.429688 C 16.21875 9.339844 16.949219 10.398438 17.941406 13.839844 C 18.933594 17.277344 20.054688 20.589844 20.519531 22.242188 C 20.984375 23.898438 21.78125 27.601562 20.519531 29.253906 C 19.257812 30.90625 15.027344 36.003906 11.785156 40.898438 C 9.789062 43.960938 8.15625 47.207031 6.894531 50.636719 C 5.632812 54.066406 4.769531 57.59375 4.308594 61.21875 Z M 4.308594 61.21875 " fill-opacity="1" fill-rule="nonzero"/></g></g></g></g><path fill="#19344f" d="M 131.550781 231.402344 C 131.441406 231.402344 131.34375 231.367188 131.257812 231.296875 C 131.175781 231.226562 131.121094 231.140625 131.101562 231.03125 C 130.433594 227.34375 130.339844 221.488281 130.269531 216.785156 C 130.214844 213.304688 130.164062 210.019531 129.875 209.277344 C 129.707031 208.886719 129.441406 208.578125 129.085938 208.34375 C 128.984375 208.273438 128.925781 208.171875 128.902344 208.050781 C 128.882812 207.925781 128.910156 207.8125 128.980469 207.710938 C 129.054688 207.609375 129.152344 207.546875 129.277344 207.527344 C 129.402344 207.507812 129.515625 207.53125 129.617188 207.605469 C 130.121094 207.941406 130.492188 208.390625 130.726562 208.949219 C 131.054688 209.800781 131.109375 212.347656 131.179688 216.769531 C 131.25 221.441406 131.339844 227.253906 132 230.867188 C 132.019531 230.992188 131.996094 231.101562 131.925781 231.207031 C 131.851562 231.308594 131.753906 231.371094 131.632812 231.394531 C 131.605469 231.398438 131.578125 231.402344 131.550781 231.402344 Z M 131.550781 231.402344 " fill-opacity="1" fill-rule="nonzero"/><path fill="#ffc2a1" d="M 130.480469 211.40625 C 130.480469 211.410156 130.480469 211.410156 130.472656 211.414062 C 130.332031 211.542969 130.183594 211.671875 130.027344 211.792969 C 127.117188 214.109375 125.367188 213.875 123.871094 213.542969 C 122.886719 213.324219 121.449219 212.90625 120.824219 212.210938 L 120.828125 212.207031 C 120.617188 211.894531 121.136719 210.128906 122.140625 208.933594 C 123.144531 207.734375 123.511719 206.730469 125.003906 206.796875 C 126.496094 206.867188 127.796875 206.878906 128.675781 206.910156 C 129.089844 206.882812 129.480469 206.972656 129.835938 207.1875 C 130.195312 207.40625 130.457031 207.703125 130.625 208.085938 C 130.945312 208.601562 131.089844 209.164062 131.0625 209.769531 C 131.035156 210.375 130.839844 210.921875 130.480469 211.40625 Z M 130.480469 211.40625 " fill-opacity="1" fill-rule="nonzero"/></svg>