<svg xmlns="http://www.w3.org/2000/svg" xmlns:xlink="http://www.w3.org/1999/xlink" width="500" zoomAndPan="magnify" viewBox="0 0 375 374.999991" height="500" preserveAspectRatio="xMidYMid meet" version="1.0"><defs><clipPath id="28ccb6d4f4"><path d="M 141.210938 47 L 212 47 L 212 337 L 141.210938 337 Z M 141.210938 47 " clip-rule="nonzero"/></clipPath><clipPath id="81985dd12f"><path d="M 147 37.5 L 205 37.5 L 205 94 L 147 94 Z M 147 37.5 " clip-rule="nonzero"/></clipPath><clipPath id="84d4f3a7bd"><path d="M 141.210938 103 L 212.460938 103 L 212.460938 146 L 141.210938 146 Z M 141.210938 103 " clip-rule="nonzero"/></clipPath><clipPath id="4d1bd7bd8f"><path d="M 141.210938 291 L 191 291 L 191 348 L 141.210938 348 Z M 141.210938 291 " clip-rule="nonzero"/></clipPath></defs><rect x="-37.5" width="450" fill="#ffffff" y="-37.499999" height="449.999989" fill-opacity="1"/><rect x="-37.5" width="450" fill="#ffffff" y="-37.499999" height="449.999989" fill-opacity="1"/><g clip-path="url(#28ccb6d4f4)"><path fill="#f1c095" d="M 180.609375 47.101562 C 179.949219 47.101562 179.304688 47.160156 178.667969 47.273438 L 178.265625 47.117188 C 175.550781 48.285156 172.898438 51.554688 170.308594 56.921875 C 168.628906 60.691406 168.054688 63.847656 168.578125 66.386719 C 169.234375 69.320312 170.828125 71.683594 173.355469 73.480469 C 174.515625 74.269531 175.890625 74.882812 177.480469 75.3125 C 179.496094 75.761719 180.789062 75.988281 181.363281 75.988281 C 181.378906 75.988281 181.390625 75.988281 181.40625 75.988281 L 181.410156 75.988281 C 181.398438 76.496094 180.851562 77.054688 179.765625 77.667969 C 179.734375 77.695312 179.695312 77.726562 179.652344 77.753906 L 179.648438 77.757812 C 177.484375 77.851562 175.667969 77.976562 174.195312 78.132812 C 172.929688 78.226562 171.890625 79.019531 171.074219 80.511719 C 171.027344 80.59375 170.976562 80.683594 170.925781 80.769531 L 170.925781 80.773438 C 170.894531 80.769531 170.859375 80.769531 170.824219 80.769531 L 170.816406 80.769531 C 170.339844 80.789062 169.628906 81.054688 168.679688 81.558594 L 160.84375 87.148438 C 154.296875 90.675781 150.683594 92.695312 149.996094 93.207031 C 147.386719 94.875 145.847656 96.035156 145.386719 96.683594 C 143.972656 98.632812 143.027344 100.777344 142.554688 103.113281 C 142.324219 103.59375 142.0625 105.660156 141.769531 109.304688 C 141.699219 110.835938 141.707031 112.46875 141.78125 114.203125 L 165.886719 112.097656 L 165.796875 112.828125 C 166.242188 114.027344 167.179688 115.078125 168.605469 115.984375 C 169.316406 116.4375 170.152344 116.851562 171.113281 117.230469 L 172.640625 117.769531 C 177.378906 119.316406 182.121094 120.089844 186.867188 120.089844 C 187.425781 120.089844 187.984375 120.078125 188.542969 120.054688 C 193.136719 119.960938 196.820312 119.675781 199.597656 119.195312 C 203.238281 118.304688 206.128906 117.0625 208.265625 115.46875 C 208.902344 114.890625 209.484375 113.21875 210.007812 110.460938 C 210.71875 106.496094 211.011719 103.515625 210.894531 101.519531 C 210.828125 99.226562 210.441406 97.328125 209.734375 95.820312 L 209.148438 94.761719 C 208.757812 94.1875 208.207031 93.550781 207.496094 92.847656 C 206.324219 91.648438 204.917969 90.683594 203.273438 89.957031 C 202.6875 89.640625 200.054688 89.089844 195.367188 88.308594 C 194.816406 88.210938 193.851562 87.699219 192.46875 86.777344 C 191.945312 86.351562 191.574219 85.867188 191.355469 85.320312 L 190.203125 80.320312 C 190.121094 79.941406 189.941406 79.546875 189.664062 79.128906 C 189.304688 78.398438 188.683594 77.921875 187.804688 77.707031 L 187.800781 77.707031 L 189.851562 73.628906 C 190.554688 72.09375 191.050781 70.863281 191.339844 69.9375 C 192.09375 67.882812 192.261719 65.574219 191.839844 63.011719 C 191.273438 59.703125 190.359375 56.457031 189.101562 53.269531 C 188.503906 51.667969 187.535156 50.105469 186.191406 48.589844 C 186.1875 48.582031 186.179688 48.578125 186.167969 48.574219 C 185.148438 48.039062 184.394531 47.699219 183.90625 47.550781 C 182.777344 47.253906 181.679688 47.101562 180.609375 47.101562 Z M 202.25 125.007812 L 202.066406 127.335938 C 201.785156 131.472656 201.703125 135.898438 201.824219 140.617188 C 200.320312 136.085938 199.285156 133.523438 198.722656 132.925781 L 198.433594 132.757812 C 198.027344 132.117188 197.546875 131.519531 196.992188 130.964844 L 196.105469 130.167969 C 195.480469 129.660156 194.777344 129.195312 194.003906 128.773438 C 192.457031 127.933594 190.617188 127.265625 188.484375 126.777344 L 161.417969 141.589844 C 162.640625 146.257812 163.488281 148.96875 163.957031 149.722656 C 164.304688 150.492188 165.808594 151.125 168.46875 151.621094 C 171.777344 151.9375 174.820312 152.09375 177.597656 152.09375 C 177.898438 152.09375 178.195312 152.09375 178.492188 152.089844 C 178.617188 152.09375 178.753906 152.09375 178.902344 152.09375 C 180.460938 152.09375 183.253906 151.894531 187.28125 151.496094 C 193.171875 150.941406 198.148438 149.957031 202.214844 148.550781 L 202.21875 148.550781 L 202.429688 150.285156 C 202.601562 151.59375 202.785156 152.738281 202.984375 153.726562 C 203.378906 155.699219 203.824219 157.027344 204.316406 157.71875 L 204.695312 158.117188 L 205.214844 158.371094 C 205.355469 158.371094 205.589844 158.144531 205.917969 157.691406 C 206.449219 156.945312 207.117188 155.824219 207.917969 154.320312 C 208.40625 153.148438 208.828125 151.996094 209.183594 150.867188 L 209.871094 148.71875 L 210.203125 144.835938 L 210.941406 137.386719 C 211.054688 135.890625 211.089844 133.171875 211.042969 129.21875 C 210.984375 128.023438 210.847656 127.132812 210.636719 126.546875 Z M 144.074219 127.964844 L 143.933594 129.378906 C 143.585938 133.441406 143.429688 136.304688 143.46875 137.96875 C 143.507812 141.707031 143.660156 145.308594 143.921875 148.765625 C 144.089844 150.742188 144.296875 152.21875 144.539062 153.195312 L 146.171875 157.210938 C 150.46875 167.484375 154.292969 174.347656 157.65625 177.796875 C 159.324219 176.902344 160.21875 176.300781 160.339844 175.996094 C 161.269531 175.039062 161.847656 173.867188 162.078125 172.488281 C 162.339844 170.847656 162.148438 168.925781 161.496094 166.71875 C 160.957031 164.90625 159.480469 161.328125 157.0625 155.980469 C 156.121094 153.558594 155.5625 151.882812 155.386719 150.953125 C 155.15625 149.726562 155.007812 148.476562 154.945312 147.207031 L 154.453125 131.238281 Z M 182.019531 226.4375 C 182.007812 226.832031 181.996094 227.167969 181.988281 227.445312 C 181.976562 228.28125 181.972656 229.121094 181.980469 229.964844 C 182.019531 235.273438 182.386719 240.222656 183.078125 244.8125 C 183.085938 244.871094 183.09375 244.9375 183.109375 245.011719 L 183.105469 245.015625 C 183.085938 247.320312 183.226562 249.964844 183.53125 252.945312 L 183.644531 253.523438 L 183.347656 253.722656 C 182.699219 254.210938 182.019531 254.816406 181.316406 255.542969 C 180.914062 255.957031 180.503906 256.40625 180.085938 256.894531 L 180.085938 256.898438 C 180.257812 256.0625 180.421875 254.949219 180.585938 253.554688 C 180.726562 252.367188 180.859375 250.976562 180.992188 249.382812 L 181.191406 246.835938 L 181.605469 240.613281 C 181.640625 239.566406 181.675781 235.824219 181.714844 229.378906 L 181.710938 229.378906 C 181.820312 228.355469 181.921875 227.375 182.015625 226.4375 Z M 159.222656 203.453125 C 159.191406 203.453125 159.164062 203.460938 159.132812 203.476562 L 159.0625 203.484375 C 158.867188 203.527344 158.6875 203.738281 158.519531 204.125 L 158.375 205.460938 C 158.285156 206.367188 158.214844 207.304688 158.160156 208.28125 C 158.054688 210.773438 158.011719 212.3125 158.03125 212.890625 C 158.03125 213.125 158.03125 213.359375 158.035156 213.59375 L 156.652344 213.300781 L 156.636719 214.578125 C 156.664062 217.453125 157.300781 222.453125 158.554688 229.582031 L 158.550781 229.582031 C 158.753906 233.253906 158.941406 235.785156 159.117188 237.171875 C 160.207031 246.53125 161.753906 254.875 163.761719 262.207031 L 163.757812 262.207031 C 163.589844 264.1875 163.488281 266.859375 163.453125 270.222656 C 163.484375 272.023438 163.578125 273.832031 163.742188 275.652344 C 163.828125 277.011719 164.136719 279.300781 164.667969 282.523438 L 165.171875 284.90625 L 165.167969 284.90625 C 162.511719 289.269531 160.828125 292.160156 160.113281 293.574219 C 160.011719 294.027344 159.960938 294.484375 159.960938 294.949219 L 159.382812 294.675781 L 159.308594 294.925781 C 159.214844 295.335938 158.867188 295.945312 158.265625 296.757812 C 155.539062 299.578125 153.679688 301.726562 152.6875 303.199219 C 152.019531 304.734375 151.597656 305.984375 151.429688 306.953125 C 151.160156 308.136719 150.949219 309.460938 150.789062 310.933594 C 150.484375 313.777344 150.324219 316.34375 150.308594 318.625 C 150.355469 321.359375 150.425781 322.914062 150.519531 323.289062 C 150.621094 324.222656 150.757812 325.082031 150.929688 325.875 L 151.136719 326.777344 C 151.289062 327.351562 151.480469 327.882812 151.707031 328.367188 C 151.933594 328.847656 152.195312 329.28125 152.496094 329.671875 C 152.964844 330.382812 153.828125 331.03125 155.089844 331.605469 C 155.460938 331.792969 155.84375 331.890625 156.238281 331.890625 C 156.703125 331.890625 157.179688 331.757812 157.675781 331.5 C 158.476562 331.078125 159.269531 329.960938 160.050781 328.15625 C 160.378906 327.429688 160.648438 326.589844 160.859375 325.632812 C 161.695312 320.28125 162.503906 316.246094 163.277344 313.53125 C 164.890625 309.8125 166.226562 306.824219 167.28125 304.578125 C 167.769531 303.5 168.238281 302.535156 168.691406 301.6875 L 168.691406 301.691406 C 168.878906 301.578125 169.066406 301.453125 169.25 301.320312 L 169.253906 301.324219 C 169.390625 301.765625 169.539062 302.226562 169.691406 302.703125 C 170.40625 305.945312 171.015625 308.640625 171.515625 310.78125 L 171.511719 310.78125 C 171.582031 311.878906 171.644531 313.015625 171.703125 314.183594 C 171.828125 315.65625 171.972656 316.953125 172.128906 318.085938 C 173.015625 324.300781 173.527344 327.753906 173.660156 328.445312 C 174.097656 330.722656 174.460938 332.136719 174.746094 332.6875 C 174.957031 333.222656 175.1875 333.707031 175.4375 334.128906 C 175.539062 334.414062 175.953125 334.921875 176.679688 335.65625 C 177.289062 336.164062 177.96875 336.441406 178.722656 336.496094 C 179.167969 336.34375 179.574219 336.15625 179.941406 335.9375 L 180.269531 335.710938 L 180.273438 335.710938 C 180.375 335.734375 180.476562 335.753906 180.578125 335.769531 C 180.824219 335.792969 181.066406 335.804688 181.300781 335.804688 C 183.308594 335.804688 184.894531 334.996094 186.058594 333.382812 C 186.425781 332.71875 186.582031 332.027344 186.519531 331.3125 C 186.566406 331.195312 186.34375 329.808594 185.859375 327.160156 C 185.148438 323.738281 184.046875 319.5625 182.554688 314.636719 L 180.261719 307.953125 C 180.082031 307.449219 179.90625 307.007812 179.734375 306.636719 C 179.410156 305.871094 179.0625 305.191406 178.695312 304.59375 L 178.691406 304.59375 C 178.601562 303.078125 178.5625 301.324219 178.570312 299.332031 L 179.175781 292.207031 C 179.195312 290.738281 179.226562 289.292969 179.261719 287.875 L 179.257812 287.878906 C 180.523438 286.160156 181.773438 284.492188 183.007812 282.878906 C 194.6875 268.558594 200.496094 261.261719 200.429688 260.992188 C 200.976562 260.238281 201.410156 259.507812 201.730469 258.796875 L 202.125 257.746094 C 202.199219 257.503906 202.257812 257.261719 202.300781 257.023438 L 202.296875 257.023438 C 202.328125 256.980469 202.363281 256.9375 202.394531 256.894531 C 202.828125 256.183594 203.109375 255.617188 203.230469 255.1875 C 203.515625 253.851562 204.136719 251.53125 205.089844 248.226562 C 206.105469 243.207031 206.824219 239.042969 207.246094 235.734375 C 207.929688 228.070312 208.335938 221.800781 208.460938 216.929688 L 208.457031 216.929688 L 207.40625 220.902344 C 207.320312 219.414062 207.1875 217.917969 207.007812 216.421875 L 185.828125 214.203125 L 185.734375 214.660156 L 182.808594 213.542969 L 182.734375 213.761719 C 182.683594 214.015625 182.628906 214.492188 182.570312 215.191406 C 182.554688 215.242188 182.503906 216.03125 182.417969 217.558594 L 182.417969 217.5625 C 182.382812 217.183594 182.332031 216.867188 182.269531 216.605469 C 181.660156 214.054688 179.246094 212.78125 175.03125 212.78125 C 174.988281 212.78125 174.945312 212.78125 174.902344 212.78125 L 174.726562 212.78125 C 174.386719 212.777344 174.042969 212.777344 173.699219 212.777344 C 170.351562 212.777344 166.914062 213.003906 163.390625 213.457031 C 163.191406 213.46875 162.964844 213.503906 162.714844 213.558594 C 162.09375 211.273438 161.40625 208.734375 160.652344 205.933594 C 160.023438 204.28125 159.546875 203.453125 159.222656 203.453125 Z M 159.222656 203.453125 " fill-opacity="1" fill-rule="nonzero"/></g><g clip-path="url(#81985dd12f)"><path fill="#6f1c15" d="M 181.804688 37.855469 L 181.070312 37.878906 C 179.589844 37.980469 178.144531 38.386719 176.734375 39.097656 C 176.664062 39.074219 176.597656 39.058594 176.539062 39.042969 C 175.597656 38.714844 174.648438 38.550781 173.6875 38.550781 L 172.757812 38.601562 C 169.34375 39.167969 166.433594 40.992188 164.015625 44.078125 C 163.253906 45.339844 162.398438 47.292969 161.449219 49.933594 C 159.222656 58.675781 157.121094 65.910156 155.148438 71.632812 C 154.476562 73.050781 153.617188 74.304688 152.5625 75.394531 C 151.878906 76.304688 150.257812 77.414062 147.699219 78.726562 C 149.039062 80.636719 151.257812 81.59375 154.351562 81.59375 C 154.679688 81.59375 155.019531 81.582031 155.367188 81.558594 L 155.835938 82.789062 C 156.1875 83.582031 156.625 84.324219 157.152344 85.015625 C 158.199219 86.398438 159.589844 87.582031 161.324219 88.558594 C 164.324219 90.117188 166.910156 90.898438 169.078125 90.898438 C 169.316406 90.898438 169.550781 90.890625 169.777344 90.871094 C 169.800781 90.871094 169.824219 90.871094 169.847656 90.871094 C 170.847656 90.871094 172.082031 90.503906 173.558594 89.769531 C 174.195312 89.550781 174.597656 89.023438 174.769531 88.191406 C 174.9375 87.652344 175.136719 86.734375 175.363281 85.429688 C 175.351562 84.832031 175.253906 84.097656 175.066406 83.230469 L 175.179688 81.914062 C 175.152344 81.746094 175.070312 81.589844 174.933594 81.445312 C 173.644531 80.792969 173.039062 80.398438 173.125 80.265625 C 177.0625 78.953125 179.277344 78.085938 179.765625 77.667969 C 180.851562 77.054688 181.398438 76.492188 181.414062 75.988281 L 181.410156 75.988281 C 181.394531 75.988281 181.378906 75.988281 181.363281 75.988281 C 180.789062 75.988281 179.496094 75.761719 177.480469 75.3125 C 175.890625 74.882812 174.515625 74.269531 173.355469 73.480469 C 170.828125 71.683594 169.234375 69.320312 168.578125 66.386719 C 168.054688 63.847656 168.628906 60.691406 170.308594 56.921875 C 172.898438 51.554688 175.550781 48.285156 178.261719 47.117188 L 178.265625 47.121094 L 178.667969 47.273438 C 179.304688 47.160156 179.949219 47.101562 180.609375 47.101562 C 181.679688 47.101562 182.777344 47.253906 183.90625 47.550781 C 184.394531 47.699219 185.148438 48.039062 186.167969 48.574219 C 186.179688 48.578125 186.1875 48.582031 186.195312 48.589844 L 186.191406 48.589844 C 187.535156 50.105469 188.503906 51.667969 189.101562 53.269531 C 190.359375 56.457031 191.273438 59.703125 191.839844 63.011719 C 192.261719 65.574219 192.09375 67.882812 191.339844 69.9375 C 191.050781 70.863281 190.554688 72.09375 189.851562 73.628906 L 185.007812 83.265625 C 184.75 83.828125 184.550781 84.46875 184.410156 85.179688 C 184.316406 85.996094 184.734375 86.886719 185.660156 87.851562 C 185.550781 89.882812 185.605469 90.96875 185.828125 91.109375 C 187.457031 91.777344 188.390625 92.394531 188.625 92.96875 C 188.882812 93.058594 189.140625 93.105469 189.398438 93.105469 C 189.425781 93.105469 189.453125 93.105469 189.480469 93.105469 C 189.511719 93.15625 189.566406 93.183594 189.65625 93.183594 C 190.148438 93.183594 191.597656 92.34375 193.996094 90.660156 C 196.496094 90.265625 198.015625 89.90625 198.554688 89.578125 L 202.9375 86.484375 L 203.222656 86.035156 C 203.945312 84.84375 204.304688 83.660156 204.292969 82.480469 C 204.21875 78.585938 203.992188 74.167969 203.613281 69.226562 C 202.964844 66.621094 202.027344 63.765625 200.800781 60.660156 C 200.074219 57.058594 199.460938 54.367188 198.96875 52.585938 C 197.976562 49.929688 196.953125 47.835938 195.898438 46.308594 C 194.058594 43.714844 191.578125 41.53125 188.460938 39.757812 C 187.988281 39.375 186.640625 38.84375 184.414062 38.15625 C 183.53125 37.957031 182.664062 37.855469 181.804688 37.855469 Z M 181.804688 37.855469 " fill-opacity="1" fill-rule="nonzero"/></g><g clip-path="url(#84d4f3a7bd)"><path fill="#8bc34a" d="M 179.007812 103.679688 L 177.167969 103.703125 C 173.953125 103.726562 170.738281 103.917969 167.523438 104.277344 C 164.402344 104.78125 161.902344 105.308594 160.027344 105.871094 C 156.191406 106.972656 152.574219 108.460938 149.1875 110.332031 L 149.183594 110.332031 L 145.457031 110.832031 C 144.933594 110.8125 144.425781 110.792969 143.929688 110.769531 L 143.425781 110.792969 C 142.472656 110.847656 141.863281 110.972656 141.601562 111.164062 C 141.394531 111.457031 141.292969 111.667969 141.296875 111.804688 C 141.257812 112.011719 141.226562 112.285156 141.207031 112.621094 C 141.246094 117.296875 141.578125 122.980469 142.203125 129.667969 L 142.199219 129.667969 C 142.148438 130.46875 142.097656 131.308594 142.039062 132.191406 C 142.011719 132.921875 142.046875 133.382812 142.144531 133.566406 C 142.214844 133.804688 142.480469 133.960938 142.9375 134.039062 C 143.785156 134.164062 144.597656 134.230469 145.382812 134.230469 C 145.5 134.230469 145.621094 134.226562 145.738281 134.226562 C 145.964844 134.230469 146.195312 134.234375 146.429688 134.234375 C 148.40625 134.234375 150.675781 134.039062 153.234375 133.648438 C 154.203125 133.496094 154.796875 133.34375 155.015625 133.195312 C 155.191406 133.144531 155.332031 132.871094 155.433594 132.367188 L 155.960938 125.203125 L 155.980469 125.015625 L 155.984375 125.015625 C 156.449219 125.980469 156.851562 127.019531 157.199219 128.128906 C 158.742188 132.640625 159.976562 137.992188 160.902344 144.183594 C 160.9375 144.421875 161.101562 144.667969 161.394531 144.917969 C 161.675781 145.117188 162.003906 145.214844 162.371094 145.214844 C 162.597656 145.214844 162.839844 145.175781 163.097656 145.101562 C 167.539062 143.207031 171.273438 141.996094 174.300781 141.476562 C 176.367188 141.191406 179.429688 140.90625 183.484375 140.628906 C 189.917969 140.652344 193.785156 140.871094 195.085938 141.285156 C 197.886719 141.859375 200.566406 142.945312 203.121094 144.546875 C 203.136719 144.554688 203.152344 144.554688 203.167969 144.554688 C 203.332031 144.554688 203.457031 144.265625 203.539062 143.683594 C 203.480469 137.109375 203.394531 132.117188 203.285156 128.714844 L 203.277344 128.714844 C 204.09375 128.671875 205.058594 128.648438 206.171875 128.648438 C 207.605469 128.648438 209.28125 128.683594 211.203125 128.757812 C 211.207031 128.757812 211.214844 128.757812 211.21875 128.757812 C 211.339844 128.757812 211.515625 128.5625 211.734375 128.171875 C 211.816406 127.9375 211.878906 127.390625 211.917969 126.53125 C 211.90625 122.570312 212.023438 116.871094 212.265625 109.425781 C 212.253906 108.554688 212.148438 107.886719 211.957031 107.414062 C 211.769531 106.816406 211.183594 106.445312 210.199219 106.300781 C 207.558594 105.964844 205.457031 105.722656 203.894531 105.582031 L 203.890625 105.582031 L 203.03125 105.085938 C 202.085938 104.707031 201.414062 104.511719 201.019531 104.5 C 195.90625 104.359375 190.765625 104.136719 185.59375 103.828125 Z M 179.007812 103.679688 " fill-opacity="1" fill-rule="nonzero"/></g><path fill="#519edb" d="M 162.449219 146.148438 L 162.46875 146.605469 C 162.460938 147.921875 162.363281 148.878906 162.175781 149.464844 C 158.574219 160.082031 156.449219 167.078125 155.800781 170.453125 C 154.765625 174.796875 154.105469 179.34375 153.8125 184.089844 C 153.640625 187.144531 153.667969 190.136719 153.890625 193.074219 L 154.335938 197.734375 L 154.332031 197.738281 C 154.757812 207.304688 155.195312 213.023438 155.652344 214.886719 C 156.25 218.976562 157 221.515625 157.898438 222.503906 C 159.808594 223.308594 161.886719 223.714844 164.132812 223.714844 C 164.363281 223.714844 164.59375 223.707031 164.828125 223.699219 L 174.3125 222.414062 L 174.308594 222.417969 C 174.773438 222.355469 175.25 222.292969 175.734375 222.222656 L 175.730469 222.222656 L 188.925781 220.433594 L 188.921875 220.433594 C 190.460938 220.410156 191.929688 220.398438 193.335938 220.398438 C 199.488281 220.398438 204.378906 220.625 208.003906 221.070312 C 208.128906 221.003906 208.242188 220.882812 208.34375 220.699219 L 208.339844 220.699219 C 208.46875 220.625 208.566406 220.472656 208.636719 220.246094 C 208.714844 219.980469 208.761719 219.640625 208.773438 219.226562 L 208.769531 219.230469 C 208.808594 218.972656 208.84375 218.691406 208.875 218.386719 C 209.742188 211.253906 210.261719 206.4375 210.433594 203.933594 C 210.675781 192.363281 210.652344 182.792969 210.371094 175.222656 C 210.066406 169.023438 209.847656 165.507812 209.710938 164.675781 L 209.152344 161.742188 C 208.96875 161.003906 208.757812 160.300781 208.519531 159.628906 C 206.859375 156.101562 205.855469 153.753906 205.5 152.589844 C 204.902344 150.914062 204.472656 149.40625 204.207031 148.058594 C 203.949219 147.628906 203.699219 147.386719 203.460938 147.332031 C 202.609375 146.90625 201.0625 146.597656 198.816406 146.40625 Z M 162.449219 146.148438 " fill-opacity="1" fill-rule="nonzero"/><g clip-path="url(#4d1bd7bd8f)"><path fill="#141414" d="M 160.523438 291.976562 L 160.457031 291.980469 C 160.25 292.042969 160.046875 292.160156 159.851562 292.324219 C 159.703125 292.417969 159.472656 292.699219 159.15625 293.171875 C 159.078125 293.328125 159.007812 293.558594 158.9375 293.863281 C 158.890625 294.132812 158.878906 294.371094 158.898438 294.570312 C 158.839844 294.773438 158.804688 294.972656 158.785156 295.175781 C 158.761719 295.65625 158.824219 296.136719 158.976562 296.625 C 159.289062 297.5625 159.597656 298.292969 159.90625 298.8125 C 160.460938 299.722656 160.839844 300.296875 161.046875 300.535156 C 161.757812 301.375 162.335938 301.945312 162.789062 302.25 C 163.894531 303.007812 165.011719 303.386719 166.140625 303.386719 C 166.210938 303.386719 166.277344 303.386719 166.347656 303.382812 C 167.546875 303.238281 168.378906 302.992188 168.847656 302.644531 C 169.179688 302.441406 169.632812 302.078125 170.207031 301.546875 C 170.394531 301.347656 170.445312 301.15625 170.371094 300.976562 C 170.289062 300.757812 170.09375 300.605469 169.792969 300.515625 L 167.25 300.492188 C 166.796875 300.425781 166.332031 300.304688 165.855469 300.128906 C 165.542969 300.023438 165.183594 299.828125 164.769531 299.546875 C 164.453125 299.351562 163.898438 298.902344 163.105469 298.195312 C 162.386719 297.511719 161.878906 296.796875 161.585938 296.046875 C 161.4375 295.667969 161.316406 295.222656 161.21875 294.707031 C 161.132812 294.359375 161.050781 293.601562 160.972656 292.4375 C 160.921875 292.15625 160.773438 292 160.523438 291.976562 Z M 169.414062 302.722656 L 169.363281 302.726562 C 168.84375 302.859375 168.566406 303.4375 168.53125 304.464844 C 168.511719 305.164062 168.722656 305.902344 169.15625 306.683594 C 169.46875 307.179688 169.902344 307.527344 170.460938 307.734375 C 170.855469 307.882812 171.375 307.957031 172.019531 307.957031 C 172.25 307.957031 172.496094 307.945312 172.757812 307.925781 C 173.484375 307.863281 174.484375 307.632812 175.765625 307.234375 C 176.753906 306.890625 177.59375 306.46875 178.289062 305.960938 C 178.894531 305.414062 179.238281 304.988281 179.3125 304.679688 C 179.414062 304.386719 179.46875 304.117188 179.480469 303.871094 C 179.515625 303.675781 179.464844 303.402344 179.324219 303.058594 C 179.238281 302.929688 179.132812 302.839844 179.007812 302.785156 C 178.980469 302.761719 178.875 302.742188 178.6875 302.730469 C 178.609375 302.730469 178.527344 302.742188 178.441406 302.761719 C 178.222656 302.816406 178.070312 302.863281 177.980469 302.90625 C 176.976562 303.378906 176.316406 303.675781 176 303.792969 C 175.722656 303.902344 175.378906 304.015625 174.96875 304.132812 C 174.285156 304.320312 173.5625 304.417969 172.792969 304.417969 C 172.78125 304.417969 172.765625 304.417969 172.75 304.417969 C 172.429688 304.40625 172.128906 304.378906 171.851562 304.335938 C 171.628906 304.316406 171.320312 304.234375 170.921875 304.097656 L 169.773438 302.875 C 169.675781 302.785156 169.554688 302.734375 169.414062 302.722656 Z M 180.730469 316.710938 L 180.648438 316.710938 L 179.054688 316.789062 L 173.933594 317.472656 L 173.488281 317.5625 C 172.960938 317.6875 172.433594 317.867188 171.90625 318.097656 C 170.988281 318.542969 170.332031 318.917969 169.941406 319.222656 C 169.03125 320.410156 168.667969 321.761719 168.847656 323.273438 C 169.277344 325.007812 169.929688 325.871094 170.800781 325.871094 C 170.832031 325.871094 170.859375 325.871094 170.890625 325.871094 C 171.210938 325.867188 171.519531 325.796875 171.816406 325.652344 C 173.394531 324.703125 174.757812 323.980469 175.902344 323.484375 C 176.492188 323.21875 177.175781 323.007812 177.953125 322.851562 C 178.640625 322.714844 179.277344 322.648438 179.863281 322.648438 C 179.992188 322.648438 180.121094 322.648438 180.242188 322.65625 C 180.789062 322.71875 181.140625 322.769531 181.296875 322.8125 C 182.613281 323.203125 183.523438 323.449219 184.03125 323.546875 C 184.050781 323.546875 184.070312 323.546875 184.09375 323.546875 C 184.34375 323.546875 184.519531 323.5 184.625 323.40625 C 184.960938 323.164062 185.035156 322.640625 184.847656 321.839844 C 184.054688 319.761719 183.488281 318.429688 183.148438 317.851562 C 182.863281 317.148438 182.058594 316.765625 180.730469 316.710938 Z M 154.863281 298.023438 L 154.316406 298.054688 C 152.636719 298.3125 150.917969 298.957031 149.164062 299.984375 L 149.160156 299.984375 C 148.53125 300.148438 147.9375 300.339844 147.386719 300.558594 L 145.984375 301.210938 C 145.117188 301.6875 144.371094 302.25 143.753906 302.898438 C 143.136719 303.542969 142.644531 304.277344 142.28125 305.09375 L 141.828125 306.382812 C 141.789062 306.722656 141.789062 307.121094 141.820312 307.578125 C 142.082031 309.792969 142.660156 312.109375 143.550781 314.53125 C 143.734375 314.832031 143.917969 314.980469 144.109375 314.980469 C 145.101562 314.78125 145.800781 314.683594 146.214844 314.683594 C 146.273438 314.683594 146.328125 314.6875 146.378906 314.691406 C 146.597656 314.714844 146.75 314.996094 146.832031 315.527344 C 146.902344 317.003906 146.835938 318.832031 146.625 321.015625 C 146.332031 322.476562 145.820312 324.675781 145.082031 327.613281 C 144.84375 328.84375 144.703125 329.78125 144.664062 330.433594 C 144.496094 333.058594 144.761719 335.234375 145.46875 336.957031 C 146.753906 340.316406 149.308594 342 153.128906 342 L 154.5 341.78125 C 155.371094 341.589844 156.152344 341.300781 156.84375 340.917969 C 158.226562 340.152344 159.257812 339 159.929688 337.46875 C 160.269531 336.703125 160.519531 335.84375 160.679688 334.886719 C 161.175781 331.722656 161.527344 329.222656 161.738281 327.378906 C 161.941406 325.367188 162.019531 324.355469 161.972656 324.351562 C 161.972656 323.925781 161.933594 323.664062 161.859375 323.570312 C 161.535156 323.796875 161.21875 324.015625 160.910156 324.230469 L 160.90625 324.230469 C 158.921875 324.527344 157.339844 324.675781 156.164062 324.675781 C 155.996094 324.675781 155.832031 324.675781 155.679688 324.667969 C 153.285156 324.429688 151.976562 324.109375 151.761719 323.714844 C 151.375 323.273438 151.167969 322.621094 151.140625 321.753906 C 151.125 321.503906 151.375 320.25 151.886719 317.992188 C 151.941406 317.71875 151.988281 317.277344 152.03125 316.671875 C 152.035156 316.476562 152.039062 316.269531 152.035156 316.058594 L 152.039062 316.058594 C 153.078125 316.730469 153.964844 317.148438 154.703125 317.316406 C 156.054688 317.671875 157.339844 317.847656 158.558594 317.847656 C 158.839844 317.847656 159.117188 317.839844 159.390625 317.820312 C 160.269531 317.769531 160.972656 317.664062 161.511719 317.5 C 162 317.410156 162.523438 317.097656 163.085938 316.558594 C 164.070312 315.378906 164.359375 314.019531 163.949219 312.472656 L 163.789062 311.84375 C 163.699219 311.75 163.570312 311.675781 163.402344 311.628906 L 163.121094 311.570312 C 162.074219 311.523438 161.183594 311.449219 160.457031 311.339844 C 159.59375 311.144531 158.917969 310.914062 158.4375 310.652344 C 158.015625 310.441406 157.5 310.066406 156.890625 309.53125 C 156.304688 308.9375 155.992188 308.574219 155.941406 308.441406 C 155.214844 307.445312 154.921875 306.003906 155.054688 304.113281 C 155.152344 303.035156 155.300781 302.238281 155.503906 301.722656 L 155.898438 300.667969 L 156.773438 298.742188 C 156.578125 298.316406 155.941406 298.078125 154.863281 298.023438 Z M 184.714844 328.527344 L 184.058594 328.539062 C 181.816406 328.683594 179.210938 329.128906 176.242188 329.878906 C 174.902344 330.230469 173.875 330.78125 173.164062 331.539062 C 172.851562 331.882812 172.601562 332.289062 172.417969 332.765625 C 172.304688 333.179688 172.222656 333.878906 172.175781 334.867188 C 172.167969 335.386719 172.214844 335.957031 172.308594 336.578125 L 172.980469 340.253906 C 173.148438 341.308594 173.605469 342.574219 174.351562 344.050781 C 175.238281 345.296875 175.796875 346.042969 176.027344 346.28125 C 176.238281 346.542969 176.679688 346.855469 177.351562 347.214844 C 178.21875 347.566406 178.90625 347.757812 179.417969 347.78125 C 179.59375 347.804688 179.789062 347.8125 180 347.8125 C 180.613281 347.8125 181.363281 347.726562 182.257812 347.554688 L 187.742188 347.710938 C 188.566406 347.65625 189.109375 347.460938 189.363281 347.125 C 189.703125 346.839844 190.019531 346.046875 190.316406 344.746094 C 190.714844 342.183594 190.648438 339.304688 190.113281 336.113281 C 189.59375 333.015625 188.972656 330.972656 188.25 329.984375 C 187.863281 329.464844 187.464844 329.097656 187.050781 328.878906 C 186.496094 328.648438 185.71875 328.527344 184.714844 328.527344 Z M 184.714844 328.527344 " fill-opacity="1" fill-rule="nonzero"/></g></svg>