<svg xmlns="http://www.w3.org/2000/svg" xmlns:xlink="http://www.w3.org/1999/xlink" width="500" zoomAndPan="magnify" viewBox="0 0 375 374.999991" height="500" preserveAspectRatio="xMidYMid meet" version="1.0"><defs><clipPath id="e88b40d726"><path d="M 178 37.5 L 205 37.5 L 205 61 L 178 61 Z M 178 37.5 " clip-rule="nonzero"/></clipPath></defs><rect x="-37.5" width="450" fill="#ffffff" y="-37.499999" height="449.999989" fill-opacity="1"/><rect x="-37.5" width="450" fill="#ffffff" y="-37.499999" height="449.999989" fill-opacity="1"/><path fill="#f1c095" d="M 214.066406 161.425781 C 214.234375 162.246094 215 162.375 215.578125 162.664062 C 218.144531 163.945312 219.984375 165.839844 220.804688 168.640625 C 222.316406 167.015625 222.390625 164.570312 224.0625 163.039062 C 222.277344 160.171875 219.414062 159.148438 216.34375 158.390625 C 215.492188 158.175781 215.269531 158.613281 215.015625 159.191406 C 214.691406 159.941406 214.382812 160.6875 214.066406 161.433594 Z M 214.066406 161.425781 " fill-opacity="1" fill-rule="nonzero"/><path fill="#693327" d="M 202.441406 73.082031 C 205.625 78.582031 211.113281 81.222656 216.433594 83.808594 C 221.855469 86.449219 224.777344 90.660156 226.53125 96.164062 C 228.820312 103.332031 230.03125 110.734375 231.769531 118.023438 C 233.058594 123.410156 233.820312 128.832031 233.652344 134.40625 C 233.335938 144.765625 229.613281 154.097656 225.234375 163.265625 C 224.777344 164.214844 224.386719 164.03125 223.667969 163.730469 C 222.472656 163.21875 221.242188 162.796875 220.027344 162.339844 C 217.890625 162.984375 215.949219 164.113281 213.726562 164.617188 C 207.363281 166.0625 200.910156 166.644531 194.433594 167.296875 C 184.820312 168.277344 175.515625 166.996094 166.246094 164.730469 C 165.351562 164.515625 164.425781 164.488281 163.53125 164.335938 C 162.691406 164.207031 162.148438 163.675781 161.878906 162.910156 C 161.320312 161.332031 160.234375 161.433594 158.902344 161.800781 C 156.53125 162.453125 154.777344 164.058594 152.882812 165.457031 C 151.304688 165.839844 150.957031 164.5625 150.4375 163.589844 C 146.265625 155.890625 143.894531 147.613281 142.6875 138.988281 C 141.1875 128.246094 143.4375 117.78125 145.226562 107.289062 C 145.777344 104.042969 146.683594 100.898438 147.925781 97.816406 C 152.386719 86.691406 160.441406 79.933594 172.136719 77.460938 C 174.070312 77.050781 175.675781 76.117188 177.066406 74.699219 C 178.34375 73.390625 179.78125 72.222656 181.144531 70.992188 C 182.105469 70.964844 182.132812 71.65625 181.945312 72.253906 C 180.957031 75.3125 182.570312 77.601562 184.175781 79.859375 C 185.640625 81.921875 187.105469 83.996094 188.789062 85.890625 C 191.222656 88.632812 192.679688 91.742188 192.550781 95.363281 C 192.746094 95.566406 192.867188 95.511719 192.867188 95.289062 C 192.773438 89.957031 196.367188 86.113281 198.375 81.632812 C 199.183594 79.8125 200.128906 78.09375 200.332031 76.03125 C 200.464844 74.792969 200.929688 73.476562 202.460938 73.09375 Z M 202.441406 73.082031 " fill-opacity="1" fill-rule="nonzero"/><path fill="#d1beac" d="M 162.867188 163.84375 C 165.949219 163.339844 168.75 164.691406 171.632812 165.300781 C 180.796875 167.230469 189.953125 167.210938 199.230469 166.203125 C 204.871094 165.589844 210.414062 164.691406 215.929688 163.40625 C 217.3125 163.078125 218.335938 161.304688 220.035156 162.339844 C 219.960938 162.367188 219.898438 162.394531 219.820312 162.414062 C 219.746094 162.441406 219.671875 162.453125 219.597656 162.480469 C 219.636719 162.59375 219.644531 162.789062 219.710938 162.808594 C 223.042969 163.992188 222.574219 166.558594 222.164062 169.230469 C 219.027344 189.667969 216.339844 210.164062 214.242188 230.738281 C 213.828125 234.722656 214.398438 238.71875 214.820312 242.65625 C 215.519531 249.21875 214.511719 255.667969 213.996094 262.144531 C 213.8125 264.449219 211.992188 266.242188 210.664062 268.082031 C 209.433594 269.789062 209.257812 271.261719 210.328125 273.082031 C 211.261719 274.652344 211.953125 276.367188 212.746094 278.011719 C 208.976562 280.007812 204.933594 281.445312 201.203125 283.527344 C 198.617188 282.84375 196.050781 282.0625 193.4375 281.519531 C 191.96875 281.210938 191.113281 280.503906 190.71875 279.121094 C 190.683594 278.972656 190.625 278.824219 190.5625 278.695312 C 188.273438 273.933594 186.894531 269.332031 187.527344 263.648438 C 188.589844 254.171875 187.855469 244.523438 189.488281 235.019531 C 190.09375 231.472656 189.03125 227.851562 188.761719 224.269531 C 188.164062 216.410156 188.097656 208.550781 188.300781 200.617188 C 187.089844 205.03125 186.101562 209.511719 184.625 213.84375 C 181.621094 222.710938 181.507812 231.914062 181.011719 241.078125 C 180.5 250.65625 180.304688 260.242188 180.414062 269.824219 C 180.425781 271.011719 180.191406 272.085938 179.667969 273.140625 C 178.792969 274.929688 178.035156 276.78125 177.128906 278.542969 C 175.925781 280.878906 175.414062 283.695312 172.707031 284.992188 C 167.757812 283.527344 162.878906 284.152344 158.003906 285.394531 C 157.949219 285.019531 158.023438 284.546875 157.820312 284.285156 C 154.550781 280.148438 156.828125 275.984375 157.78125 271.871094 C 157.957031 271.09375 158.21875 270.453125 157.78125 269.734375 C 152.675781 261.445312 152.714844 252.417969 154.421875 243.328125 C 156.996094 229.589844 156.894531 215.746094 156.746094 201.878906 C 156.632812 191.609375 155.8125 181.363281 156.15625 171.085938 C 155.820312 168.800781 157.269531 167.445312 158.800781 166.1875 C 160.011719 165.175781 161.328125 164.28125 162.894531 163.871094 Z M 162.867188 163.84375 " fill-opacity="1" fill-rule="nonzero"/><path fill="#f1c095" d="M 202.441406 73.082031 C 201.378906 74.332031 200.632812 75.679688 200.695312 77.433594 C 200.753906 78.851562 199.875 80.046875 199.242188 81.25 C 197.851562 83.890625 196.449219 86.53125 194.917969 89.101562 C 194.144531 90.398438 193.59375 91.65625 193.789062 93.195312 C 193.96875 94.652344 193.203125 95.820312 192.539062 97.285156 C 191.914062 96.417969 192.035156 95.578125 191.988281 94.820312 C 191.792969 91.824219 190.898438 89.210938 188.816406 86.90625 C 186.816406 84.695312 185.109375 82.210938 183.355469 79.792969 C 181.65625 77.453125 180.238281 74.996094 181.488281 71.933594 C 181.667969 71.507812 181.480469 71.207031 181.117188 70.984375 C 182.535156 69.433594 181.441406 68.332031 180.414062 67.296875 C 177.492188 64.347656 176.691406 60.828125 177.148438 56.796875 C 177.296875 55.480469 178.417969 54.929688 178.726562 53.835938 C 180.789062 54.722656 180.796875 57.011719 182.085938 58.679688 C 182.226562 56.496094 182.066406 54.378906 183.195312 52.492188 C 183.5625 51.886719 183.226562 51.160156 183.066406 50.476562 C 182.46875 47.890625 183.785156 46.316406 186.445312 46.464844 C 187.59375 46.527344 188.710938 46.820312 189.8125 47.164062 C 191.839844 47.796875 193.640625 47.527344 195.453125 46.269531 C 199.136719 43.699219 201.789062 44.664062 203.542969 48.835938 C 204.328125 50.71875 204.253906 52.734375 204.824219 54.628906 C 206.578125 60.15625 204.058594 65.207031 203.058594 70.421875 C 202.890625 71.320312 202.65625 72.195312 202.453125 73.082031 Z M 202.441406 73.082031 " fill-opacity="1" fill-rule="nonzero"/><g clip-path="url(#e88b40d726)"><path fill="#c22723" d="M 204.8125 54.621094 C 203.601562 53.203125 203.777344 51.328125 203.21875 49.683594 C 201.59375 44.894531 199.261719 44.066406 195.300781 47.125 C 193.808594 48.285156 192.261719 48.378906 190.550781 47.984375 C 189.066406 47.640625 187.59375 47.125 186.089844 47.023438 C 183.710938 46.863281 182.730469 48.359375 183.746094 50.515625 C 184.296875 51.691406 184.464844 52.597656 183.402344 53.558594 C 182.738281 54.144531 182.675781 55.050781 182.664062 55.898438 C 182.644531 57.328125 182.664062 58.757812 182.199219 60.34375 C 181.039062 58.167969 179.875 55.984375 178.714844 53.808594 C 177.355469 49.703125 178.78125 46.15625 180.9375 42.769531 C 181.835938 41.347656 183.039062 40.414062 184.847656 40.285156 C 187.023438 40.136719 188.898438 38.941406 190.945312 38.316406 C 193.25 37.605469 195.273438 37.832031 197.1875 39.40625 C 199.324219 41.171875 201.339844 43.046875 203.171875 45.128906 C 204.335938 46.453125 204.824219 48.058594 204.859375 49.785156 C 204.898438 51.390625 204.832031 53.007812 204.8125 54.621094 Z M 204.8125 54.621094 " fill-opacity="1" fill-rule="nonzero"/></g><path fill="#c22723" d="M 157.988281 285.367188 C 158.519531 284.9375 158.492188 284.085938 159.546875 283.996094 C 163.167969 283.703125 166.777344 283.386719 170.410156 283.59375 C 171.398438 283.648438 172.433594 283.660156 172.6875 284.964844 C 172.425781 286.542969 172.265625 288.15625 171.875 289.707031 C 170.410156 295.585938 164.398438 298.984375 158.59375 297.296875 C 156.261719 296.613281 155.039062 294.066406 155.699219 291.105469 C 156.148438 289.082031 157.101562 287.234375 157.988281 285.375 Z M 157.988281 285.367188 " fill-opacity="1" fill-rule="nonzero"/><path fill="#c22723" d="M 191.328125 281.113281 C 192.019531 279.535156 193.664062 279.3125 194.96875 278.722656 C 197.554688 277.574219 209.789062 278.234375 212.738281 278.003906 C 215.191406 279.542969 217.675781 281.046875 220.101562 282.632812 C 221.121094 283.296875 222.035156 284.132812 222.984375 284.890625 C 224.554688 286.121094 224.535156 287.886719 224.199219 289.511719 C 223.910156 290.929688 222.304688 290.648438 221.277344 290.777344 C 215.117188 291.546875 209.183594 291.3125 204.503906 286.320312 C 203.523438 285.261719 192.429688 282.035156 191.320312 281.113281 Z M 191.328125 281.113281 " fill-opacity="1" fill-rule="nonzero"/><path fill="#f1c095" d="M 162.867188 163.84375 C 162.699219 164.664062 161.933594 164.796875 161.355469 165.085938 C 158.789062 166.363281 156.949219 168.257812 156.128906 171.058594 C 154.617188 169.433594 154.542969 166.988281 152.871094 165.457031 C 154.65625 162.59375 157.519531 161.566406 160.589844 160.808594 C 161.441406 160.59375 161.664062 161.035156 161.917969 161.613281 C 162.242188 162.359375 162.550781 163.105469 162.867188 163.851562 Z M 162.867188 163.84375 " fill-opacity="1" fill-rule="nonzero"/></svg>