<svg xmlns="http://www.w3.org/2000/svg" xmlns:xlink="http://www.w3.org/1999/xlink" width="500" zoomAndPan="magnify" viewBox="0 0 375 374.999991" height="500" preserveAspectRatio="xMidYMid meet" version="1.0"><defs><clipPath id="5dde29f651"><path d="M 139.820312 56 L 226.820312 56 L 226.820312 188 L 139.820312 188 Z M 139.820312 56 " clip-rule="nonzero"/></clipPath></defs><rect x="-37.5" width="450" fill="#ffffff" y="-37.499999" height="449.999989" fill-opacity="1"/><rect x="-37.5" width="450" fill="#ffffff" y="-37.499999" height="449.999989" fill-opacity="1"/><path fill="#ce8624" d="M 167.941406 38.023438 C 166.789062 38.917969 163.660156 45.820312 163.59375 48.183594 C 163.53125 50.550781 164.042969 64.097656 164.683594 65.695312 C 165.320312 67.292969 169.347656 72.023438 171.199219 72.660156 C 173.054688 73.300781 178.804688 73.234375 180.273438 72.660156 C 181.746094 72.085938 187.816406 65.4375 188.261719 63.90625 C 188.710938 62.371094 188.582031 59.75 188.964844 59.816406 C 189.351562 59.878906 190.5 59.6875 191.585938 58.347656 C 192.671875 56.941406 192.097656 51.570312 191.585938 51.125 C 191.074219 50.675781 190.117188 51.125 189.734375 50.804688 C 189.351562 50.484375 188.199219 42.433594 186.859375 40.707031 C 185.515625 38.980469 181.105469 37.066406 177.976562 38.023438 C 174.714844 38.980469 169.601562 36.808594 167.941406 38.023438 Z M 167.941406 38.023438 " fill-opacity="1" fill-rule="nonzero"/><path fill="#ce8624" d="M 169.285156 71.957031 C 169.285156 71.957031 169.730469 76.429688 169.984375 76.878906 C 170.242188 77.324219 175.035156 80.777344 175.929688 80.777344 C 176.824219 80.777344 184.109375 76.113281 185.324219 74.898438 C 186.539062 73.683594 189.414062 69.65625 189.414062 69.65625 L 188.648438 64.480469 C 188.648438 64.480469 182 72.597656 180.785156 73.042969 C 179.636719 73.492188 172.222656 73.300781 171.199219 73.042969 C 170.113281 72.851562 169.285156 71.957031 169.285156 71.957031 Z M 169.285156 71.957031 " fill-opacity="1" fill-rule="nonzero"/><path fill="#b134a0" d="M 164.105469 44.160156 C 164.234375 44.03125 165 36.554688 166.472656 35.082031 C 167.941406 33.675781 171.710938 31.886719 174.078125 31.503906 C 176.441406 31.121094 181.554688 31.695312 183.855469 32.78125 C 186.15625 33.933594 189.285156 35.976562 189.667969 37.382812 C 190.054688 38.789062 191.074219 47.035156 190.949219 48.183594 C 190.882812 49.335938 190.308594 51.125 190.054688 50.484375 C 189.796875 49.847656 187.878906 41.28125 187.242188 40.386719 C 186.601562 39.492188 182.511719 37.511719 181.171875 37.257812 C 179.828125 37 177.207031 38.023438 175.929688 37.894531 C 174.652344 37.832031 170.6875 37 169.285156 37.191406 C 167.878906 37.382812 166.726562 38.597656 166.472656 39.300781 C 166.152344 40.003906 164.105469 44.160156 164.105469 44.160156 Z M 164.105469 44.160156 " fill-opacity="1" fill-rule="nonzero"/><g clip-path="url(#5dde29f651)"><path fill="#56c193" d="M 163.59375 64.542969 C 163.59375 64.542969 160.59375 70.039062 161.292969 72.660156 C 161.996094 75.28125 160.976562 76.941406 162.382812 78.222656 C 163.789062 79.5625 167.300781 80.777344 167.300781 80.777344 C 167.300781 80.777344 165.960938 80.265625 165.769531 81.222656 C 165.511719 82.183594 166.34375 83.910156 165.769531 84.226562 C 165.191406 84.546875 153.816406 88.703125 149.855469 94.261719 C 145.894531 99.820312 143.71875 115.863281 144.105469 119.761719 C 144.488281 123.660156 144.167969 125.832031 143.210938 128.578125 C 142.1875 131.328125 141.484375 140.976562 142.058594 142.894531 C 142.632812 144.8125 142.699219 144.554688 142.824219 147.050781 C 142.890625 149.542969 141.417969 155.164062 141.101562 157.976562 C 140.78125 160.789062 140.207031 163.535156 140.460938 165.835938 C 140.714844 168.074219 139.820312 168.394531 140.015625 170.4375 C 140.269531 172.421875 140.207031 179.578125 140.460938 179.707031 C 140.714844 179.769531 141.292969 179.066406 141.546875 178.683594 C 141.804688 178.363281 143.527344 173.121094 143.71875 172.675781 C 143.910156 172.226562 143.527344 166.414062 144.039062 163.152344 C 144.550781 159.894531 146.40625 151.585938 148.320312 148.902344 C 150.238281 146.21875 152.21875 144.8125 152.410156 142.957031 C 152.601562 141.105469 152.859375 130.945312 154.394531 128.644531 C 155.992188 126.277344 156.117188 123.785156 156.054688 122.445312 C 155.992188 121.101562 153.753906 112.792969 153.753906 112.792969 C 153.753906 112.792969 157.078125 120.910156 157.011719 122.957031 C 156.949219 125.066406 154.328125 131.457031 153.753906 134.265625 C 153.242188 137.078125 153.5 143.023438 153.050781 144.046875 C 152.601562 145.066406 149.472656 148.136719 148.640625 151.394531 C 147.808594 154.652344 151.199219 160.339844 150.558594 160.148438 C 149.917969 159.957031 148.003906 154.71875 148.003906 153.503906 C 148.066406 152.289062 148.769531 149.15625 148.769531 149.15625 C 148.769531 149.15625 145.957031 155.421875 145.703125 157.082031 C 145.445312 158.742188 144.230469 162.640625 144.359375 164.429688 C 144.550781 166.222656 144.039062 171.398438 144.421875 171.910156 C 144.871094 172.421875 148.769531 174.464844 155.03125 174.65625 C 161.292969 174.847656 172.351562 175.167969 180.976562 173.761719 C 189.542969 172.355469 196.378906 169.925781 199.0625 168.328125 C 201.75 166.730469 203.152344 165.070312 203.984375 162.832031 C 204.816406 160.597656 205.902344 156.570312 205.390625 155.230469 C 204.878906 153.886719 204.367188 152.480469 203.539062 152.800781 C 202.707031 153.121094 197.464844 158.105469 198.042969 156.953125 C 198.617188 155.804688 204.945312 151.714844 206.285156 150.371094 C 207.628906 149.03125 209.226562 147.175781 208.777344 145.707031 C 208.332031 144.238281 206.859375 142.128906 206.859375 139.378906 C 206.859375 136.632812 206.03125 133.308594 205.519531 129.792969 C 205.007812 126.277344 203.410156 112.476562 203.855469 112.988281 C 204.304688 113.496094 206.414062 131.582031 206.859375 132.925781 C 207.308594 134.265625 207.371094 139.253906 207.753906 140.65625 C 208.140625 142.0625 209.863281 145.132812 209.738281 146.664062 C 209.671875 148.136719 207.050781 150.753906 206.925781 151.332031 C 206.734375 151.90625 205.519531 160.277344 205.070312 161.746094 C 204.625 163.21875 201.75 168.074219 200.980469 170.183594 C 200.214844 172.292969 199 175.167969 199.0625 175.421875 C 199.128906 175.679688 204.175781 187.375 204.496094 187.375 C 204.816406 187.375 208.96875 180.023438 210.695312 177.980469 C 212.421875 175.933594 214.335938 174.210938 215.039062 172.292969 C 215.742188 170.375 218.875 167.820312 218.8125 165.390625 C 218.746094 162.960938 218.621094 162.449219 219.832031 160.789062 C 220.984375 159.128906 221.304688 158.359375 221.558594 156.1875 C 221.816406 154.015625 224.050781 150.753906 223.730469 148.839844 C 223.414062 146.921875 226.480469 143.980469 226.097656 142.765625 C 225.648438 141.488281 224.371094 138.613281 225.648438 135.609375 C 226.925781 132.605469 226.734375 126.664062 226.480469 121.039062 C 226.222656 115.351562 220.792969 95.027344 218.171875 92.472656 C 215.488281 89.914062 202.769531 81.351562 201.75 80.90625 C 200.726562 80.457031 191.96875 83.71875 189.476562 84.355469 C 186.984375 84.996094 181.554688 85.570312 181.554688 85.570312 C 181.554688 85.570312 189.542969 84.035156 191.394531 83.269531 C 193.25 82.503906 201.046875 80.648438 201.363281 80.074219 C 201.683594 79.5625 200.34375 77.328125 199.894531 76.6875 C 199.449219 76.046875 200.214844 74.324219 200.597656 73.429688 C 201.046875 72.53125 200.660156 70.871094 200.917969 69.273438 C 201.238281 67.738281 200.46875 64.035156 199.191406 62.882812 C 197.914062 61.734375 195.292969 59.75 194.460938 58.792969 C 193.632812 57.835938 192.738281 56.941406 192.738281 56.941406 C 192.738281 56.941406 192.226562 59.113281 191.585938 59.6875 C 190.949219 60.261719 189.734375 60.453125 189.476562 60.582031 C 189.222656 60.710938 188.902344 63.648438 188.964844 63.777344 C 189.03125 63.96875 190.246094 69.082031 190.117188 69.785156 C 189.925781 70.425781 185.003906 76.367188 184.109375 77.132812 C 183.214844 77.902344 176.953125 82.054688 175.800781 81.609375 C 174.585938 81.160156 170.113281 78.222656 169.667969 77.582031 C 169.21875 76.941406 164.042969 73.683594 164.234375 73.429688 C 164.425781 73.171875 168.964844 76.238281 169.21875 76.304688 C 169.539062 76.367188 169.027344 71.957031 168.835938 71.703125 C 168.644531 71.511719 166.023438 68.890625 165.640625 68.378906 C 165.191406 67.738281 163.59375 64.542969 163.59375 64.542969 Z M 163.59375 64.542969 " fill-opacity="1" fill-rule="nonzero"/></g><path fill="#f2ddcc" d="M 144.105469 172.675781 C 144.105469 172.675781 141.292969 179.707031 141.292969 180.152344 C 141.292969 180.601562 143.082031 183.285156 145.191406 183.476562 C 147.234375 183.605469 151.324219 184.050781 154.519531 185.328125 C 157.714844 186.605469 161.613281 186.734375 164.425781 186.222656 C 167.238281 185.777344 171.390625 185.585938 174.523438 185.648438 C 177.65625 185.710938 186.347656 183.988281 188.582031 182.710938 C 190.820312 181.429688 192.226562 181.558594 193.25 180.023438 C 194.269531 178.425781 198.359375 175.421875 198.550781 174.914062 C 198.746094 174.402344 202.195312 166.476562 202.195312 166.476562 C 202.195312 166.476562 198.425781 169.480469 197.339844 170.054688 C 196.316406 170.628906 183.855469 173.953125 181.554688 174.210938 C 179.316406 174.464844 166.152344 175.359375 162.890625 175.296875 C 159.695312 175.230469 150.941406 174.71875 148.320312 174.335938 C 145.703125 173.953125 144.105469 172.675781 144.105469 172.675781 Z M 144.105469 172.675781 " fill-opacity="1" fill-rule="nonzero"/><path fill="#b134a0" d="M 140.460938 180.34375 C 140.460938 180.34375 140.015625 191.082031 140.460938 194.980469 C 140.910156 198.878906 143.527344 203.160156 145.636719 209.996094 C 147.746094 216.835938 149.726562 227.699219 151.964844 228.464844 C 154.199219 229.234375 160.65625 228.851562 164.234375 226.613281 C 167.8125 224.375 172.480469 222.140625 172.988281 221.820312 C 173.5 221.5 173.054688 210.636719 172.988281 209.039062 C 172.925781 207.503906 167.109375 202.585938 167.367188 202.585938 C 167.621094 202.585938 173.117188 206.929688 173.628906 208.273438 C 174.140625 209.613281 173.566406 223.480469 174.140625 224.953125 C 174.714844 226.421875 182.511719 231.277344 187.816406 230.894531 C 193.121094 230.511719 201.492188 226.613281 203.21875 223.738281 C 204.945312 220.863281 206.09375 216.132812 206.09375 216.132812 C 206.09375 216.132812 205.007812 222.585938 204.433594 223.289062 C 203.792969 223.992188 203.28125 224.566406 203.28125 224.566406 C 203.28125 224.566406 208.90625 223.355469 209.542969 221.054688 C 210.183594 218.753906 205.582031 191.71875 205.328125 189.996094 C 205.070312 188.269531 203.855469 188.460938 203.601562 187.4375 C 203.28125 186.414062 198.679688 175.679688 198.488281 175.808594 C 198.296875 175.933594 193.566406 180.917969 192.289062 181.8125 C 191.011719 182.710938 178.359375 186.480469 176.761719 186.351562 C 175.164062 186.222656 168.773438 186.160156 167.238281 186.414062 C 165.703125 186.671875 161.292969 187.117188 159.25 186.992188 C 157.203125 186.863281 152.027344 184.945312 151.003906 184.753906 C 149.984375 184.5625 144.808594 184.179688 143.65625 183.605469 C 142.507812 183.027344 140.972656 180.023438 140.972656 180.023438 Z M 140.460938 180.34375 " fill-opacity="1" fill-rule="nonzero"/><path fill="#ce8624" d="M 152.410156 229.105469 C 152.410156 229.105469 154.265625 235.6875 154.199219 238.5625 C 154.136719 241.441406 154.136719 247.640625 154.519531 250.707031 C 154.902344 253.773438 155.863281 253.710938 155.863281 256.011719 C 155.863281 258.3125 157.203125 278.890625 158.609375 283.875 C 160.082031 288.859375 161.167969 297.871094 161.421875 298.125 C 161.679688 298.382812 166.214844 299.148438 168.515625 298.890625 C 170.753906 298.636719 173.628906 297.230469 173.628906 297.230469 C 173.628906 297.230469 173.4375 282.210938 174.332031 279.65625 C 175.226562 277.101562 176.121094 268.984375 175.417969 264.894531 C 174.652344 260.804688 172.671875 254.285156 172.925781 252.175781 C 173.179688 250.132812 174.011719 246.742188 174.523438 240.289062 C 175.097656 233.835938 175.164062 226.933594 174.972656 226.742188 C 174.777344 226.550781 173.820312 226.101562 173.757812 225.144531 C 173.691406 224.183594 173.4375 221.882812 173.4375 221.882812 C 173.4375 221.882812 167.238281 225.269531 165.832031 226.164062 C 164.425781 227.0625 162.316406 228.722656 159.953125 228.914062 C 157.589844 229.105469 152.410156 229.105469 152.410156 229.105469 Z M 152.410156 229.105469 " fill-opacity="1" fill-rule="nonzero"/><path fill="#ce8624" d="M 181.488281 230.257812 C 181.488281 230.257812 181.363281 235.6875 182.128906 237.222656 C 182.894531 238.753906 184.300781 246.679688 184.300781 246.679688 C 184.621094 248.214844 188.261719 257.226562 189.09375 259.269531 C 189.988281 261.316406 190.371094 265.660156 190.5 268.792969 C 190.628906 271.859375 190.757812 278.25 191.460938 282.53125 C 192.160156 286.8125 194.847656 301.640625 195.230469 302.214844 C 195.675781 302.855469 199.0625 303.8125 201.492188 303.683594 C 203.921875 303.558594 206.347656 302.28125 206.667969 302.023438 C 206.988281 301.769531 208.96875 270.515625 207.945312 266.234375 C 206.925781 261.953125 204.625 256.394531 203.921875 250.707031 C 203.21875 245.019531 202.324219 238.117188 202.324219 234.089844 C 202.324219 230.0625 202.644531 225.015625 202.644531 225.015625 C 202.644531 225.015625 198.746094 228.148438 194.078125 229.9375 C 191.652344 230.894531 187.496094 231.660156 185.835938 231.40625 C 184.171875 231.152344 181.488281 230.257812 181.488281 230.257812 Z M 181.488281 230.257812 " fill-opacity="1" fill-rule="nonzero"/><path fill="#ce8624" d="M 160.847656 298.574219 C 160.847656 298.574219 161.421875 314.359375 161.613281 314.421875 C 161.804688 314.484375 167.558594 315.0625 167.8125 315.828125 C 168.070312 316.53125 166.789062 319.214844 167.046875 319.789062 C 167.300781 320.363281 171.136719 322.410156 173.117188 321.386719 C 175.097656 320.363281 174.714844 318.832031 174.714844 316.148438 C 174.714844 313.464844 173.882812 297.679688 173.882812 297.679688 C 173.882812 297.679688 170.371094 299.277344 168.003906 299.46875 C 165.640625 299.660156 160.847656 298.574219 160.847656 298.574219 Z M 160.847656 298.574219 " fill-opacity="1" fill-rule="nonzero"/><path fill="#ce8624" d="M 194.847656 302.917969 C 194.847656 302.917969 196.125 309.691406 196.378906 313.015625 C 196.636719 316.339844 196.378906 320.300781 196.378906 320.300781 C 196.378906 320.300781 201.238281 318.960938 203.539062 319.726562 C 205.839844 320.492188 207.820312 323.175781 207.820312 323.175781 C 207.820312 323.175781 206.542969 315.699219 206.605469 313.78125 C 206.667969 311.929688 207.117188 302.214844 207.117188 302.214844 C 207.117188 302.214844 204.113281 303.683594 202.132812 304.070312 C 200.214844 304.324219 194.847656 302.917969 194.847656 302.917969 Z M 194.847656 302.917969 " fill-opacity="1" fill-rule="nonzero"/><path fill="#f2ddcc" d="M 175.480469 314.484375 C 175.480469 314.484375 177.144531 315.0625 177.335938 316.402344 C 177.527344 317.746094 178.359375 325.476562 179.125 327.074219 C 179.890625 328.671875 180.976562 333.210938 180.402344 333.914062 C 179.828125 334.617188 175.097656 336.789062 172.160156 336.34375 C 169.21875 335.894531 166.597656 335.574219 165.066406 336.789062 C 163.59375 338.066406 158.226562 342.222656 153.113281 342.347656 C 148.003906 342.539062 141.546875 340.75 141.292969 338.324219 C 141.035156 335.894531 143.65625 333.722656 146.597656 332.058594 C 149.535156 330.398438 151.199219 329.3125 154.199219 326.371094 C 157.140625 323.433594 158.097656 321.386719 158.800781 319.46875 C 159.570312 317.554688 160.207031 314.484375 160.910156 314.484375 C 161.613281 314.421875 167.300781 315.253906 167.109375 315.957031 C 166.917969 316.660156 165.386719 319.46875 166.855469 320.429688 C 168.324219 321.386719 171.074219 322.859375 173.054688 321.835938 C 175.035156 320.8125 175.164062 320.558594 175.226562 318.765625 C 175.226562 316.914062 175.480469 314.484375 175.480469 314.484375 Z M 175.480469 314.484375 " fill-opacity="1" fill-rule="nonzero"/><path fill="#f2ddcc" d="M 195.421875 325.15625 C 195.421875 324.839844 195.039062 322.410156 196.316406 321.386719 C 197.59375 320.363281 202.324219 319.980469 203.410156 320.363281 C 204.496094 320.75 208.011719 322.21875 207.820312 323.113281 C 207.628906 324.007812 207.628906 325.667969 208.265625 325.09375 C 208.90625 324.519531 208.265625 321.644531 208.265625 321.644531 C 208.265625 321.644531 210.246094 323.558594 210.566406 325.925781 C 210.886719 328.289062 210.824219 333.082031 211.398438 335.957031 C 211.972656 338.835938 213.058594 344.332031 212.230469 346.886719 C 211.335938 349.441406 202.066406 350.785156 199.703125 350.914062 C 197.402344 351.039062 193.757812 350.785156 193.503906 348.421875 C 193.25 346.054688 193.441406 340.496094 193.824219 337.429688 C 194.207031 334.359375 194.78125 330.972656 194.847656 329.121094 C 194.910156 327.203125 195.484375 325.859375 195.421875 325.15625 Z M 195.421875 325.15625 " fill-opacity="1" fill-rule="nonzero"/></svg>